<svg width="25" height="25" viewBox="0 0 25 25" fill="none" xmlns="http://www.w3.org/2000/svg">
<g clip-path="url(#clip0_3964_18494)">
<path d="M8.86068 0.91901C6.4627 1.75089 4.39469 3.32982 2.96041 5.42389C1.52612 7.51796 0.80116 10.0168 0.892005 12.5533C0.982851 15.0899 1.88472 17.5304 3.46513 19.5165C5.04555 21.5026 7.22121 22.9296 9.67255 23.5878C11.6599 24.1006 13.7421 24.1231 15.7401 23.6534C17.55 23.2468 19.2234 22.3772 20.5963 21.1296C22.0252 19.7915 23.0624 18.0893 23.5963 16.2059C24.1765 14.1577 24.2797 12.0039 23.8982 9.90964H12.7382V14.539H19.2013C19.0721 15.2774 18.7953 15.9821 18.3875 16.6109C17.9796 17.2398 17.449 17.78 16.8276 18.199C16.0384 18.7213 15.1487 19.0725 14.2157 19.2303C13.2799 19.4043 12.3202 19.4043 11.3844 19.2303C10.436 19.0344 9.53875 18.6429 8.75005 18.0809C7.48283 17.1839 6.53132 15.9095 6.0313 14.4396C5.52297 12.9422 5.52297 11.3189 6.0313 9.82151C6.38722 8.77192 6.97561 7.81626 7.75255 7.02588C8.64166 6.10479 9.7673 5.44638 11.006 5.1229C12.2446 4.79943 13.5485 4.82338 14.7744 5.19213C15.7322 5.48599 16.608 5.99966 17.3319 6.69213C18.0607 5.96713 18.7882 5.24026 19.5144 4.51151C19.8894 4.11964 20.2982 3.74651 20.6676 3.34526C19.5623 2.31686 18.265 1.51658 16.85 0.99026C14.2732 0.0546161 11.4538 0.0294715 8.86068 0.91901Z" fill="white"/>
<path d="M8.86058 0.919006C11.4535 0.0288626 14.2729 0.0533453 16.85 0.988381C18.2652 1.51828 19.5619 2.32241 20.6656 3.35463C20.2906 3.75588 19.895 4.13088 19.5125 4.52088C18.785 5.24713 18.0581 5.97088 17.3318 6.69213C16.6079 5.99965 15.7321 5.48599 14.7743 5.19213C13.5488 4.82208 12.245 4.79675 11.006 5.1189C9.76699 5.44105 8.64067 6.09825 7.75058 7.01838C6.97364 7.80876 6.38525 8.76441 6.02933 9.81401L2.14246 6.80463C3.53372 4.04568 5.94261 1.9353 8.86058 0.919006Z" fill="#E33629"/>
<path d="M1.11128 9.78588C1.32004 8.75045 1.66689 7.74774 2.14253 6.80463L6.0294 9.8215C5.52107 11.3189 5.52107 12.9422 6.0294 14.4396C4.7344 15.4396 3.43878 16.4446 2.14253 17.4546C0.952186 15.0852 0.589153 12.3856 1.11128 9.78588Z" fill="#F8BD00"/>
<path d="M12.7381 9.90778H23.8981C24.2797 12.002 24.1764 14.1559 23.5963 16.204C23.0623 18.0874 22.0252 19.7897 20.5963 21.1278C19.3419 20.149 18.0819 19.1778 16.8275 18.199C17.4494 17.7795 17.9802 17.2388 18.3881 16.6093C18.796 15.9797 19.0726 15.2743 19.2013 14.5353H12.7381C12.7363 12.994 12.7381 11.4509 12.7381 9.90778Z" fill="#587DBD"/>
<path d="M2.14062 17.4546C3.43687 16.4546 4.7325 15.4496 6.0275 14.4396C6.52851 15.91 7.48138 17.1844 8.75 18.0809C9.54116 18.6403 10.4403 19.0286 11.39 19.2209C12.3257 19.3949 13.2855 19.3949 14.2213 19.2209C15.1543 19.0632 16.044 18.7119 16.8331 18.1896C18.0875 19.1684 19.3475 20.1396 20.6019 21.1184C19.2292 22.3666 17.5558 23.2369 15.7456 23.644C13.7476 24.1137 11.6655 24.0912 9.67813 23.5784C8.10632 23.1587 6.63814 22.4189 5.36563 21.4053C4.01886 20.3358 2.91882 18.9882 2.14062 17.4546Z" fill="#319F43"/>
</g>
<defs>
<clipPath id="clip0_3964_18494">
<rect width="24" height="24" fill="white" transform="translate(0.5 0.129639)"/>
</clipPath>
</defs>
</svg>
