<svg width="26" height="36" viewBox="0 0 26 36" fill="none" xmlns="http://www.w3.org/2000/svg">
<path d="M23 35.6807H3C2.33716 35.68 1.70166 35.4164 1.23296 34.9477C0.764267 34.479 0.500662 33.8435 0.5 33.1807V3.18066C0.500662 2.51783 0.764267 1.88233 1.23296 1.41363C1.70166 0.94493 2.33716 0.681326 3 0.680664H23C23.6628 0.681326 24.2983 0.94493 24.767 1.41363C25.2357 1.88233 25.4993 2.51783 25.5 3.18066V23.9532L19.25 20.8282L13 23.9532V3.18066H3V33.1807H23V28.1807H25.5V33.1807C25.499 33.8434 25.2353 34.4787 24.7667 34.9473C24.298 35.416 23.6627 35.6797 23 35.6807ZM19.25 18.0332L23 19.9082V3.18066H15.5V19.9082L19.25 18.0332Z" fill="#1D438F"/>
</svg>
