<svg width="20" height="21" viewBox="0 0 20 21" fill="none" xmlns="http://www.w3.org/2000/svg">
<g clip-path="url(#clip0_4114_19884)">
<path fill-rule="evenodd" clip-rule="evenodd" d="M11 16.1807C11.5304 16.1807 12.0391 16.3914 12.4142 16.7665C12.7893 17.1415 13 17.6502 13 18.1807C13 18.7111 12.7893 19.2198 12.4142 19.5949C12.0391 19.9699 11.5304 20.1807 11 20.1807C10.4696 20.1807 9.96086 19.9699 9.58579 19.5949C9.21071 19.2198 9 18.7111 9 18.1807C9 17.6502 9.21071 17.1415 9.58579 16.7665C9.96086 16.3914 10.4696 16.1807 11 16.1807ZM4.741 13.1807C5.40404 13.1807 6.03993 13.4441 6.50877 13.9129C6.97761 14.3817 7.241 15.0176 7.241 15.6807C7.241 16.3437 6.97761 16.9796 6.50877 17.4484C6.03993 17.9173 5.40404 18.1807 4.741 18.1807C4.07796 18.1807 3.44207 17.9173 2.97323 17.4484C2.50439 16.9796 2.241 16.3437 2.241 15.6807C2.241 15.0176 2.50439 14.3817 2.97323 13.9129C3.44207 13.4441 4.07796 13.1807 4.741 13.1807ZM16.319 13.6807C16.8494 13.6807 17.3581 13.8914 17.7332 14.2665C18.1083 14.6415 18.319 15.1502 18.319 15.6807C18.319 16.2111 18.1083 16.7198 17.7332 17.0949C17.3581 17.4699 16.8494 17.6807 16.319 17.6807C15.7886 17.6807 15.2799 17.4699 14.9048 17.0949C14.5297 16.7198 14.319 16.2111 14.319 15.6807C14.319 15.1502 14.5297 14.6415 14.9048 14.2665C15.2799 13.8914 15.7886 13.6807 16.319 13.6807ZM18.5 9.49966C18.8978 9.49966 19.2794 9.6577 19.5607 9.939C19.842 10.2203 20 10.6018 20 10.9997C20 11.3975 19.842 11.779 19.5607 12.0603C19.2794 12.3416 18.8978 12.4997 18.5 12.4997C18.1022 12.4997 17.7206 12.3416 17.4393 12.0603C17.158 11.779 17 11.3975 17 10.9997C17 10.6018 17.158 10.2203 17.4393 9.939C17.7206 9.6577 18.1022 9.49966 18.5 9.49966ZM2.5 6.18066C3.16304 6.18066 3.79893 6.44406 4.26777 6.9129C4.73661 7.38174 5 8.01762 5 8.68066C5 9.34371 4.73661 9.97959 4.26777 10.4484C3.79893 10.9173 3.16304 11.1807 2.5 11.1807C1.83696 11.1807 1.20107 10.9173 0.732233 10.4484C0.263392 9.97959 0 9.34371 0 8.68066C0 8.01762 0.263392 7.38174 0.732233 6.9129C1.20107 6.44406 1.83696 6.18066 2.5 6.18066ZM17.786 5.38766C18.0512 5.38766 18.3056 5.49302 18.4931 5.68056C18.6806 5.86809 18.786 6.12245 18.786 6.38766C18.786 6.65288 18.6806 6.90723 18.4931 7.09477C18.3056 7.28231 18.0512 7.38766 17.786 7.38766C17.5208 7.38766 17.2664 7.28231 17.0789 7.09477C16.8914 6.90723 16.786 6.65288 16.786 6.38766C16.786 6.12245 16.8914 5.86809 17.0789 5.68056C17.2664 5.49302 17.5208 5.38766 17.786 5.38766ZM8 0.180664C8.79565 0.180664 9.55871 0.496735 10.1213 1.05934C10.6839 1.62195 11 2.38501 11 3.18066C11 3.97631 10.6839 4.73938 10.1213 5.30198C9.55871 5.86459 8.79565 6.18066 8 6.18066C7.20435 6.18066 6.44129 5.86459 5.87868 5.30198C5.31607 4.73938 5 3.97631 5 3.18066C5 2.38501 5.31607 1.62195 5.87868 1.05934C6.44129 0.496735 7.20435 0.180664 8 0.180664ZM15.5 3.18066C15.6326 3.18066 15.7598 3.23334 15.8536 3.32711C15.9473 3.42088 16 3.54806 16 3.68066C16 3.81327 15.9473 3.94045 15.8536 4.03422C15.7598 4.12799 15.6326 4.18066 15.5 4.18066C15.3674 4.18066 15.2402 4.12799 15.1464 4.03422C15.0527 3.94045 15 3.81327 15 3.68066C15 3.54806 15.0527 3.42088 15.1464 3.32711C15.2402 3.23334 15.3674 3.18066 15.5 3.18066Z" fill="#1D438F"/>
</g>
<defs>
<clipPath id="clip0_4114_19884">
<rect width="20" height="20" fill="white" transform="translate(0 0.180664)"/>
</clipPath>
</defs>
</svg>
