<svg width="18" height="20" viewBox="0 0 18 20" fill="none" xmlns="http://www.w3.org/2000/svg">
<path d="M12.1591 17.5714C11.3968 18.7143 10.4448 19.2857 9.30192 19.2857C8.15907 19.2857 7.20707 18.7143 6.44478 17.5714M15.1134 15.8571H3.49049C3.15659 15.8573 2.82864 15.7688 2.54015 15.6007C2.25166 15.4326 2.01298 15.1909 1.84851 14.9003C1.68404 14.6097 1.59968 14.2807 1.60404 13.9468C1.60841 13.6129 1.70134 13.2862 1.87335 13C2.99499 11.1306 3.58753 8.99151 3.58764 6.81143V5.57143C3.58764 4.35901 4.06927 3.19625 4.92658 2.33894C5.78389 1.48163 6.94665 1 8.15907 1H10.4448C11.6572 1 12.82 1.48163 13.6773 2.33894C14.5346 3.19625 15.0162 4.35901 15.0162 5.57143V6.81143C15.0162 8.99086 15.6082 11.1314 16.7305 13C16.9025 13.2862 16.9954 13.6129 16.9998 13.9468C17.0042 14.2807 16.9198 14.6097 16.7553 14.9003C16.5909 15.1909 16.3522 15.4326 16.0637 15.6007C15.7752 15.7688 15.4473 15.8573 15.1134 15.8571Z" stroke="#303034" stroke-width="1.4" stroke-linecap="round" stroke-linejoin="round"/>
</svg>
