<svg width="213" height="216" viewBox="0 0 213 216" fill="none" xmlns="http://www.w3.org/2000/svg">
<path d="M184.264 175.235H202.153V169.542H184.264V175.235Z" fill="#EBEBEB"/>
<path d="M171.392 109.576H189.281V103.883H171.392V109.576Z" fill="#EBEBEB"/>
<path d="M194.241 182.409C197.213 182.363 204.829 182.236 207.699 182.2H212.13L211.896 182.429V176.736L212.15 176.99C209.179 176.99 201.603 176.955 198.734 176.914L194.262 176.858L194.384 176.736L194.262 182.429L194.241 182.409ZM194.241 182.409L194.124 176.716V176.599H194.246C196.48 176.568 200.962 176.517 203.191 176.497L212.135 176.461H212.39V176.716V182.409V182.643H212.161H207.648C204.799 182.612 197.218 182.48 194.272 182.429L194.241 182.409Z" fill="#EBEBEB"/>
<path d="M95.4559 43.6127C98.4271 43.5619 106.044 43.4347 108.913 43.4042L113.345 43.3787L113.111 43.6127V37.9195L113.365 38.1739C110.394 38.1739 102.818 38.1382 99.9484 38.0975L95.4762 38.0416L95.5983 37.9195L95.4762 43.6127H95.4559ZM95.4559 43.6127L95.3337 37.9195V37.8024H95.4559C97.6894 37.7719 102.167 37.721 104.4 37.7058L113.345 37.6702H113.599V37.9246L113.574 43.6178V43.8519H113.345L108.832 43.8264C105.983 43.7959 98.3966 43.6687 95.4559 43.6178V43.6127Z" fill="#EBEBEB"/>
<path d="M105.433 50.8017C108.404 50.7508 116.021 50.6236 118.89 50.5931H123.322L123.088 50.8272V45.1339L123.342 45.3883C120.371 45.3883 112.795 45.3527 109.926 45.3119L105.453 45.256L105.575 45.1339L105.433 50.8017ZM105.433 50.8017L105.311 45.1084V44.9914H105.433C107.667 44.9609 112.149 44.91 114.377 44.8947L123.322 44.8591H123.576V45.1135L123.551 50.8017V51.0358H123.322L118.809 51.0103C115.96 50.9798 108.379 50.8526 105.433 50.8017Z" fill="#EBEBEB"/>
<path d="M115.369 43.6125H133.258V37.9193H115.369V43.6125Z" fill="#EBEBEB"/>
<path d="M1.6566 182.414H19.5454V176.721H1.6566V182.414Z" fill="#EBEBEB"/>
<path d="M11.6338 6.604L29.5226 6.604V0.910721L11.6338 0.910721V6.604Z" fill="#EBEBEB"/>
<path d="M1.65653 13.7778C4.62783 13.727 12.2443 13.5998 15.1138 13.5692H19.5453L19.3113 13.7982V8.10491L19.5657 8.3593C16.5944 8.3593 9.01862 8.32369 6.14909 8.28298L1.67688 8.22702L1.77864 8.06421L1.65653 13.7575V13.7778ZM1.65653 13.7778L1.53442 8.06421V7.94719H1.65653C3.89009 7.91666 8.36738 7.86578 10.6009 7.84543L19.5453 7.80981H19.7997V8.06421V13.7575V13.9915H19.5708H15.0579C12.2087 13.9559 4.62274 13.8287 1.68197 13.7778H1.65653Z" fill="#EBEBEB"/>
<path d="M184.264 6.5988C187.235 6.54792 194.851 6.42581 197.721 6.3902H202.153L201.918 6.61915V0.925866L202.173 1.18026L193.228 1.14464C191 1.14464 186.513 1.0785 184.284 1.04797L184.406 0.925866L184.284 6.61915L184.264 6.5988ZM184.264 6.5988L184.142 0.905515V0.788495H184.264C186.497 0.757968 190.98 0.707089 193.208 0.686738L202.153 0.651123H202.407V0.905515L202.381 6.5988V6.83284H202.153H197.64C194.79 6.79722 187.21 6.67003 184.264 6.61915V6.5988Z" fill="#EBEBEB"/>
<path d="M10.3618 0V99.2127H74.8399V0H10.3618ZM72.4639 96.8265H12.7684V2.38111H72.4639V96.8265Z" fill="#EBEBEB"/>
<path d="M72.464 2.38086H12.743V96.8263H72.464V2.38086Z" fill="white"/>
<path d="M12.7429 50.7917L72.4639 50.7917V48.4106L12.7429 48.4106V50.7917Z" fill="#EBEBEB"/>
<path d="M5.98125 106.03L79.2206 106.03V99.2024L5.98125 99.2024V106.03Z" fill="#DBDBDB"/>
<path d="M12.7379 2.38086H72.4589V63.4806H12.7379V2.38086ZM70.2609 4.58389H14.9409V61.2776H70.2609V4.58389Z" fill="#DBDBDB"/>
<path d="M53.3998 2.38086H52.2092V61.2827H53.3998V2.38086Z" fill="#DBDBDB"/>
<path d="M32.9926 2.38086H31.802V61.2827H32.9926V2.38086Z" fill="#DBDBDB"/>
<path d="M0.786621 209.522L27.3146 209.4L53.8425 209.354L106.893 209.268L159.944 209.354L186.472 209.395L213 209.522L186.472 209.644L159.944 209.69L106.893 209.776L53.8425 209.69L27.3146 209.644L0.786621 209.522Z" fill="#263238"/>
<path d="M181.069 211.501H146.899L152.943 206.296H175.019L181.069 211.501Z" fill="#DBDBDB"/>
<path d="M165.729 41.0994H162.234V206.296H165.729V41.0994Z" fill="#DBDBDB"/>
<path d="M165.729 41.0994V53.5188L162.234 54.867V41.0994H165.729Z" fill="#C7C7C7"/>
<path d="M185.551 51.3616H142.411L145.545 41.0587L145.663 40.6924L154.78 10.72H173.183L182.31 40.7026V40.7077L182.412 41.0485L185.551 51.3616Z" fill="#395BA9"/>
<path d="M156.306 17.6444C156.307 17.6827 156.3 17.7207 156.286 17.7562C156.271 17.7917 156.25 17.8239 156.223 17.851C156.196 17.8781 156.163 17.8994 156.128 17.9138C156.092 17.9281 156.054 17.9351 156.016 17.9344C155.939 17.9344 155.865 17.9039 155.811 17.8495C155.757 17.7951 155.726 17.7213 155.726 17.6444C155.727 17.5679 155.758 17.4949 155.813 17.4408C155.867 17.3867 155.94 17.3557 156.016 17.3544C156.093 17.3544 156.167 17.385 156.221 17.4394C156.276 17.4937 156.306 17.5675 156.306 17.6444ZM161.328 17.3544C161.251 17.3557 161.178 17.3867 161.124 17.4408C161.07 17.4949 161.039 17.5679 161.038 17.6444C161.038 17.7213 161.068 17.7951 161.123 17.8495C161.177 17.9039 161.251 17.9344 161.328 17.9344C161.366 17.9351 161.404 17.9281 161.44 17.9138C161.475 17.8994 161.507 17.8781 161.534 17.851C161.562 17.8239 161.583 17.7917 161.597 17.7562C161.612 17.7207 161.619 17.6827 161.618 17.6444C161.618 17.5684 161.588 17.4954 161.535 17.4411C161.481 17.3869 161.409 17.3557 161.333 17.3544H161.328ZM166.64 17.3544C166.563 17.3557 166.49 17.3867 166.436 17.4408C166.382 17.4949 166.351 17.5679 166.35 17.6444C166.35 17.7213 166.38 17.7951 166.435 17.8495C166.489 17.9039 166.563 17.9344 166.64 17.9344C166.678 17.9351 166.716 17.9281 166.751 17.9138C166.787 17.8994 166.819 17.8781 166.846 17.851C166.873 17.8239 166.895 17.7917 166.909 17.7562C166.923 17.7207 166.93 17.6827 166.93 17.6444C166.93 17.5675 166.899 17.4937 166.845 17.4394C166.79 17.385 166.716 17.3544 166.64 17.3544ZM171.951 17.3544C171.875 17.3557 171.802 17.3867 171.748 17.4408C171.694 17.4949 171.663 17.5679 171.661 17.6444C171.661 17.7213 171.692 17.7951 171.746 17.8495C171.801 17.9039 171.874 17.9344 171.951 17.9344C171.99 17.9351 172.028 17.9281 172.063 17.9138C172.099 17.8994 172.131 17.8781 172.158 17.851C172.185 17.8239 172.206 17.7917 172.221 17.7562C172.235 17.7207 172.242 17.6827 172.241 17.6444C172.241 17.5675 172.211 17.4937 172.156 17.4394C172.102 17.385 172.028 17.3544 171.951 17.3544ZM158.672 13.6606C158.596 13.662 158.523 13.6929 158.468 13.747C158.414 13.8011 158.383 13.8741 158.382 13.9507C158.382 14.0276 158.413 14.1013 158.467 14.1557C158.521 14.2101 158.595 14.2407 158.672 14.2407C158.71 14.2413 158.748 14.2343 158.784 14.22C158.819 14.2057 158.852 14.1843 158.879 14.1573C158.906 14.1302 158.927 14.0979 158.941 14.0624C158.956 14.0269 158.963 13.9889 158.962 13.9507C158.962 13.8737 158.931 13.8 158.877 13.7456C158.823 13.6912 158.749 13.6606 158.672 13.6606ZM163.984 13.6606C163.907 13.662 163.834 13.6929 163.78 13.747C163.726 13.8011 163.695 13.8741 163.694 13.9507C163.694 14.0276 163.724 14.1013 163.779 14.1557C163.833 14.2101 163.907 14.2407 163.984 14.2407C164.022 14.2413 164.06 14.2343 164.096 14.22C164.131 14.2057 164.163 14.1843 164.19 14.1573C164.217 14.1302 164.239 14.0979 164.253 14.0624C164.267 14.0269 164.274 13.9889 164.274 13.9507C164.274 13.8737 164.243 13.8 164.189 13.7456C164.134 13.6912 164.061 13.6606 163.984 13.6606ZM169.295 13.6606C169.219 13.662 169.146 13.6929 169.092 13.747C169.038 13.8011 169.007 13.8741 169.005 13.9507C169.005 14.0276 169.036 14.1013 169.09 14.1557C169.145 14.2101 169.218 14.2407 169.295 14.2407C169.334 14.2413 169.372 14.2343 169.407 14.22C169.443 14.2057 169.475 14.1843 169.502 14.1573C169.529 14.1302 169.55 14.0979 169.565 14.0624C169.579 14.0269 169.586 13.9889 169.585 13.9507C169.585 13.8737 169.555 13.8 169.5 13.7456C169.446 13.6912 169.372 13.6606 169.295 13.6606ZM150.704 25.0777C150.628 25.079 150.555 25.11 150.501 25.1641C150.447 25.2182 150.416 25.2912 150.414 25.3677C150.414 25.4447 150.445 25.5184 150.499 25.5728C150.554 25.6272 150.628 25.6578 150.704 25.6578C150.743 25.6584 150.781 25.6514 150.816 25.6371C150.852 25.6228 150.884 25.6014 150.911 25.5743C150.938 25.5473 150.959 25.515 150.974 25.4795C150.988 25.444 150.995 25.406 150.994 25.3677C150.994 25.2908 150.964 25.2171 150.91 25.1627C150.855 25.1083 150.781 25.0777 150.704 25.0777ZM156.016 25.0777C155.942 25.0815 155.873 25.1129 155.821 25.1657C155.769 25.2184 155.739 25.2887 155.736 25.3627C155.736 25.4396 155.767 25.5133 155.821 25.5677C155.876 25.6221 155.949 25.6527 156.026 25.6527C156.065 25.6534 156.103 25.6463 156.138 25.632C156.174 25.6177 156.206 25.5963 156.233 25.5693C156.26 25.5422 156.281 25.5099 156.296 25.4744C156.31 25.439 156.317 25.4009 156.316 25.3627C156.316 25.3241 156.307 25.2861 156.292 25.2508C156.276 25.2156 156.254 25.1837 156.226 25.1572C156.198 25.1307 156.165 25.11 156.129 25.0964C156.093 25.0827 156.055 25.0764 156.016 25.0777ZM161.328 25.0777C161.251 25.079 161.178 25.11 161.124 25.1641C161.07 25.2182 161.039 25.2912 161.038 25.3677C161.038 25.4447 161.068 25.5184 161.123 25.5728C161.177 25.6272 161.251 25.6578 161.328 25.6578C161.366 25.6584 161.404 25.6514 161.44 25.6371C161.475 25.6228 161.507 25.6014 161.534 25.5743C161.562 25.5473 161.583 25.515 161.597 25.4795C161.612 25.444 161.619 25.406 161.618 25.3677C161.618 25.2917 161.588 25.2187 161.535 25.1645C161.481 25.1102 161.409 25.0791 161.333 25.0777H161.328ZM166.64 25.0777C166.563 25.079 166.49 25.11 166.436 25.1641C166.382 25.2182 166.351 25.2912 166.35 25.3677C166.35 25.4447 166.38 25.5184 166.435 25.5728C166.489 25.6272 166.563 25.6578 166.64 25.6578C166.678 25.6585 166.717 25.6513 166.753 25.6366C166.788 25.622 166.821 25.6002 166.848 25.5726C166.875 25.545 166.896 25.5121 166.91 25.476C166.924 25.4399 166.931 25.4014 166.93 25.3627C166.928 25.2866 166.897 25.2142 166.843 25.1609C166.789 25.1076 166.716 25.0777 166.64 25.0777ZM171.951 25.0777C171.875 25.079 171.802 25.11 171.748 25.1641C171.694 25.2182 171.663 25.2912 171.661 25.3677C171.661 25.4447 171.692 25.5184 171.746 25.5728C171.801 25.6272 171.874 25.6578 171.951 25.6578C171.99 25.6584 172.028 25.6514 172.063 25.6371C172.099 25.6228 172.131 25.6014 172.158 25.5743C172.185 25.5473 172.206 25.515 172.221 25.4795C172.235 25.444 172.242 25.406 172.241 25.3677C172.241 25.2908 172.211 25.2171 172.156 25.1627C172.102 25.1083 172.028 25.0777 171.951 25.0777ZM177.263 25.0777C177.186 25.079 177.113 25.11 177.059 25.1641C177.005 25.2182 176.974 25.2912 176.973 25.3677C176.973 25.4447 177.004 25.5184 177.058 25.5728C177.112 25.6272 177.186 25.6578 177.263 25.6578C177.301 25.6584 177.339 25.6514 177.375 25.6371C177.41 25.6228 177.442 25.6014 177.47 25.5743C177.497 25.5473 177.518 25.515 177.532 25.4795C177.547 25.444 177.554 25.406 177.553 25.3677C177.553 25.2908 177.522 25.2171 177.468 25.1627C177.414 25.1083 177.34 25.0777 177.263 25.0777ZM153.35 21.3585C153.274 21.3598 153.201 21.3908 153.147 21.4449C153.092 21.499 153.061 21.572 153.06 21.6485C153.06 21.7255 153.091 21.7992 153.145 21.8536C153.199 21.908 153.273 21.9385 153.35 21.9385C153.388 21.9392 153.426 21.9322 153.462 21.9179C153.497 21.9035 153.53 21.8822 153.557 21.8551C153.584 21.8281 153.605 21.7958 153.619 21.7603C153.634 21.7248 153.641 21.6868 153.64 21.6485C153.64 21.5734 153.611 21.5011 153.559 21.447C153.507 21.3929 153.435 21.3612 153.36 21.3585H153.35ZM158.662 21.3585C158.585 21.3598 158.512 21.3908 158.458 21.4449C158.404 21.499 158.373 21.572 158.372 21.6485C158.372 21.7255 158.402 21.7992 158.457 21.8536C158.511 21.908 158.585 21.9385 158.662 21.9385C158.7 21.9392 158.738 21.9322 158.774 21.9179C158.809 21.9035 158.841 21.8822 158.868 21.8551C158.896 21.8281 158.917 21.7958 158.931 21.7603C158.946 21.7248 158.953 21.6868 158.952 21.6485C158.952 21.5734 158.923 21.5011 158.871 21.447C158.818 21.3929 158.747 21.3612 158.672 21.3585H158.662ZM163.974 21.3585C163.897 21.3598 163.824 21.3908 163.77 21.4449C163.716 21.499 163.685 21.572 163.684 21.6485C163.684 21.7255 163.714 21.7992 163.768 21.8536C163.823 21.908 163.897 21.9385 163.974 21.9385C164.012 21.9392 164.05 21.9322 164.085 21.9179C164.121 21.9035 164.153 21.8822 164.18 21.8551C164.207 21.8281 164.229 21.7958 164.243 21.7603C164.257 21.7248 164.264 21.6868 164.264 21.6485C164.264 21.5734 164.234 21.5011 164.182 21.447C164.13 21.3929 164.059 21.3612 163.984 21.3585H163.974ZM169.285 21.3585C169.209 21.3598 169.136 21.3908 169.082 21.4449C169.028 21.499 168.997 21.572 168.995 21.6485C168.995 21.7255 169.026 21.7992 169.08 21.8536C169.135 21.908 169.208 21.9385 169.285 21.9385C169.324 21.9392 169.362 21.9322 169.397 21.9179C169.433 21.9035 169.465 21.8822 169.492 21.8551C169.519 21.8281 169.54 21.7958 169.555 21.7603C169.569 21.7248 169.576 21.6868 169.575 21.6485C169.575 21.5734 169.546 21.5011 169.494 21.447C169.442 21.3929 169.371 21.3612 169.295 21.3585H169.285ZM174.597 21.3585C174.52 21.3598 174.447 21.3908 174.393 21.4449C174.339 21.499 174.308 21.572 174.307 21.6485C174.307 21.7255 174.337 21.7992 174.392 21.8536C174.446 21.908 174.52 21.9385 174.597 21.9385C174.635 21.9392 174.673 21.9322 174.709 21.9179C174.744 21.9035 174.776 21.8822 174.804 21.8551C174.831 21.8281 174.852 21.7958 174.866 21.7603C174.881 21.7248 174.888 21.6868 174.887 21.6485C174.887 21.5734 174.858 21.5011 174.806 21.447C174.753 21.3929 174.682 21.3612 174.607 21.3585H174.597ZM150.684 32.8011C150.608 32.8024 150.535 32.8333 150.481 32.8875C150.426 32.9416 150.395 33.0146 150.394 33.0911C150.394 33.168 150.425 33.2417 150.479 33.2961C150.533 33.3505 150.607 33.3811 150.684 33.3811C150.722 33.3818 150.76 33.3747 150.796 33.3604C150.831 33.3461 150.864 33.3247 150.891 33.2977C150.918 33.2706 150.939 33.2384 150.953 33.2029C150.968 33.1674 150.975 33.1293 150.974 33.0911C150.974 33.0176 150.947 32.9467 150.897 32.8929C150.846 32.839 150.778 32.8062 150.704 32.8011H150.684ZM155.996 32.8011C155.919 32.8024 155.846 32.8333 155.792 32.8875C155.738 32.9416 155.707 33.0146 155.706 33.0911C155.706 33.168 155.736 33.2417 155.791 33.2961C155.845 33.3505 155.919 33.3811 155.996 33.3811C156.034 33.3818 156.072 33.3747 156.108 33.3604C156.143 33.3461 156.175 33.3247 156.202 33.2977C156.229 33.2706 156.251 33.2384 156.265 33.2029C156.279 33.1674 156.287 33.1293 156.286 33.0911C156.286 33.0176 156.258 32.9467 156.208 32.8929C156.158 32.839 156.09 32.8062 156.016 32.8011H155.996ZM161.308 32.8011C161.231 32.8024 161.158 32.8333 161.104 32.8875C161.05 32.9416 161.019 33.0146 161.018 33.0911C161.018 33.168 161.048 33.2417 161.102 33.2961C161.157 33.3505 161.231 33.3811 161.308 33.3811C161.346 33.3818 161.384 33.3747 161.419 33.3604C161.455 33.3461 161.487 33.3247 161.514 33.2977C161.541 33.2706 161.563 33.2384 161.577 33.2029C161.591 33.1674 161.598 33.1293 161.598 33.0911C161.598 33.0184 161.571 32.9482 161.522 32.8945C161.473 32.8408 161.405 32.8074 161.333 32.8011H161.308ZM166.619 32.8011C166.543 32.8024 166.47 32.8333 166.416 32.8875C166.361 32.9416 166.331 33.0146 166.329 33.0911C166.329 33.168 166.36 33.2417 166.414 33.2961C166.469 33.3505 166.542 33.3811 166.619 33.3811C166.657 33.3818 166.696 33.3747 166.731 33.3604C166.766 33.3461 166.799 33.3247 166.826 33.2977C166.853 33.2706 166.874 33.2384 166.889 33.2029C166.903 33.1674 166.91 33.1293 166.909 33.0911C166.909 33.0176 166.882 32.9467 166.832 32.8929C166.782 32.839 166.713 32.8062 166.64 32.8011H166.619ZM171.931 32.8011C171.854 32.8024 171.781 32.8333 171.727 32.8875C171.673 32.9416 171.642 33.0146 171.641 33.0911C171.641 33.168 171.671 33.2417 171.726 33.2961C171.78 33.3505 171.854 33.3811 171.931 33.3811C171.969 33.3818 172.007 33.3747 172.043 33.3604C172.078 33.3461 172.11 33.3247 172.138 33.2977C172.165 33.2706 172.186 33.2384 172.2 33.2029C172.215 33.1674 172.222 33.1293 172.221 33.0911C172.221 33.0176 172.193 32.9467 172.143 32.8929C172.093 32.839 172.025 32.8062 171.951 32.8011H171.931ZM177.243 32.8011C177.166 32.8024 177.093 32.8333 177.039 32.8875C176.985 32.9416 176.954 33.0146 176.953 33.0911C176.953 33.168 176.983 33.2417 177.038 33.2961C177.092 33.3505 177.166 33.3811 177.243 33.3811C177.281 33.3818 177.319 33.3747 177.354 33.3604C177.39 33.3461 177.422 33.3247 177.449 33.2977C177.476 33.2706 177.498 33.2384 177.512 33.2029C177.526 33.1674 177.533 33.1293 177.533 33.0911C177.533 33.0176 177.505 32.9467 177.455 32.8929C177.405 32.839 177.336 32.8062 177.263 32.8011H177.243ZM153.33 29.0819C153.253 29.0832 153.18 29.1141 153.126 29.1682C153.072 29.2224 153.041 29.2954 153.04 29.3719C153.04 29.4488 153.07 29.5225 153.125 29.5769C153.179 29.6313 153.253 29.6619 153.33 29.6619C153.368 29.6626 153.406 29.6555 153.442 29.6412C153.477 29.6269 153.509 29.6055 153.536 29.5785C153.563 29.5514 153.585 29.5192 153.599 29.4837C153.613 29.4482 153.62 29.4101 153.62 29.3719C153.62 29.3 153.594 29.2305 153.546 29.1769C153.498 29.1233 153.432 29.0894 153.36 29.0819H153.33ZM158.641 29.0819C158.565 29.0832 158.492 29.1141 158.438 29.1682C158.384 29.2224 158.353 29.2954 158.351 29.3719C158.351 29.4488 158.382 29.5225 158.436 29.5769C158.491 29.6313 158.565 29.6619 158.641 29.6619C158.68 29.6626 158.718 29.6555 158.753 29.6412C158.789 29.6269 158.821 29.6055 158.848 29.5785C158.875 29.5514 158.897 29.5192 158.911 29.4837C158.925 29.4482 158.932 29.4101 158.932 29.3719C158.932 29.3 158.906 29.2305 158.858 29.1769C158.81 29.1233 158.744 29.0894 158.672 29.0819H158.641ZM163.953 29.0819C163.877 29.0832 163.804 29.1141 163.75 29.1682C163.695 29.2224 163.664 29.2954 163.663 29.3719C163.663 29.4488 163.694 29.5225 163.748 29.5769C163.803 29.6313 163.876 29.6619 163.953 29.6619C163.991 29.6626 164.029 29.6555 164.065 29.6412C164.1 29.6269 164.133 29.6055 164.16 29.5785C164.187 29.5514 164.208 29.5192 164.223 29.4837C164.237 29.4482 164.244 29.4101 164.243 29.3719C164.244 29.3 164.217 29.2305 164.169 29.1769C164.121 29.1233 164.055 29.0894 163.984 29.0819H163.953ZM169.265 29.0819C169.188 29.0832 169.115 29.1141 169.061 29.1682C169.007 29.2224 168.976 29.2954 168.975 29.3719C168.975 29.4488 169.005 29.5225 169.06 29.5769C169.114 29.6313 169.188 29.6619 169.265 29.6619C169.303 29.6626 169.341 29.6555 169.377 29.6412C169.412 29.6269 169.444 29.6055 169.471 29.5785C169.499 29.5514 169.52 29.5192 169.534 29.4837C169.549 29.4482 169.556 29.4101 169.555 29.3719C169.555 29.3 169.529 29.2305 169.481 29.1769C169.433 29.1233 169.367 29.0894 169.295 29.0819H169.265ZM174.577 29.0819C174.5 29.0832 174.427 29.1141 174.373 29.1682C174.319 29.2224 174.288 29.2954 174.287 29.3719C174.287 29.4488 174.317 29.5225 174.372 29.5769C174.426 29.6313 174.5 29.6619 174.577 29.6619C174.615 29.6626 174.653 29.6555 174.688 29.6412C174.724 29.6269 174.756 29.6055 174.783 29.5785C174.81 29.5514 174.832 29.5192 174.846 29.4837C174.86 29.4482 174.867 29.4101 174.867 29.3719C174.867 29.3 174.841 29.2305 174.793 29.1769C174.745 29.1233 174.679 29.0894 174.607 29.0819H174.577ZM145.662 40.6923L145.545 41.0586C145.589 41.0346 145.625 40.9993 145.65 40.9562C145.676 40.9132 145.688 40.8642 145.688 40.8144C145.689 40.7723 145.681 40.7304 145.662 40.6923ZM150.704 40.5295C150.628 40.5295 150.554 40.56 150.499 40.6144C150.445 40.6688 150.414 40.7426 150.414 40.8195C150.416 40.896 150.447 40.969 150.501 41.0231C150.555 41.0772 150.628 41.1082 150.704 41.1095C150.781 41.1095 150.855 41.0789 150.91 41.0246C150.964 40.9702 150.994 40.8964 150.994 40.8195C150.995 40.7812 150.988 40.7432 150.974 40.7077C150.959 40.6722 150.938 40.64 150.911 40.6129C150.884 40.5858 150.852 40.5645 150.816 40.5501C150.781 40.5358 150.743 40.5288 150.704 40.5295ZM156.016 40.5295C155.939 40.5295 155.865 40.56 155.811 40.6144C155.757 40.6688 155.726 40.7426 155.726 40.8195C155.727 40.896 155.758 40.969 155.813 41.0231C155.867 41.0772 155.94 41.1082 156.016 41.1095C156.093 41.1095 156.167 41.0789 156.221 41.0246C156.276 40.9702 156.306 40.8964 156.306 40.8195C156.307 40.7812 156.3 40.7432 156.286 40.7077C156.271 40.6722 156.25 40.64 156.223 40.6129C156.196 40.5858 156.163 40.5645 156.128 40.5501C156.092 40.5358 156.054 40.5288 156.016 40.5295ZM161.328 40.5295C161.251 40.5295 161.177 40.56 161.123 40.6144C161.068 40.6688 161.038 40.7426 161.038 40.8195C161.039 40.896 161.07 40.969 161.124 41.0231C161.178 41.0772 161.251 41.1082 161.328 41.1095C161.405 41.1095 161.479 41.0789 161.533 41.0246C161.587 40.9702 161.618 40.8964 161.618 40.8195C161.619 40.7816 161.612 40.744 161.598 40.7089C161.584 40.6737 161.563 40.6417 161.536 40.6147C161.51 40.5877 161.478 40.5663 161.443 40.5516C161.408 40.537 161.371 40.5295 161.333 40.5295H161.328ZM166.64 40.5295C166.563 40.5295 166.489 40.56 166.435 40.6144C166.38 40.6688 166.35 40.7426 166.35 40.8195C166.351 40.896 166.382 40.969 166.436 41.0231C166.49 41.0772 166.563 41.1082 166.64 41.1095C166.716 41.1095 166.79 41.0789 166.845 41.0246C166.899 40.9702 166.93 40.8964 166.93 40.8195C166.93 40.7812 166.923 40.7432 166.909 40.7077C166.895 40.6722 166.873 40.64 166.846 40.6129C166.819 40.5858 166.787 40.5645 166.751 40.5501C166.716 40.5358 166.678 40.5288 166.64 40.5295ZM171.951 40.5295C171.874 40.5295 171.801 40.56 171.746 40.6144C171.692 40.6688 171.661 40.7426 171.661 40.8195C171.663 40.896 171.694 40.969 171.748 41.0231C171.802 41.0772 171.875 41.1082 171.951 41.1095C172.028 41.1095 172.102 41.0789 172.156 41.0246C172.211 40.9702 172.241 40.8964 172.241 40.8195C172.242 40.7812 172.235 40.7432 172.221 40.7077C172.206 40.6722 172.185 40.64 172.158 40.6129C172.131 40.5858 172.099 40.5645 172.063 40.5501C172.028 40.5358 171.99 40.5288 171.951 40.5295ZM177.263 40.5295C177.186 40.5295 177.112 40.56 177.058 40.6144C177.004 40.6688 176.973 40.7426 176.973 40.8195C176.974 40.896 177.005 40.969 177.059 41.0231C177.113 41.0772 177.186 41.1082 177.263 41.1095C177.34 41.1095 177.414 41.0789 177.468 41.0246C177.522 40.9702 177.553 40.8964 177.553 40.8195C177.554 40.7812 177.547 40.7432 177.532 40.7077C177.518 40.6722 177.497 40.64 177.47 40.6129C177.442 40.5858 177.41 40.5645 177.375 40.5501C177.339 40.5358 177.301 40.5288 177.263 40.5295ZM182.31 40.7076C182.302 40.7428 182.302 40.7792 182.31 40.8144C182.308 40.8607 182.318 40.9067 182.34 40.9477C182.361 40.9888 182.393 41.0235 182.432 41.0484L182.31 40.7076ZM148.049 36.8052C147.972 36.8065 147.899 36.8375 147.845 36.8916C147.791 36.9457 147.76 37.0187 147.759 37.0952C147.759 37.1721 147.789 37.2459 147.844 37.3003C147.898 37.3546 147.972 37.3852 148.049 37.3852C148.087 37.3859 148.125 37.3789 148.16 37.3645C148.196 37.3502 148.228 37.3289 148.255 37.3018C148.282 37.2747 148.304 37.2425 148.318 37.207C148.332 37.1715 148.339 37.1335 148.339 37.0952C148.339 37.0183 148.308 36.9445 148.254 36.8901C148.199 36.8357 148.126 36.8052 148.049 36.8052ZM153.36 36.8052C153.284 36.8065 153.211 36.8375 153.157 36.8916C153.103 36.9457 153.072 37.0187 153.07 37.0952C153.07 37.1721 153.101 37.2459 153.155 37.3003C153.21 37.3546 153.283 37.3852 153.36 37.3852C153.399 37.3859 153.437 37.3789 153.472 37.3645C153.508 37.3502 153.54 37.3289 153.567 37.3018C153.594 37.2747 153.615 37.2425 153.63 37.207C153.644 37.1715 153.651 37.1335 153.65 37.0952C153.65 37.0183 153.62 36.9445 153.565 36.8901C153.511 36.8357 153.437 36.8052 153.36 36.8052ZM158.672 36.8052C158.596 36.8065 158.523 36.8375 158.468 36.8916C158.414 36.9457 158.383 37.0187 158.382 37.0952C158.382 37.1721 158.413 37.2459 158.467 37.3003C158.521 37.3546 158.595 37.3852 158.672 37.3852C158.71 37.3859 158.748 37.3789 158.784 37.3645C158.819 37.3502 158.852 37.3289 158.879 37.3018C158.906 37.2747 158.927 37.2425 158.941 37.207C158.956 37.1715 158.963 37.1335 158.962 37.0952C158.962 37.0183 158.931 36.9445 158.877 36.8901C158.823 36.8357 158.749 36.8052 158.672 36.8052ZM163.984 36.8052C163.907 36.8065 163.834 36.8375 163.78 36.8916C163.726 36.9457 163.695 37.0187 163.694 37.0952C163.694 37.1721 163.724 37.2459 163.779 37.3003C163.833 37.3546 163.907 37.3852 163.984 37.3852C164.022 37.3859 164.06 37.3789 164.096 37.3645C164.131 37.3502 164.163 37.3289 164.19 37.3018C164.217 37.2747 164.239 37.2425 164.253 37.207C164.267 37.1715 164.274 37.1335 164.274 37.0952C164.274 37.0183 164.243 36.9445 164.189 36.8901C164.134 36.8357 164.061 36.8052 163.984 36.8052ZM169.295 36.8052C169.219 36.8065 169.146 36.8375 169.092 36.8916C169.038 36.9457 169.007 37.0187 169.005 37.0952C169.005 37.1721 169.036 37.2459 169.09 37.3003C169.145 37.3546 169.218 37.3852 169.295 37.3852C169.334 37.3859 169.372 37.3789 169.407 37.3645C169.443 37.3502 169.475 37.3289 169.502 37.3018C169.529 37.2747 169.55 37.2425 169.565 37.207C169.579 37.1715 169.586 37.1335 169.585 37.0952C169.585 37.0183 169.555 36.9445 169.5 36.8901C169.446 36.8357 169.372 36.8052 169.295 36.8052ZM174.607 36.8052C174.531 36.8065 174.458 36.8375 174.403 36.8916C174.349 36.9457 174.318 37.0187 174.317 37.0952C174.317 37.1721 174.348 37.2459 174.402 37.3003C174.456 37.3546 174.53 37.3852 174.607 37.3852C174.645 37.3859 174.683 37.3789 174.719 37.3645C174.754 37.3502 174.787 37.3289 174.814 37.3018C174.841 37.2747 174.862 37.2425 174.876 37.207C174.891 37.1715 174.898 37.1335 174.897 37.0952C174.897 37.0183 174.867 36.9445 174.812 36.8901C174.758 36.8357 174.684 36.8052 174.607 36.8052ZM179.919 36.8052C179.842 36.8065 179.769 36.8375 179.715 36.8916C179.661 36.9457 179.63 37.0187 179.629 37.0952C179.629 37.1721 179.659 37.2459 179.714 37.3003C179.768 37.3546 179.842 37.3852 179.919 37.3852C179.957 37.3859 179.995 37.3789 180.031 37.3645C180.066 37.3502 180.098 37.3289 180.125 37.3018C180.152 37.2747 180.174 37.2425 180.188 37.207C180.202 37.1715 180.21 37.1335 180.209 37.0952C180.209 37.0183 180.178 36.9445 180.124 36.8901C180.069 36.8357 179.996 36.8052 179.919 36.8052ZM145.393 48.2579C145.316 48.2579 145.242 48.2884 145.188 48.3428C145.133 48.3972 145.103 48.471 145.103 48.5479C145.104 48.6244 145.135 48.6974 145.189 48.7515C145.243 48.8056 145.316 48.8366 145.393 48.8379C145.47 48.8379 145.543 48.8074 145.598 48.753C145.652 48.6986 145.683 48.6248 145.683 48.5479C145.683 48.5096 145.676 48.4716 145.662 48.4361C145.648 48.4006 145.626 48.3684 145.599 48.3413C145.572 48.3142 145.54 48.2929 145.505 48.2786C145.469 48.2642 145.431 48.2572 145.393 48.2579ZM150.704 48.2579C150.628 48.2579 150.554 48.2884 150.499 48.3428C150.445 48.3972 150.414 48.471 150.414 48.5479C150.416 48.6244 150.447 48.6974 150.501 48.7515C150.555 48.8056 150.628 48.8366 150.704 48.8379C150.781 48.8379 150.855 48.8074 150.91 48.753C150.964 48.6986 150.994 48.6248 150.994 48.5479C150.995 48.5096 150.988 48.4716 150.974 48.4361C150.959 48.4006 150.938 48.3684 150.911 48.3413C150.884 48.3142 150.852 48.2929 150.816 48.2786C150.781 48.2642 150.743 48.2572 150.704 48.2579ZM156.016 48.2579C155.939 48.2579 155.865 48.2884 155.811 48.3428C155.757 48.3972 155.726 48.471 155.726 48.5479C155.727 48.6244 155.758 48.6974 155.813 48.7515C155.867 48.8056 155.94 48.8366 156.016 48.8379C156.093 48.8379 156.167 48.8074 156.221 48.753C156.276 48.6986 156.306 48.6248 156.306 48.5479C156.307 48.5096 156.3 48.4716 156.286 48.4361C156.271 48.4006 156.25 48.3684 156.223 48.3413C156.196 48.3142 156.163 48.2929 156.128 48.2786C156.092 48.2642 156.054 48.2572 156.016 48.2579ZM161.333 48.2579C161.256 48.2579 161.182 48.2884 161.128 48.3428C161.074 48.3972 161.043 48.471 161.043 48.5479C161.044 48.6244 161.075 48.6974 161.129 48.7515C161.183 48.8056 161.256 48.8366 161.333 48.8379C161.41 48.8379 161.484 48.8074 161.538 48.753C161.592 48.6986 161.623 48.6248 161.623 48.5479C161.624 48.5096 161.617 48.4716 161.602 48.4361C161.588 48.4006 161.567 48.3684 161.54 48.3413C161.512 48.3142 161.48 48.2929 161.445 48.2786C161.409 48.2642 161.371 48.2572 161.333 48.2579ZM166.645 48.2579C166.568 48.2579 166.494 48.2884 166.44 48.3428C166.385 48.3972 166.355 48.471 166.355 48.5479C166.356 48.6244 166.387 48.6974 166.441 48.7515C166.495 48.8056 166.568 48.8366 166.645 48.8379C166.722 48.8379 166.795 48.8074 166.85 48.753C166.904 48.6986 166.935 48.6248 166.935 48.5479C166.935 48.5092 166.928 48.4707 166.914 48.4349C166.899 48.399 166.877 48.3666 166.85 48.3394C166.822 48.3123 166.789 48.291 166.753 48.277C166.717 48.263 166.678 48.2565 166.64 48.2579H166.645ZM171.956 48.2579C171.879 48.2579 171.806 48.2884 171.751 48.3428C171.697 48.3972 171.666 48.471 171.666 48.5479C171.668 48.6244 171.699 48.6974 171.753 48.7515C171.807 48.8056 171.88 48.8366 171.956 48.8379C172.033 48.8379 172.107 48.8074 172.161 48.753C172.216 48.6986 172.246 48.6248 172.246 48.5479C172.247 48.5092 172.24 48.4707 172.225 48.4349C172.211 48.399 172.189 48.3666 172.161 48.3394C172.134 48.3123 172.101 48.291 172.065 48.277C172.029 48.263 171.99 48.2565 171.951 48.2579H171.956ZM177.268 48.2579C177.191 48.2579 177.117 48.2884 177.063 48.3428C177.009 48.3972 176.978 48.471 176.978 48.5479C176.979 48.6244 177.01 48.6974 177.064 48.7515C177.119 48.8056 177.192 48.8366 177.268 48.8379C177.345 48.8379 177.419 48.8074 177.473 48.753C177.528 48.6986 177.558 48.6248 177.558 48.5479C177.559 48.5092 177.552 48.4707 177.537 48.4349C177.522 48.399 177.501 48.3666 177.473 48.3394C177.445 48.3123 177.412 48.291 177.376 48.277C177.34 48.263 177.302 48.2565 177.263 48.2579H177.268ZM182.58 48.2579C182.503 48.2579 182.429 48.2884 182.375 48.3428C182.32 48.3972 182.29 48.471 182.29 48.5479C182.291 48.6244 182.322 48.6974 182.376 48.7515C182.43 48.8056 182.503 48.8366 182.58 48.8379C182.657 48.8379 182.73 48.8074 182.785 48.753C182.839 48.6986 182.87 48.6248 182.87 48.5479C182.87 48.5092 182.863 48.4707 182.849 48.4349C182.834 48.399 182.812 48.3666 182.785 48.3394C182.757 48.3123 182.724 48.291 182.688 48.277C182.652 48.263 182.613 48.2565 182.575 48.2579H182.58ZM148.054 44.5387C147.977 44.5387 147.903 44.5692 147.849 44.6236C147.794 44.678 147.764 44.7518 147.764 44.8287C147.765 44.9052 147.796 44.9782 147.85 45.0323C147.904 45.0864 147.977 45.1174 148.054 45.1187C148.131 45.1187 148.204 45.0882 148.259 45.0338C148.313 44.9794 148.344 44.9056 148.344 44.8287C148.345 44.7896 148.338 44.7506 148.324 44.7141C148.31 44.6777 148.288 44.6446 148.26 44.6169C148.233 44.5892 148.2 44.5675 148.163 44.5532C148.127 44.5388 148.088 44.5322 148.049 44.5336L148.054 44.5387ZM153.365 44.5387C153.289 44.5387 153.215 44.5692 153.16 44.6236C153.106 44.678 153.075 44.7518 153.075 44.8287C153.077 44.9052 153.108 44.9782 153.162 45.0323C153.216 45.0864 153.289 45.1174 153.365 45.1187C153.442 45.1187 153.516 45.0882 153.57 45.0338C153.625 44.9794 153.655 44.9056 153.655 44.8287C153.657 44.7896 153.65 44.7506 153.636 44.7141C153.622 44.6777 153.6 44.6446 153.572 44.6169C153.544 44.5892 153.511 44.5675 153.475 44.5532C153.438 44.5388 153.399 44.5322 153.36 44.5336L153.365 44.5387ZM158.677 44.5387C158.6 44.5387 158.526 44.5692 158.472 44.6236C158.418 44.678 158.387 44.7518 158.387 44.8287C158.388 44.9052 158.419 44.9782 158.473 45.0323C158.528 45.0864 158.601 45.1174 158.677 45.1187C158.754 45.1187 158.828 45.0882 158.882 45.0338C158.937 44.9794 158.967 44.9056 158.967 44.8287C158.969 44.7896 158.962 44.7506 158.948 44.7141C158.933 44.6777 158.912 44.6446 158.884 44.6169C158.856 44.5892 158.823 44.5675 158.787 44.5532C158.75 44.5388 158.711 44.5322 158.672 44.5336L158.677 44.5387ZM163.989 44.5387C163.912 44.5387 163.838 44.5692 163.784 44.6236C163.729 44.678 163.699 44.7518 163.699 44.8287C163.7 44.9052 163.731 44.9782 163.785 45.0323C163.839 45.0864 163.912 45.1174 163.989 45.1187C164.066 45.1187 164.139 45.0882 164.194 45.0338C164.248 44.9794 164.279 44.9056 164.279 44.8287C164.28 44.7896 164.274 44.7506 164.259 44.7141C164.245 44.6777 164.223 44.6446 164.196 44.6169C164.168 44.5892 164.135 44.5675 164.098 44.5532C164.062 44.5388 164.023 44.5322 163.984 44.5336L163.989 44.5387ZM169.301 44.5387C169.224 44.5387 169.15 44.5692 169.095 44.6236C169.041 44.678 169.01 44.7518 169.01 44.8287C169.012 44.9052 169.043 44.9782 169.097 45.0323C169.151 45.0864 169.224 45.1174 169.301 45.1187C169.377 45.1187 169.451 45.0882 169.506 45.0338C169.56 44.9794 169.591 44.9056 169.591 44.8287C169.592 44.7896 169.585 44.7506 169.571 44.7141C169.557 44.6777 169.535 44.6446 169.507 44.6169C169.48 44.5892 169.446 44.5675 169.41 44.5532C169.374 44.5388 169.335 44.5322 169.295 44.5336L169.301 44.5387ZM174.612 44.5387C174.535 44.5387 174.462 44.5692 174.407 44.6236C174.353 44.678 174.322 44.7518 174.322 44.8287C174.324 44.9052 174.354 44.9782 174.409 45.0323C174.463 45.0864 174.536 45.1174 174.612 45.1187C174.689 45.1187 174.763 45.0882 174.817 45.0338C174.872 44.9794 174.902 44.9056 174.902 44.8287C174.904 44.7896 174.897 44.7506 174.883 44.7141C174.868 44.6777 174.847 44.6446 174.819 44.6169C174.791 44.5892 174.758 44.5675 174.722 44.5532C174.685 44.5388 174.646 44.5322 174.607 44.5336L174.612 44.5387ZM179.924 44.5387C179.847 44.5387 179.773 44.5692 179.719 44.6236C179.664 44.678 179.634 44.7518 179.634 44.8287C179.635 44.9052 179.666 44.9782 179.72 45.0323C179.774 45.0864 179.847 45.1174 179.924 45.1187C180.001 45.1187 180.075 45.0882 180.129 45.0338C180.183 44.9794 180.214 44.9056 180.214 44.8287C180.215 44.7896 180.209 44.7506 180.194 44.7141C180.18 44.6777 180.158 44.6446 180.131 44.6169C180.103 44.5892 180.07 44.5675 180.033 44.5532C179.997 44.5388 179.958 44.5322 179.919 44.5336L179.924 44.5387Z" fill="white"/>
<path d="M82.6241 159.381L43.7734 209.522H45.9663L90.8308 159.381H82.6241Z" fill="#C7C7C7"/>
<path d="M86.2723 159.381L67.0759 209.522H69.2637L92.7949 159.381H86.2723Z" fill="#C7C7C7"/>
<path d="M95.6846 159.381L114.881 209.522H112.693L89.162 159.381H95.6846Z" fill="#C7C7C7"/>
<path d="M99.0375 159.381L137.883 209.522H135.695L90.8308 159.381H99.0375Z" fill="#C7C7C7"/>
<path d="M163.877 149.989V136.959L110.526 134.771L82.3495 63.4043H17.7849L39.1436 146.244L95.2064 165.314H98.6255L163.877 149.989Z" fill="#455A64"/>
<path d="M17.7849 63.4043H25.1724L47.4877 138.587L97.2568 153.383L163.877 136.959V149.989L98.6255 165.314H95.2064L39.1436 146.244L17.7849 63.4043Z" fill="#37474F"/>
<path d="M194.984 214.961C193.335 215.408 145.902 212.32 144.212 211.079C144.009 210.951 144.569 195.22 144.569 195.22C144.645 195.001 137.552 173.932 137.552 173.932L166.665 171.266L175.223 198.079C175.223 198.079 181.466 201.132 186.884 204.144C190.227 205.981 193.122 207.655 193.783 208.24C195.483 209.802 196.632 214.533 194.984 214.961Z" fill="#EB9481"/>
<path d="M195.167 215.139C193.473 215.581 145.983 212.371 144.248 211.104C143.592 210.626 143.373 203.259 144.574 195.205L175.182 197.331C175.182 197.331 192.226 206.662 193.976 208.255C195.727 209.847 196.866 214.711 195.167 215.139Z" fill="#395BA9"/>
<path opacity="0.1" d="M144.253 211.119C144.884 211.577 151.61 212.3 159.98 213.012L145.322 195.296L144.574 195.25C143.373 203.274 143.592 210.641 144.253 211.119Z" fill="black"/>
<path d="M194.618 213.21C186.67 212.478 154.546 210.265 146.634 210.158C146.568 210.158 146.568 210.204 146.634 210.209C154.495 211.109 186.635 213.058 194.613 213.358C194.775 213.348 194.786 213.226 194.618 213.21Z" fill="#263238"/>
<path d="M191.036 206.337C190.153 206.252 189.263 206.353 188.421 206.631C187.579 206.91 186.804 207.361 186.146 207.955C184.951 209.015 184.21 210.494 184.076 212.086C184.076 212.132 184.162 212.142 184.172 212.086C184.549 210.528 185.422 209.134 186.658 208.114C187.895 207.094 189.429 206.503 191.031 206.429C191.038 206.433 191.047 206.435 191.055 206.435C191.064 206.435 191.072 206.433 191.08 206.428C191.087 206.424 191.094 206.418 191.098 206.411C191.103 206.404 191.106 206.395 191.106 206.387C191.107 206.378 191.105 206.37 191.101 206.362C191.097 206.354 191.092 206.347 191.085 206.342C191.078 206.338 191.07 206.334 191.061 206.333C191.052 206.332 191.044 206.334 191.036 206.337Z" fill="#263238"/>
<path d="M177.614 198.293C174.429 198.034 170.659 198.909 168.502 201.381C168.42 201.478 168.558 201.595 168.654 201.554C171.538 200.281 174.551 199.321 177.64 198.69C177.684 198.677 177.723 198.65 177.75 198.612C177.777 198.574 177.79 198.528 177.787 198.481C177.784 198.435 177.765 198.391 177.734 198.357C177.702 198.323 177.66 198.3 177.614 198.293Z" fill="#263238"/>
<path d="M180.021 199.417C176.841 199.158 173.071 200.033 170.913 202.506C170.827 202.602 170.964 202.719 171.066 202.679C173.95 201.405 176.962 200.444 180.051 199.814C180.096 199.801 180.135 199.773 180.161 199.735C180.187 199.696 180.2 199.65 180.196 199.603C180.193 199.557 180.173 199.513 180.141 199.479C180.109 199.445 180.067 199.424 180.021 199.417Z" fill="#263238"/>
<path d="M182.417 200.547C179.232 200.287 175.462 201.157 173.31 203.63C173.223 203.727 173.361 203.844 173.457 203.803C176.343 202.529 179.357 201.569 182.448 200.939C182.494 200.928 182.536 200.901 182.564 200.863C182.593 200.825 182.606 200.777 182.603 200.73C182.599 200.682 182.578 200.637 182.544 200.604C182.51 200.57 182.465 200.55 182.417 200.547Z" fill="#263238"/>
<path d="M184.813 201.671C181.628 201.412 177.858 202.287 175.701 204.76C175.62 204.851 175.757 204.968 175.854 204.927C178.738 203.656 181.75 202.697 184.839 202.068C184.883 202.055 184.922 202.028 184.949 201.99C184.976 201.952 184.989 201.906 184.986 201.859C184.983 201.813 184.964 201.769 184.933 201.735C184.901 201.701 184.859 201.678 184.813 201.671Z" fill="#263238"/>
<path d="M149.173 202.72C145.612 202.491 145.23 208.046 148.812 208.275C152.394 208.504 152.755 202.954 149.173 202.72Z" fill="#263238"/>
<path d="M181.644 190.025C180.117 188.58 178.001 189.75 176.917 191.068C175.091 193.371 173.901 196.114 173.467 199.021C173.466 199.034 173.467 199.047 173.471 199.059C173.476 199.072 173.483 199.083 173.492 199.093C173.501 199.102 173.513 199.109 173.525 199.113C173.538 199.117 173.551 199.119 173.564 199.117C173.573 199.178 173.595 199.236 173.63 199.286C173.665 199.337 173.712 199.378 173.766 199.407C173.82 199.437 173.88 199.453 173.941 199.454C174.002 199.456 174.063 199.443 174.119 199.417C176.49 197.998 179.207 196.782 181.074 194.681C182.193 193.449 183.083 191.394 181.644 190.025ZM177.278 196.533C176.128 197.255 174.948 197.922 173.824 198.69C174.451 197.128 175.157 195.6 175.94 194.111C176.329 193.392 176.766 192.7 177.248 192.04C178.011 191.022 181.318 188.58 181.399 192.071C181.445 193.973 178.632 195.668 177.278 196.533Z" fill="#263238"/>
<path d="M165.474 199.667C168.217 200.282 171.132 199.667 173.89 199.448C173.95 199.437 174.007 199.413 174.056 199.376C174.105 199.339 174.145 199.291 174.172 199.236C174.199 199.181 174.212 199.12 174.211 199.059C174.209 198.997 174.194 198.937 174.164 198.883C174.175 198.875 174.183 198.865 174.189 198.853C174.195 198.841 174.198 198.828 174.198 198.814C174.198 198.801 174.195 198.788 174.189 198.776C174.183 198.764 174.175 198.754 174.164 198.746C172.114 196.641 169.547 195.111 166.721 194.309C165.067 193.871 162.651 194.162 162.269 196.222C161.923 198.176 163.877 199.31 165.474 199.667ZM163.673 197.723C161.699 194.843 165.815 194.899 167.026 195.271C167.802 195.525 168.56 195.831 169.295 196.186C170.822 196.904 172.246 197.825 173.701 198.685C172.338 198.72 170.995 198.868 169.631 198.954C168.018 199.056 164.757 199.31 163.673 197.723Z" fill="#263238"/>
<path d="M174.831 195.149L142.803 193.938C142.803 193.938 128.908 146.112 125.611 143.919C121.633 141.273 80.065 145.156 67.4269 134.761C60.1818 128.798 58.8844 116.994 58.8844 116.994L81.9068 106.259C81.9068 106.259 86.2315 109.932 87.5849 110.456C92.6218 112.415 135.187 108.187 147.306 117.391C160.473 127.394 174.831 195.149 174.831 195.149Z" fill="#263238"/>
<path d="M174.831 195.149L142.803 193.938C142.803 193.938 128.908 146.112 125.611 143.919C121.633 141.273 80.065 145.156 67.4269 134.761C60.1818 128.798 58.8844 116.994 58.8844 116.994L81.9068 106.259C81.9068 106.259 86.2315 109.932 87.5849 110.456C92.6218 112.415 135.187 108.187 147.306 117.391C160.473 127.394 174.831 195.149 174.831 195.149Z" fill="#263238"/>
<path d="M171.911 189.125C166.487 188.819 168.049 188.835 162.62 188.585C159.964 188.463 146.614 187.822 144.116 188.122C144.104 188.126 144.094 188.133 144.087 188.143C144.08 188.152 144.076 188.164 144.076 188.176C144.076 188.188 144.08 188.199 144.087 188.209C144.094 188.219 144.104 188.226 144.116 188.229C146.583 188.708 159.944 189.064 162.605 189.135C168.034 189.282 166.477 189.186 171.911 189.277C171.931 189.277 171.95 189.269 171.964 189.255C171.979 189.241 171.987 189.221 171.987 189.201C171.987 189.181 171.979 189.161 171.964 189.147C171.95 189.133 171.931 189.125 171.911 189.125Z" fill="#37474F"/>
<path d="M64.6235 118.689C67.0606 124.448 70.5102 130.335 76.0457 133.555C77.1686 134.122 78.3685 134.522 79.6072 134.741C92.1945 136.944 105.046 136.776 117.822 137.554C121.022 137.763 124.253 137.9 127.443 138.409C128.071 138.484 128.68 138.674 129.239 138.969C129.816 139.507 130.291 140.145 130.643 140.851C133.33 145.995 135.187 151.495 137.12 156.944C140.458 166.631 143.539 176.403 146.365 186.26C143.124 176.542 139.888 166.825 136.387 157.204C134.596 152.416 132.872 147.582 130.704 142.988C130.129 141.884 129.57 140.571 128.669 139.737C127.652 139.294 126.486 139.259 125.393 139.106C122.849 138.847 120.305 138.709 117.761 138.572C108.72 138.063 95.9646 137.626 87.0812 136.593C83.2908 136.043 79.2561 135.819 75.7761 134.049C70.2252 130.696 66.8571 124.585 64.6337 118.684L64.6235 118.689Z" fill="#37474F"/>
<path d="M128.359 112.034L90.1034 141.497C80.8333 140.51 72.1484 138.613 67.4523 134.751C60.2073 128.788 58.9048 116.984 58.9048 116.984L81.9069 106.259C81.9069 106.259 86.2264 109.932 87.5798 110.456C90.9937 111.795 111.635 110.278 128.359 112.034Z" fill="#37474F"/>
<path d="M74.1326 70.334C81.8101 82.8856 93.7309 97.0196 97.3738 98.7393C101.983 100.917 125.311 98.4493 126.512 98.2051C128.476 97.8032 126.364 76.9787 124.594 77.5689C119.918 79.1257 104.965 82.1225 103.611 81.4254C102.258 80.7284 92.1384 74.1193 81.454 66.457C74.0563 61.1555 69.3704 62.5445 74.1326 70.334Z" fill="#EB9481"/>
<path d="M122.665 76.7499L123.098 101.624C123.098 101.624 102.034 102.576 97.2517 99.9606C92.4692 97.3454 79.4443 79.9552 74.3565 71.1075C69.2687 62.2598 74.1479 60.8911 80.5535 65.3939C86.9591 69.8966 102.787 80.7184 103.505 80.8252C104.222 80.9321 122.665 76.7499 122.665 76.7499Z" fill="#395BA9"/>
<path d="M117.883 92.227C117.857 89.2862 117.852 86.3455 117.715 83.4047C117.639 81.7359 117.567 80.062 117.476 78.3932C117.476 78.3321 117.364 78.327 117.359 78.3932C117.272 81.3441 117.191 84.3052 117.237 87.2613C117.282 90.2173 117.303 93.1479 117.389 96.0887C117.435 97.7575 117.537 99.4212 117.684 101.09C117.684 101.098 117.688 101.106 117.693 101.112C117.699 101.117 117.707 101.121 117.715 101.121C117.723 101.121 117.731 101.117 117.737 101.112C117.742 101.106 117.745 101.098 117.745 101.09C117.934 98.1187 117.913 95.1881 117.883 92.227Z" fill="#263238"/>
<path opacity="0.1" d="M120.03 101.705C114.011 101.853 100.874 101.934 97.2263 99.94C92.4437 97.3249 79.4189 79.9346 74.3311 71.092C71.8889 66.8437 71.7414 64.315 72.9624 63.3381C73.1341 63.3629 73.3041 63.3986 73.4712 63.445C83.6723 71.0767 105.774 89.978 120.03 101.705Z" fill="black"/>
<path d="M134.047 74.5164L119.648 64.0151L107.173 92.8835L121.592 101.752L134.047 74.5164Z" fill="#455A64"/>
<path opacity="0.1" d="M134.047 74.5164L119.648 64.0151L107.173 92.8835L121.592 101.752L134.047 74.5164Z" fill="black"/>
<path d="M132.17 74.3738L119.923 65.582L119.343 66.4775L109.437 89.6933C110.477 90.7779 111.431 91.9414 112.291 93.1733C113.375 94.8218 116.489 100.113 120.381 100.561L132.17 74.3738Z" fill="white"/>
<path d="M131.518 75.8696C131.518 75.8696 128.221 74.2313 126.603 72.5269C124.985 70.8225 123.434 68.9654 122.096 68.1005C120.757 67.2356 119.409 66.3757 119.409 66.3757L119.918 65.582L132.164 74.3738L131.518 75.8696Z" fill="#EBEBEB"/>
<path d="M99.9432 101.894L123.017 102.489L134.047 74.5162L110.037 72.1401L99.9432 101.894Z" fill="#455A64"/>
<path d="M133.147 78.0728C134.088 80.7184 136.789 84.1781 136.825 86.2489C136.852 86.7631 136.713 87.2724 136.428 87.7013C136.143 88.1301 135.727 88.4558 135.243 88.63C135.243 88.63 137.196 89.8663 136.917 91.7692C136.774 92.7461 135.09 93.3769 135.09 93.3769C135.09 93.3769 136.616 94.4352 136.26 96.1091C135.975 97.4421 134.327 97.8746 134.327 97.8746C134.327 97.8746 135.314 99.5739 134.591 100.841C133.131 103.41 121.49 102.225 120.127 97.7525C119.491 95.6665 122.32 96.1091 122.32 96.1091C122.32 96.1091 118.407 94.4912 118.59 92.0846C118.773 89.6781 122.416 90.4769 122.416 90.4769C122.416 90.4769 118.636 88.8742 119.079 86.4066C119.537 83.8322 123.042 85.2517 123.042 85.2517C123.042 85.2517 120.63 83.2165 121.404 81.4155C122.681 78.4136 127.184 82.8095 129.804 82.4635L131.646 78.3933L133.147 78.0728Z" fill="#EB9481"/>
<path d="M135.105 81.9802C134.433 79.3956 137.832 76.6329 137.542 74.0687C137.155 70.6038 132.999 73.5599 131.645 78.378L131.259 82.3211L135.105 81.9802Z" fill="#EB9481"/>
<path d="M134.077 97.9815C134.086 97.9815 134.093 97.9847 134.099 97.9904C134.105 97.9961 134.108 98.0039 134.108 98.012C134.108 98.0201 134.105 98.0279 134.099 98.0336C134.093 98.0393 134.086 98.0425 134.077 98.0425C129.997 98.6167 125.839 97.9334 122.157 96.0837C122.04 96.0227 122.091 95.809 122.233 95.8548C126.057 97.1334 130.047 97.8498 134.077 97.9815Z" fill="#263238"/>
<path d="M135.141 93.4074C135.187 93.4074 135.187 93.4837 135.141 93.4888C131.096 94.0281 126.069 93.2039 122.269 90.5684C122.141 90.4768 122.116 90.2631 122.269 90.3598C124.924 91.9217 131.361 93.3463 135.141 93.4074Z" fill="#263238"/>
<path d="M122.823 84.9617C126.568 87.3529 130.699 88.2993 135.08 88.6605C135.136 88.6605 135.125 88.747 135.08 88.7572C132.887 89.1642 130.119 88.6402 127.997 88.05C126.019 87.5399 124.209 86.5207 122.747 85.0939C122.665 85.038 122.747 84.8904 122.823 84.9617Z" fill="#263238"/>
<path d="M49.5941 117.402C49.706 117.519 92.8407 108.071 93.2477 107.567C93.8074 106.86 86.0993 74.4196 77.9842 64.7426C75.9491 62.3207 69.4723 62.4887 66.5722 64.9308C52.1889 77.0399 49.1871 116.984 49.5941 117.402Z" fill="#395BA9"/>
<path d="M63.0665 68.0393C51.1305 80.3468 38.2074 104.733 41.0464 109.932C44.2415 115.702 60.8889 98.4543 60.7872 97.4571C60.7312 96.7041 64.5165 82.448 68.8972 71.0716C73.2778 59.6952 66.0175 64.9968 63.0665 68.0393Z" fill="#F7A9A0"/>
<path d="M60.8994 97.4725C61.4082 95.8037 67.2693 76.5666 69.5131 70.044C71.5228 64.1879 70.4187 61.8017 65.6005 65.465C56.7223 72.2013 42.8528 92.0489 39.6526 102.632C36.5999 112.833 43.3565 112.919 50.2302 108.172C55.8624 104.28 60.8994 97.4725 60.8994 97.4725Z" fill="#395BA9"/>
<path d="M59.8511 100.362C62.0185 92.4016 64.5217 84.5392 67.3607 76.7751C65.2035 84.7427 62.7003 92.6051 59.8511 100.362Z" fill="#263238"/>
<path d="M65.9921 81.3645C66.402 80.3569 66.9426 79.4075 67.5998 78.5408C67.2541 79.5783 66.7078 80.5377 65.9921 81.3645Z" fill="#263238"/>
<path d="M67.5542 65.1494C67.9307 65.6582 68.3225 66.167 68.7193 66.6402C69.1162 67.1133 69.5283 67.5967 69.9455 68.0647C70.7799 68.9958 71.6397 69.9015 72.5352 70.7664C73.4306 71.6313 74.3465 72.4657 75.303 73.2492C76.2595 74.0328 77.2465 74.7756 78.2539 75.4879L77.913 75.5642C77.9468 75.5074 77.9758 75.4478 77.9995 75.3861C78.03 75.32 78.0555 75.2437 78.0809 75.1724C78.1318 75.0198 78.1827 74.8723 78.2285 74.7145C78.3201 74.4093 78.3964 74.0938 78.4727 73.7733C78.6202 73.1424 78.7474 72.4962 78.8645 71.8501C78.9815 71.2039 79.0832 70.5578 79.1952 69.9065L79.4953 67.9528C79.4953 68.6091 79.4394 69.2706 79.3936 69.932C79.3478 70.5934 79.2817 71.2497 79.2053 71.9061C79.129 72.5624 79.0273 73.2187 78.9001 73.875C78.8339 74.2007 78.7627 74.5263 78.6762 74.8519C78.6355 75.0147 78.5846 75.1775 78.5337 75.3607C78.5094 75.4436 78.4806 75.5252 78.4472 75.6049C78.4325 75.6465 78.4155 75.6873 78.3964 75.727C78.3778 75.7769 78.354 75.8247 78.3251 75.8695L78.1979 76.0984L77.9843 75.9509C76.9667 75.2335 75.9491 74.511 74.9875 73.6919C74.4787 73.295 74.0412 72.8727 73.5731 72.4505C73.3391 72.2419 73.1203 72.0129 72.8913 71.7992C72.6624 71.5855 72.4436 71.3566 72.2248 71.1327C71.3427 70.2292 70.5088 69.2799 69.7267 68.2886C68.9313 67.2933 68.2054 66.2445 67.5542 65.1494Z" fill="#263238"/>
<path d="M75.8879 71.7485C73.9189 71.6213 70.2455 67.5053 68.9938 64.2389C68.9124 64.015 69.5281 61.8629 70.159 59.2121C70.5304 57.6043 70.912 55.7982 71.1358 54.1243L81.2606 58.0928C80.3787 60.0989 79.7464 62.2058 79.3781 64.3661C79.3557 64.5962 79.3557 64.8279 79.3781 65.058C79.3756 65.097 79.3756 65.1361 79.3781 65.175C79.3883 66.508 78.9762 71.9469 75.8879 71.7485Z" fill="#EB9481"/>
<path d="M79.3528 65.0477C79.3556 65.0866 79.3556 65.1257 79.3528 65.1647C78.988 65.1648 78.6237 65.1341 78.264 65.0731C72.3316 64.1319 71.8635 56.6782 71.8635 54.3887L81.2607 58.0672C80.3784 60.074 79.7428 62.1805 79.3681 64.3405C79.3446 64.5755 79.3395 64.8119 79.3528 65.0477Z" fill="#263238"/>
<path d="M73.1966 41.0739C71.0749 44.3657 70.0319 55.3198 71.9348 58.3725C74.6975 62.7938 80.6909 64.8391 84.8172 61.181C88.8162 57.6195 89.905 43.343 87.6613 40.4175C84.3236 36.1081 76.3307 36.2099 73.1966 41.0739Z" fill="#EB9481"/>
<path d="M79.9683 49.0059C80.2961 48.9797 80.6222 48.9355 80.9452 48.8736C81.2935 48.8733 81.6324 48.7609 81.9119 48.5531C81.9859 48.4697 82.0305 48.3643 82.0388 48.253C82.0471 48.1418 82.0186 48.0309 81.9577 47.9375C81.8076 47.7708 81.6159 47.6471 81.4021 47.5791C81.1884 47.5111 80.9604 47.5014 80.7417 47.5508C80.2857 47.5852 79.8583 47.7863 79.5409 48.1156C79.4727 48.195 79.4291 48.2926 79.4154 48.3965C79.4017 48.5003 79.4185 48.6059 79.4639 48.7003C79.5092 48.7947 79.581 48.8739 79.6706 48.9282C79.7602 48.9824 79.8636 49.0095 79.9683 49.0059Z" fill="#A6A6A6"/>
<path d="M87.4526 50.0744C87.1429 49.9682 86.839 49.8459 86.5419 49.7081C86.2016 49.6271 85.8986 49.4335 85.6821 49.1586C85.6314 49.0599 85.6144 48.9472 85.6337 48.8379C85.653 48.7286 85.7075 48.6286 85.7889 48.5532C85.9737 48.4276 86.1889 48.3543 86.4119 48.3409C86.6348 48.3274 86.8573 48.3744 87.0558 48.4768C87.4875 48.6206 87.8502 48.9198 88.0734 49.3163C88.1185 49.409 88.1362 49.5127 88.1242 49.6151C88.1122 49.7176 88.0711 49.8144 88.0058 49.8942C87.9405 49.9739 87.8537 50.0333 87.7556 50.0653C87.6576 50.0972 87.5524 50.1004 87.4526 50.0744Z" fill="#A6A6A6"/>
<path d="M79.4646 57.6705C79.6172 57.8638 79.7648 58.1233 80.0293 58.1793C80.3034 58.2104 80.5809 58.1826 80.8434 58.0979C80.8466 58.1002 80.8491 58.1033 80.8509 58.1069C80.8527 58.1104 80.8536 58.1143 80.8536 58.1182C80.8536 58.1222 80.8527 58.1261 80.8509 58.1296C80.8491 58.1331 80.8466 58.1362 80.8434 58.1386C80.7189 58.2676 80.5625 58.3614 80.3901 58.4106C80.2176 58.4597 80.0353 58.4624 79.8614 58.4184C79.7142 58.3626 79.587 58.2639 79.4964 58.1351C79.4057 58.0064 79.3556 57.8534 79.3527 57.6959C79.3832 57.6502 79.4188 57.6451 79.4646 57.6705Z" fill="#263238"/>
<path d="M80.5179 55.5692C80.6679 55.8832 80.8808 56.163 81.1434 56.3914C81.4059 56.6198 81.7125 56.7919 82.0442 56.8971C82.3343 56.989 82.6356 57.0404 82.9397 57.0498C82.9988 57.0573 83.0586 57.0573 83.1178 57.0498H83.2806C83.3209 57.0471 83.3593 57.0313 83.3896 57.0046C83.42 56.9779 83.4407 56.9419 83.4485 56.9022C83.4512 56.8768 83.4512 56.8513 83.4485 56.8259V56.7598C83.535 56.2001 83.5909 55.3301 83.5909 55.3301C83.7843 55.4624 84.7764 56.0678 84.8018 55.7727C84.9646 53.3051 85.1478 50.5628 84.8018 48.0748C84.7977 48.0598 84.7887 48.0465 84.7763 48.037C84.7639 48.0276 84.7487 48.0225 84.7331 48.0225C84.7175 48.0225 84.7024 48.0276 84.69 48.037C84.6775 48.0465 84.6686 48.0598 84.6645 48.0748C84.4151 50.4407 84.578 52.8319 84.3643 55.1978C84.0091 54.9775 83.6257 54.8064 83.2246 54.689C83.1432 54.689 83.1483 56.368 83.0923 56.6173V56.6478C82.1256 56.6478 81.4439 56.2662 80.6044 55.5132C80.5433 55.4624 80.4823 55.5031 80.5179 55.5692Z" fill="#263238"/>
<path d="M81.4539 51.0665C81.4539 51.036 81.3929 51.0665 81.3878 51.1225C81.2962 51.85 81.0673 52.6743 80.3702 52.8066C80.3702 52.8066 80.3702 52.8473 80.3702 52.8523C81.2097 52.8625 81.5048 51.7737 81.4539 51.0665Z" fill="#263238"/>
<path d="M80.9452 50.2016C79.7903 49.9269 79.3273 52.2367 80.3958 52.5115C81.4642 52.7862 81.9119 50.4306 80.9452 50.2016Z" fill="#263238"/>
<path d="M85.728 51.6209C85.728 51.5954 85.7788 51.6667 85.7737 51.6972C85.6008 52.4146 85.5244 53.2642 86.1248 53.6357C86.1248 53.6357 86.1248 53.6865 86.1248 53.6763C85.3413 53.4016 85.4532 52.2721 85.728 51.6209Z" fill="#263238"/>
<path d="M86.5418 51.0052C87.7171 51.1579 87.3253 53.4983 86.2365 53.3609C85.1477 53.2235 85.5242 50.878 86.5418 51.0052Z" fill="#263238"/>
<g opacity="0.2">
<path d="M81.7796 53.8545C81.3777 55.5437 79.5969 56.5256 77.979 56.724C79.5054 56.1745 81.0317 55.3656 81.7796 53.8545Z" fill="black"/>
<path d="M84.3183 55.0198C84.3692 56.1747 84.5117 57.3195 85.2189 58.2556C84.2013 57.5586 84.0029 56.1289 84.3183 55.0198Z" fill="black"/>
</g>
<path d="M70.7696 50.6441C72.3519 51.2851 74.0512 49.0617 74.5804 48.1001C75.1095 47.1385 75.5267 42.5951 76.4883 41.1756C76.9037 40.5251 77.527 40.0343 78.2568 39.7831C78.9866 39.5318 79.7799 39.5349 80.5077 39.7917C81.8051 40.3463 83.3467 42.3051 84.349 42.3356C85.3513 42.3662 85.8245 40.2598 86.5164 40.3412C88.0428 40.5244 88.7296 44.5794 88.8212 46.2634C88.8212 46.2634 90.3984 39.0082 82.7158 37.3496C75.6946 35.8232 72.8709 39.8935 72.0314 41.9286C70.3575 45.8666 70.7696 50.6441 70.7696 50.6441Z" fill="#A6A6A6"/>
<path d="M78.8745 54.6888C78.2585 54.5181 77.7029 54.178 77.2707 53.7071C76.8386 53.2362 76.5473 52.6535 76.43 52.0252C76.3128 51.3969 76.3742 50.7483 76.6074 50.1533C76.8406 49.5582 77.2361 49.0405 77.749 48.6592C78.2619 48.2778 78.8716 48.0481 79.5086 47.9962C80.1456 47.9442 80.7844 48.0721 81.3523 48.3654C81.9202 48.6586 82.3944 49.1054 82.7209 49.6548C83.0474 50.2042 83.2131 50.8343 83.1991 51.4733C83.1791 52.3779 82.8008 53.2375 82.1473 53.8634C81.4938 54.4892 80.6186 54.83 79.714 54.8109C79.4302 54.8042 79.1484 54.7632 78.8745 54.6888ZM80.5789 48.5529C80.3421 48.4857 80.0975 48.4498 79.8513 48.446C79.0994 48.4302 78.3697 48.7015 77.8108 49.2048C77.2519 49.7081 76.9059 50.4055 76.8432 51.155C76.7805 51.9045 77.0059 52.6497 77.4734 53.2388C77.9409 53.828 78.6153 54.2168 79.3595 54.3261C80.1036 54.4353 80.8614 54.2569 81.4785 53.827C82.0957 53.3971 82.5257 52.7482 82.6812 52.0123C82.8366 51.2764 82.7057 50.509 82.3151 49.8663C81.9245 49.2235 81.3036 48.7539 80.5789 48.5529Z" fill="#37474F"/>
<path d="M86.6181 55.8488C85.3614 55.4977 84.583 53.895 84.8526 52.1347C84.969 51.2924 85.3462 50.5078 85.9313 49.8909C86.1658 49.6091 86.4693 49.3928 86.8123 49.2632C87.1553 49.1336 87.5261 49.0951 87.8884 49.1514C88.2507 49.2078 88.5922 49.3571 88.8796 49.5848C89.1671 49.8125 89.3906 50.1108 89.5283 50.4506C89.8971 51.2173 90.0163 52.0802 89.8692 52.9182C89.5792 54.7752 88.2208 56.1133 86.8165 55.8997L86.6181 55.8488ZM87.9867 49.6416L87.8138 49.606C87.5239 49.5741 87.2307 49.6125 86.9588 49.7179C86.6869 49.8233 86.4444 49.9926 86.2518 50.2115C85.7364 50.7621 85.404 51.4588 85.3004 52.2059C85.0511 53.8136 85.7684 55.2586 86.9081 55.4468C88.0478 55.6351 89.1671 54.4547 89.4215 52.847C89.5506 52.1025 89.4457 51.3364 89.1213 50.6541C89.0128 50.4159 88.8558 50.2029 88.6605 50.0285C88.4652 49.8542 88.2357 49.7225 87.9867 49.6416Z" fill="#37474F"/>
<path d="M83.026 51.845L82.792 51.4583C83.3669 51.1073 84.6389 50.7155 85.3359 51.7229L84.9594 51.9773C84.3336 51.0716 83.0769 51.8196 83.026 51.845Z" fill="#37474F"/>
<path d="M67.8695 50.3744L67.5032 50.1048C67.6253 49.9369 68.7599 48.4309 69.7876 48.4207C70.8154 48.4105 76.7071 49.947 76.9614 49.9877L76.8495 50.4304C75.14 49.9979 70.5355 48.8735 69.7927 48.8786C69.0499 48.8837 68.1748 49.9623 67.8695 50.3744Z" fill="#37474F"/>
<path d="M73.0184 50.1913C73.0184 50.1913 71.5379 46.1821 69.7826 46.6299C68.0273 47.0776 68.5208 52.4452 70.1489 53.59C70.3472 53.7509 70.576 53.87 70.8215 53.9402C71.067 54.0103 71.3242 54.0301 71.5776 53.9982C71.8309 53.9664 72.0752 53.8836 72.2957 53.7549C72.5162 53.6261 72.7084 53.4541 72.8607 53.2491L73.0184 50.1913Z" fill="#EB9481"/>
<path d="M69.9607 48.1614V48.2072C71.0902 49.0517 71.4463 50.4 71.5939 51.7381C71.5544 51.592 71.4835 51.4562 71.3863 51.3402C71.289 51.2242 71.1677 51.1308 71.0307 51.0664C70.8936 51.002 70.7443 50.9682 70.5929 50.9673C70.4415 50.9665 70.2917 50.9986 70.154 51.0614C70.1133 51.0614 70.154 51.1378 70.154 51.1378C70.3955 51.125 70.6349 51.1878 70.8391 51.3172C71.0433 51.4467 71.2022 51.6364 71.2937 51.8602C71.4476 52.2331 71.5585 52.6223 71.6244 53.0203C71.6549 53.1475 71.8737 53.1424 71.8635 53.0203V52.9846C72.296 51.3616 71.6499 48.7668 69.9607 48.1614Z" fill="#263238"/>
<g opacity="0.2">
<path d="M83.6268 46.3348C84.0097 46.4306 84.3991 46.4986 84.7919 46.5383C85.1938 46.5383 85.5907 46.5078 85.9926 46.5383C86.7437 46.6398 87.4707 46.8741 88.1397 47.2303C88.2007 47.2557 88.1855 47.2964 88.1397 47.271C87.4206 46.9272 86.6368 46.7399 85.84 46.7215C85.1865 46.7599 84.5308 46.7086 83.8913 46.5688C82.4311 46.2025 80.9556 46.0295 79.5209 46.5688C80.8363 46.0867 82.2651 46.0053 83.6268 46.3348Z" fill="black"/>
<path d="M83.703 45.2816C84.0684 45.3674 84.4389 45.4303 84.8121 45.4699C85.1886 45.4699 85.5702 45.4445 85.9467 45.4699C86.6581 45.5657 87.347 45.7861 87.9818 46.1211C88.0378 46.1466 88.0276 46.1873 87.9818 46.1618C87.2986 45.8394 86.5546 45.666 85.7992 45.6531C85.1797 45.6908 84.5579 45.6411 83.9523 45.5055C82.5684 45.1595 81.1692 44.9967 79.8108 45.5055C81.0571 45.0459 82.4122 44.9679 83.703 45.2816Z" fill="black"/>
</g>
<path d="M79.49 64.2844L76.768 70.1049L69.2431 62.3816L66.9536 64.7067C66.9536 64.7067 74.1275 76.826 74.1936 76.2917L76.9563 71.2853L80.5483 74.9485V66.0448L79.49 64.2844Z" fill="#EBEBEB"/>
<path d="M80.8434 70.5478C80.7925 69.0774 80.7874 67.5968 80.6704 66.1315C80.6704 66.0807 80.5788 66.0552 80.5635 66.1315C80.2023 67.5358 80.416 73.1578 80.36 74.501C80.2125 74.3382 77.0275 71.2703 76.9919 71.316C76.4017 72.1047 74.3767 75.7526 74.2343 76.0833C73.0997 74.1601 68.2713 66.5589 66.9129 64.7324C66.8722 64.6815 66.7857 64.7324 66.8162 64.7782C67.8338 66.8133 74.0409 76.8312 74.1376 76.8058C75.1948 75.095 76.1595 73.3287 77.0275 71.5145C77.5363 72.1759 80.762 75.6254 80.7823 75.4117C80.8928 73.7928 80.9132 72.169 80.8434 70.5478Z" fill="#263238"/>
<path opacity="0.6" d="M95.644 79.4565C95.644 79.4565 104.044 75.5694 104.039 70.3798C104.034 65.1902 93.1205 61.8628 93.1103 57.8027C93.1001 53.7426 97.8573 51.3513 97.8573 51.3513C97.8573 51.3513 90.3527 53.9258 90.3578 59.0594C90.3629 64.193 97.5622 67.6578 98.2541 70.9242C99.2157 75.4575 95.644 79.4565 95.644 79.4565Z" fill="#EBEBEB"/>
<path opacity="0.6" d="M96.056 79.4565C96.056 79.4565 87.6458 76.4038 87.6407 72.3336C87.6357 68.2633 98.5338 65.6024 98.5287 62.4123C98.5236 59.2222 93.7665 57.355 93.7665 57.355C93.7665 57.355 101.296 59.3698 101.296 63.4044C101.296 67.4391 93.0491 70.2272 92.464 73.5088C91.8789 76.7905 96.056 79.4565 96.056 79.4565Z" fill="#EBEBEB"/>
<path d="M99.7514 92.5011L91.7533 92.5137L91.7553 93.7602L99.7533 93.7476L99.7514 92.5011Z" fill="#395BA9"/>
<path opacity="0.7" d="M99.7514 92.5011L91.7533 92.5137L91.7553 93.7602L99.7533 93.7476L99.7514 92.5011Z" fill="white"/>
<path opacity="0.1" d="M99.7514 92.5011L91.7533 92.5137L91.7546 93.3379L99.7527 93.3253L99.7514 92.5011Z" fill="black"/>
<path d="M82.2528 89.1793C82.809 90.0272 83.6403 90.6576 84.6068 90.9643C85.5733 91.271 86.616 91.2354 87.5594 90.8634C87.9572 90.7084 88.3361 90.5087 88.6889 90.2681L87.6713 88.7418C87.4824 88.8742 87.2814 88.9883 87.0709 89.0827C86.4891 89.3523 85.8293 89.4019 85.2138 89.2223C84.5982 89.0427 84.0686 88.646 83.7231 88.1058C82.6242 86.5795 82.2273 83.0485 83.3365 81.6951C83.4077 81.5934 83.7282 81.4357 85.0205 81.6951C85.2546 81.7511 85.5293 81.8122 85.8295 81.8936C86.0672 81.9728 86.3129 82.0257 86.5622 82.0513L86.5927 81.1456L86.6792 80.2451C86.5978 80.2451 86.4655 80.1891 86.2976 80.1433C85.71 79.985 85.1113 79.8711 84.5067 79.8025C83.5552 79.7058 82.5631 79.8025 81.9628 80.5707C80.1413 82.7788 80.879 87.251 82.2528 89.1793Z" fill="#395BA9"/>
<path opacity="0.7" d="M82.2528 89.1793C82.809 90.0272 83.6403 90.6576 84.6068 90.9643C85.5733 91.271 86.616 91.2354 87.5594 90.8634C87.9572 90.7084 88.3361 90.5087 88.6889 90.2681L87.6713 88.7418C87.4824 88.8742 87.2814 88.9883 87.0709 89.0827C86.4891 89.3523 85.8293 89.4019 85.2138 89.2223C84.5982 89.0427 84.0686 88.646 83.7231 88.1058C82.6242 86.5795 82.2273 83.0485 83.3365 81.6951C83.4077 81.5934 83.7282 81.4357 85.0205 81.6951C85.2546 81.7511 85.5293 81.8122 85.8295 81.8936C86.0672 81.9728 86.3129 82.0257 86.5622 82.0513L86.5927 81.1456L86.6792 80.2451C86.5978 80.2451 86.4655 80.1891 86.2976 80.1433C85.71 79.985 85.1113 79.8711 84.5067 79.8025C83.5552 79.7058 82.5631 79.8025 81.9628 80.5707C80.1413 82.7788 80.879 87.251 82.2528 89.1793Z" fill="white"/>
<path opacity="0.1" d="M87.6817 88.7622C87.4928 88.8946 87.2918 89.0087 87.0813 89.1031L87.5901 90.8635C87.9879 90.7085 88.3669 90.5088 88.7196 90.2682L87.6817 88.7622Z" fill="black"/>
<path opacity="0.1" d="M84.5067 79.8025L85.046 81.7308C85.2801 81.7867 85.5548 81.8478 85.855 81.9292C86.0927 82.0085 86.3384 82.0614 86.5876 82.0869L86.6182 81.1813L86.7047 80.2807C86.6233 80.2807 86.491 80.2248 86.3231 80.179C85.7281 80.0074 85.1209 79.8815 84.5067 79.8025Z" fill="black"/>
<path d="M106.384 77.4062C106.384 77.4062 105.433 85.5468 103.785 88.9963C102.136 92.4459 99.8211 92.8122 98.3812 92.8173H93.156C91.7213 92.8173 89.4063 92.4408 87.7426 89.0167C86.0789 85.5926 85.1122 77.4368 85.1122 77.4368L106.384 77.4062Z" fill="#395BA9"/>
<path opacity="0.7" d="M106.384 77.4062C106.384 77.4062 105.433 85.5468 103.785 88.9963C102.136 92.4459 99.8211 92.8122 98.3812 92.8173H93.156C91.7213 92.8173 89.4063 92.4408 87.7426 89.0167C86.0789 85.5926 85.1122 77.4368 85.1122 77.4368L106.384 77.4062Z" fill="white"/>
<g opacity="0.1">
<path d="M105.24 84.1782C105.077 84.9312 104.899 85.674 104.7 86.3711L86.7862 86.4016C86.5878 85.6995 86.4046 84.9567 86.2367 84.2087L105.24 84.1782Z" fill="black"/>
<path d="M104.456 87.2002C104.329 87.592 104.207 87.9583 104.07 88.2992L87.4222 88.3246C87.2848 87.9888 87.1576 87.6174 87.0355 87.2307L104.456 87.2002Z" fill="black"/>
<path d="M105.652 82.1174C105.586 82.4736 105.514 82.8399 105.438 83.2113L86.0382 83.2418C85.9567 82.8704 85.8906 82.5041 85.8245 82.148L105.652 82.1174Z" fill="black"/>
</g>
<path d="M41.3161 110.589C45.5695 112.66 53.0181 110.039 70.8255 104.244C73.2931 103.446 71.6802 84.1882 68.999 84.9107C65.6257 85.8163 52.7179 90.0698 51.8224 90.5073C44.2212 94.1298 38.4313 109.185 41.3161 110.589Z" fill="#EB9481"/>
<path d="M91.0701 84.8903C91.126 87.1391 85.5803 86.8084 85.5803 86.8084C86.4002 87.3234 87.0126 88.1105 87.3101 89.0318C87.763 90.6803 85.3768 92.0845 85.3768 92.0845C86.1154 92.799 86.6224 93.719 86.8319 94.7251C87.1016 96.343 84.9036 98.1289 84.9036 98.1289C85.2041 99.1585 85.1393 100.26 84.7204 101.248C82.6853 105.583 70.3066 105.883 66.7553 105.221L61.6675 87.6123C61.6675 87.6123 71.9042 80.6929 76.931 80.3876C79.7344 80.2095 90.9836 81.4357 91.0701 84.8903Z" fill="#EB9481"/>
<path d="M85.5243 86.7221C82.5733 85.9284 79.4189 85.8419 76.412 85.791C76.3985 85.791 76.3855 85.7964 76.376 85.8059C76.3664 85.8155 76.3611 85.8284 76.3611 85.8419C76.3611 85.8554 76.3664 85.8683 76.376 85.8779C76.3855 85.8874 76.3985 85.8928 76.412 85.8928C79.4189 86.1217 82.5174 86.7272 85.5039 86.8645C85.5228 86.8672 85.542 86.8623 85.5573 86.8509C85.5725 86.8394 85.5826 86.8224 85.5853 86.8035C85.588 86.7846 85.5831 86.7654 85.5717 86.7501C85.5602 86.7349 85.5432 86.7248 85.5243 86.7221Z" fill="#263238"/>
<path d="M85.3308 92.0132C84.6436 91.8961 83.9439 91.8704 83.2499 91.9368C82.5122 91.9368 81.7744 91.9979 81.0367 92.0488C79.5612 92.1454 78.0909 92.2777 76.6205 92.4558C76.5594 92.4558 76.5543 92.5626 76.6205 92.5576C78.0909 92.4609 79.5612 92.3896 81.0367 92.3591C81.7744 92.3591 82.5122 92.3286 83.2448 92.3235C83.9422 92.3628 84.6417 92.3253 85.3308 92.2116C85.3533 92.2065 85.3734 92.1938 85.3878 92.1758C85.4022 92.1578 85.41 92.1354 85.41 92.1124C85.41 92.0893 85.4022 92.0669 85.3878 92.0489C85.3734 92.0309 85.3533 92.0183 85.3308 92.0132Z" fill="#263238"/>
<path d="M84.8425 98.1186C84.2192 98.0237 83.5843 98.0358 82.965 98.1543L80.9299 98.3171C79.5867 98.4188 78.2435 98.5206 76.9003 98.5765C76.8291 98.5765 76.8291 98.6834 76.9003 98.6834C78.269 98.6325 79.6376 98.602 81.0062 98.5409L83.0414 98.4392C83.6571 98.4627 84.2721 98.3765 84.8577 98.1848C84.8577 98.1848 84.873 98.1186 84.8425 98.1186Z" fill="#263238"/>
<path d="M65.5086 83.9846L60.7057 111.057C60.7057 111.057 43.4071 113.428 40.0034 110.548C37.5917 108.488 43.2138 94.0026 51.6748 90.0035L65.5086 83.9846Z" fill="#395BA9"/>
<path d="M43.3819 98.256C44.0383 96.5312 46.8213 92.3693 51.6751 89.9832C51.7209 89.9832 51.7616 90.0239 51.7209 90.0493C48.2764 92.176 44.2214 96.6635 43.4481 98.2916C43.4277 98.3374 43.3667 98.3018 43.3819 98.256Z" fill="#263238"/>
<path d="M56.5592 107.75C56.8187 105.104 57.2156 102.479 57.6226 99.8537C58.0296 97.2284 58.4265 94.5929 58.8996 91.9727C59.1642 90.4972 59.4084 89.0116 59.7391 87.5412C59.7391 87.5056 59.8154 87.5107 59.8104 87.5412C59.556 90.1818 59.1642 92.8122 58.7928 95.4375C58.4214 98.0628 57.9889 100.698 57.5514 103.324C57.3021 104.804 57.0426 106.285 56.7068 107.755C56.6763 107.837 56.5541 107.826 56.5592 107.75Z" fill="#263238"/>
<path d="M65.407 83.7759C64.416 84.0734 63.4456 84.4355 62.5019 84.8596C61.5504 85.2616 60.599 85.6737 59.6578 86.1011C57.7803 86.9406 53.705 88.5178 50.5709 90.5834C50.5404 90.6089 50.8253 90.6598 50.8609 90.6343C52.3007 89.576 64.3996 84.6714 65.3205 84.1575C65.3205 84.2338 65.061 85.9637 65.0763 86.0451C65.0916 86.1265 65.1679 86.1265 65.1933 86.0451C65.2544 85.8975 65.5393 84.1066 65.5902 83.9591C65.596 83.9338 65.5953 83.9075 65.5882 83.8826C65.5811 83.8577 65.5677 83.835 65.5494 83.8167C65.5311 83.7984 65.5084 83.785 65.4835 83.7779C65.4586 83.7707 65.4322 83.7701 65.407 83.7759Z" fill="#263238"/>
<path d="M61.474 106.732C61.2908 108.228 61.0772 109.719 60.8584 111.21C58.5638 111.561 56.2793 111.805 53.944 111.983C50.5453 112.207 47.0958 112.334 43.7124 111.8C43.341 111.729 42.9696 111.642 42.5981 111.561C45.6051 111.937 48.6323 111.759 51.6443 111.612C54.6563 111.464 57.6785 111.179 60.6803 110.884L60.5328 111.027C60.8329 109.592 61.1382 108.157 61.474 106.732Z" fill="#263238"/>
<path d="M189.972 115.315C185.114 110.965 164.905 103.074 163.877 102.596C162.9 102.275 155.039 101.283 155.039 101.283C154.81 101.329 134.154 92.0183 134.154 92.0183L127.301 116.119L152.175 123.558C152.175 123.558 173.305 130.93 179.527 130.889C183.582 130.849 192.679 117.742 189.972 115.315Z" fill="#EB9481"/>
<path d="M179.527 130.879C173.305 130.92 152.175 123.558 152.175 123.558L146.777 121.945L151.758 99.8843C153.666 100.724 154.953 101.278 155.034 101.278C155.034 101.278 162.9 102.27 163.872 102.591C164.889 103.1 185.113 110.976 189.972 115.311C192.679 117.743 183.582 130.849 179.527 130.879Z" fill="#EBEBEB"/>
<path d="M179.527 130.879C173.305 130.92 152.175 123.558 152.175 123.558L150.333 123.008C150.939 121.304 152.501 116.847 153.172 114.522C154.022 111.601 155.034 101.293 155.034 101.293C155.034 101.293 162.9 102.286 163.872 102.606C164.889 103.115 185.114 110.991 189.972 115.326C192.679 117.742 183.582 130.849 179.527 130.879Z" fill="#395BA9"/>
<path d="M177.553 129.216C176.831 125.512 177.553 121.655 178.922 119.345C180.219 117.132 182.219 115.087 184.701 114.766C184.773 114.766 184.803 114.929 184.732 114.954C180.224 116.623 177.044 122.881 177.701 129.165C177.716 129.317 177.578 129.343 177.553 129.216Z" fill="#263238"/>
<path d="M160.458 120.963C160.198 117.783 161.074 114.013 163.546 111.856C163.638 111.774 163.76 111.912 163.714 112.008C162.441 114.899 161.483 117.918 160.855 121.014C160.84 121.059 160.81 121.098 160.77 121.123C160.73 121.149 160.682 121.159 160.635 121.153C160.588 121.147 160.545 121.125 160.512 121.09C160.48 121.055 160.461 121.01 160.458 120.963Z" fill="#263238"/>
<path d="M162.722 122.057C162.463 118.872 163.338 115.102 165.81 112.945C165.907 112.863 166.024 113.001 165.978 113.097C164.709 115.982 163.75 118.994 163.119 122.082C163.106 122.127 163.078 122.166 163.041 122.193C163.003 122.219 162.957 122.232 162.91 122.229C162.864 122.227 162.82 122.208 162.786 122.176C162.752 122.145 162.729 122.103 162.722 122.057Z" fill="#263238"/>
<path d="M164.986 123.146C164.726 119.961 165.602 116.191 168.074 114.034C168.171 113.952 168.288 114.089 168.242 114.186C166.98 117.072 166.028 120.084 165.403 123.171C165.4 123.227 165.375 123.278 165.333 123.315C165.292 123.352 165.237 123.371 165.182 123.367C165.127 123.364 165.075 123.339 165.038 123.297C165.001 123.256 164.983 123.201 164.986 123.146Z" fill="#263238"/>
<path d="M167.25 124.235C166.991 121.05 167.866 117.28 170.338 115.122C170.435 115.041 170.552 115.178 170.506 115.275C169.237 118.16 168.279 121.172 167.647 124.26C167.634 124.305 167.607 124.344 167.569 124.37C167.531 124.397 167.485 124.41 167.438 124.407C167.392 124.404 167.348 124.386 167.314 124.354C167.28 124.323 167.257 124.281 167.25 124.235Z" fill="#263238"/>
<path d="M155.93 122.54C158.25 120.948 159.796 118.404 161.496 116.226C161.529 116.174 161.55 116.115 161.556 116.054C161.562 115.992 161.554 115.93 161.531 115.873C161.509 115.815 161.473 115.764 161.427 115.723C161.381 115.682 161.326 115.652 161.267 115.636C161.271 115.623 161.272 115.61 161.27 115.597C161.268 115.584 161.262 115.572 161.254 115.561C161.246 115.551 161.236 115.542 161.224 115.537C161.212 115.531 161.199 115.528 161.185 115.529C158.247 115.598 155.379 116.436 152.867 117.961C151.422 118.877 149.997 120.836 151.244 122.54C152.419 124.102 154.576 123.446 155.93 122.54ZM153.279 122.54C149.829 122.031 152.673 119.045 153.788 118.414C154.501 118.025 155.241 117.685 156.001 117.396C157.584 116.807 159.195 116.297 160.829 115.87C159.929 116.888 159.125 117.976 158.26 119.03C157.212 120.23 155.182 122.795 153.279 122.54Z" fill="#263238"/>
<path d="M159.898 103.787C157.802 103.914 157.217 106.264 157.446 107.964C157.889 110.867 159.09 113.603 160.926 115.896C160.933 115.907 160.944 115.917 160.956 115.923C160.968 115.93 160.981 115.933 160.995 115.933C161.008 115.933 161.022 115.93 161.034 115.923C161.046 115.917 161.056 115.907 161.063 115.896C161.113 115.931 161.171 115.955 161.232 115.964C161.293 115.973 161.355 115.967 161.413 115.947C161.472 115.927 161.524 115.894 161.567 115.849C161.61 115.805 161.641 115.751 161.659 115.692C162.239 112.985 163.185 110.167 162.92 107.368C162.763 105.75 161.883 103.659 159.898 103.787ZM161.694 111.418C161.445 112.756 161.13 114.069 160.926 115.417C160.203 113.891 159.558 112.328 158.993 110.737C158.733 109.961 158.524 109.169 158.367 108.366C158.148 107.124 158.606 103.034 161.216 105.343C162.656 106.615 162 109.821 161.694 111.413V111.418Z" fill="#263238"/>
<path d="M163.49 102.835C169.672 105.511 176.311 108.508 182.396 111.388C184.605 112.533 186.808 113.637 188.909 114.975C189.186 115.134 189.429 115.344 189.626 115.595C189.724 115.821 189.782 116.062 189.799 116.308C189.835 118.389 188.853 120.215 187.942 122.001C186.095 125.39 183.394 128.824 179.741 130.33C180.202 130.157 180.639 129.922 181.038 129.633C183.845 127.618 186.101 124.931 187.601 121.818C188.431 120.032 189.565 118.022 189.285 116.023C189.209 115.662 188.934 115.59 188.649 115.367C184.279 112.69 178.815 110.218 174.159 107.999C171.498 106.738 166.136 104.138 163.475 102.835H163.49Z" fill="#263238"/>
<path d="M51.2323 117.086C51.2323 117.086 51.2323 133.728 57.1545 138.887C62.1355 143.217 74.0919 147.587 86.1552 142.271C96.2087 137.804 108.928 115.926 111.65 113.672C112.495 112.97 128.267 120.418 144.915 125.308L150.766 95.4677C148.14 94.9589 110.292 81.3083 102.604 82.3513C90.5307 83.9946 72.9522 112.334 72.9522 112.334L51.2323 117.086Z" fill="#263238"/>
<path d="M66.5365 114.573C66.5365 114.486 66.3941 114.512 66.3941 114.573C66.3999 116.867 65.6085 119.091 64.1554 120.866C62.507 122.815 60.0851 123.919 57.8719 125.044C57.6582 125.156 57.8363 125.313 58.0551 125.247C59.4005 124.885 60.701 124.373 61.932 123.721C63.0657 123.098 64.061 122.252 64.8575 121.233C65.5752 120.295 66.0942 119.221 66.3829 118.076C66.6716 116.931 66.7239 115.739 66.5365 114.573Z" fill="#37474F"/>
<path d="M138.87 122.092C140.107 116.801 139.822 118.338 141.002 113.036C141.577 110.436 144.508 97.3961 144.645 94.8878C144.645 94.8743 144.64 94.8614 144.63 94.8518C144.62 94.8423 144.608 94.8369 144.594 94.8369C144.581 94.8369 144.568 94.8423 144.558 94.8518C144.549 94.8614 144.543 94.8743 144.543 94.8878C143.643 97.2333 140.982 110.334 140.473 112.939C139.389 118.266 139.755 116.75 138.728 122.098C138.724 122.109 138.723 122.122 138.725 122.134C138.726 122.146 138.731 122.158 138.739 122.168C138.746 122.178 138.756 122.186 138.767 122.191C138.778 122.196 138.79 122.199 138.803 122.199C138.815 122.198 138.827 122.195 138.838 122.188C138.849 122.182 138.858 122.174 138.864 122.163C138.871 122.153 138.875 122.141 138.876 122.129C138.877 122.116 138.875 122.104 138.87 122.092Z" fill="#37474F"/>
<path d="M73.1913 112.242C71.7108 114.313 70.51 116.47 68.9888 118.511C69.8741 116.155 71.202 113.83 73.1913 112.242Z" fill="#37474F"/>
<path d="M53.649 118.271C53.9848 120.673 54.3766 123.059 54.8396 125.435C55.2603 127.814 55.8641 130.156 56.6458 132.441C57.0596 133.563 57.7386 134.569 58.6249 135.372C63.5551 139.849 72.4537 142.047 78.8389 139.991C87.6103 136.644 95.6287 124.321 100.864 116.659C102.202 114.623 103.5 112.588 104.848 110.584C105.189 110.075 105.535 109.566 105.906 109.093C106.181 108.737 106.603 108.167 107.153 108.279C108.516 108.523 109.849 108.91 111.131 109.434C115.67 111.138 120.116 113.051 124.609 114.863C129.102 116.674 133.564 118.567 138.244 119.823C133.543 118.653 129.025 116.842 124.507 115.112C118.865 112.995 113.355 110.365 107.55 108.778C107.309 108.715 107.057 108.715 106.817 108.778C106.607 108.957 106.421 109.162 106.262 109.388C104.487 111.825 102.94 114.43 101.261 116.944C96.0052 124.738 87.9512 137.04 78.9814 140.434C72.4588 142.535 63.4075 140.215 58.4163 135.606C56.5338 133.937 55.9538 131.393 55.4145 129.048C54.6259 125.486 54.0968 121.899 53.649 118.292V118.271Z" fill="#37474F"/>
<path d="M145.642 121.594L144.971 125.323V125.379H144.91C139.181 123.787 133.533 121.889 127.977 119.783C123.515 118.129 116.886 115.204 112.363 113.962C112.183 113.917 111.998 113.9 111.813 113.911C111.813 113.881 111.767 113.947 111.767 113.947C110.719 115.097 109.765 116.329 108.913 117.631C102.95 126.041 97.0076 135.016 88.455 141.035C95.6288 135.682 100.844 128.254 105.983 121.034C107.234 119.284 109.183 116.308 110.49 114.649C110.782 114.264 111.103 113.904 111.452 113.57C111.502 113.518 111.566 113.48 111.635 113.458C111.908 113.398 112.191 113.407 112.459 113.484C113.555 113.753 114.633 114.093 115.685 114.501C118.524 115.519 125.235 118.272 128.135 119.401C133.528 121.635 139.598 123.537 144.869 125.349L145.652 121.645L145.642 121.594Z" fill="#37474F"/>
<path d="M27.645 159.437C24.287 150.732 17.5304 145.832 9.3288 147.522C1.12722 149.211 -1.10634 160.292 4.62765 163.63C10.3616 166.967 17.0776 159.224 20.3999 157.794C23.7223 156.364 27.645 159.437 27.645 159.437Z" fill="#395BA9"/>
<path d="M29.6904 182.027C29.7565 181.01 29.8023 179.992 29.8532 178.975C29.9499 176.939 30.0567 174.94 30.1483 172.92C30.3264 169.226 30.2348 165.578 28.9985 162.058C27.9101 158.872 25.8805 156.092 23.178 154.085C22.168 153.356 21.0619 152.77 19.8912 152.345C18.9045 151.157 17.5924 150.284 16.1161 149.831C14.291 149.298 12.3865 149.087 10.4889 149.211C10.4177 149.211 10.4126 149.323 10.4889 149.318C12.3041 149.238 14.1168 149.522 15.821 150.152C16.5473 150.42 17.2445 150.761 17.9019 151.17C18.309 151.435 18.6967 151.729 19.0619 152.05C17.4724 151.576 15.7995 151.451 14.1572 151.683C13.5629 151.772 12.9773 151.911 12.407 152.101C11.9791 151.962 11.5338 151.885 11.0842 151.872C10.4954 151.839 9.90491 151.873 9.32381 151.973C8.13405 152.199 6.98157 152.589 5.8997 153.133C5.83864 153.133 5.8997 153.256 5.95058 153.225C7.00867 152.759 8.12707 152.444 9.27293 152.289C9.82717 152.209 10.387 152.175 10.9468 152.187C11.2572 152.187 11.5675 152.233 11.8728 152.269C9.49642 153.13 7.50258 154.807 6.24567 157C6.21006 157.056 6.30164 157.117 6.33216 157.056C7.76693 154.441 10.4889 152.803 13.3941 152.319C13.5721 152.289 13.7553 152.284 13.9385 152.263C13.8707 152.528 13.8197 152.796 13.7858 153.067C13.6943 153.469 13.5925 153.871 13.4755 154.263C13.2376 155.078 12.9505 155.879 12.6156 156.659C12.2759 157.448 11.8832 158.213 11.4403 158.949C11.0205 159.732 10.508 160.461 9.914 161.121C9.85803 161.177 9.94452 161.254 9.99031 161.193C10.5398 160.475 11.1554 159.829 11.6642 159.081C12.149 158.368 12.5793 157.62 12.9514 156.843C13.325 156.053 13.6347 155.234 13.8774 154.395C14.0046 153.953 14.1115 153.505 14.203 153.052C14.2816 152.784 14.3227 152.507 14.3251 152.228C15.2805 152.167 16.2397 152.228 17.1794 152.411C16.6706 154.375 16.0957 156.42 14.8288 158.059C14.7881 158.114 14.8797 158.176 14.9204 158.12C15.5211 157.245 16.0616 156.33 16.5384 155.382C16.9901 154.462 17.307 153.482 17.4796 152.472C19.1177 152.835 20.6716 153.507 22.0587 154.451C24.6646 156.277 26.6494 158.857 27.7468 161.844C28.9934 165.064 29.3139 168.458 29.2376 171.872C29.1409 176.166 28.8305 180.47 28.8967 184.77C28.8967 185.049 29.3342 185.182 29.4055 184.871C29.5887 183.934 29.6841 182.982 29.6904 182.027Z" fill="#263238"/>
<path d="M22.6539 153.372C22.4134 153.026 22.1276 152.712 21.8042 152.441C21.4967 152.135 21.1741 151.845 20.8375 151.571C20.1738 151.028 19.4241 150.6 18.6192 150.304C18.6129 150.302 18.6062 150.301 18.5994 150.301C18.5926 150.302 18.586 150.303 18.5799 150.306C18.5674 150.312 18.5578 150.322 18.5531 150.335C18.5484 150.348 18.5489 150.362 18.5547 150.374C18.5604 150.387 18.5708 150.396 18.5836 150.401C19.3957 150.685 20.1404 151.134 20.7714 151.719C21.0868 151.994 21.3921 152.294 21.6872 152.594C21.9427 152.916 22.2327 153.21 22.5521 153.469C22.5656 153.479 22.5822 153.484 22.5989 153.483C22.6157 153.482 22.6315 153.475 22.6437 153.464C22.6558 153.452 22.6635 153.436 22.6654 153.42C22.6673 153.403 22.6632 153.386 22.6539 153.372Z" fill="#263238"/>
<path d="M9.41544 155.301C8.67853 156.029 7.98538 156.801 7.33961 157.611C6.7103 158.431 6.16807 159.314 5.72168 160.246C5.72168 160.272 5.75221 160.292 5.76747 160.272C6.85179 158.529 8.09697 156.892 9.48667 155.382C9.53755 155.331 9.46632 155.255 9.41544 155.301Z" fill="#263238"/>
<path d="M18.2377 155.219C18.1085 155.734 17.9099 156.229 17.6475 156.69C17.3871 157.138 17.0911 157.566 16.7622 157.967C16.7622 157.992 16.7622 158.028 16.8029 158.002C17.5698 157.256 18.1005 156.3 18.3293 155.255C18.3649 155.189 18.2529 155.153 18.2377 155.219Z" fill="#263238"/>
<path d="M27.0854 159.58C27.0854 159.58 32.3056 151.902 43.6209 153.632C54.3817 155.271 60.7211 174.294 50.2351 177.418C39.7491 180.542 40.2528 162.46 36.1316 159.712C33.084 157.692 29.0137 158.481 27.0854 159.58Z" fill="#395BA9"/>
<path d="M53.013 163.569C52.241 162.989 51.432 162.461 50.5912 161.986C49.7932 161.534 48.9374 161.191 48.0473 160.969C46.6849 159.187 44.9183 157.756 42.8933 156.792C43.0053 156.792 43.1121 156.756 43.224 156.746C43.8118 156.676 44.4028 156.637 44.9946 156.629C46.1861 156.615 47.3704 156.816 48.49 157.224C48.5022 157.225 48.5143 157.222 48.5245 157.215C48.5346 157.208 48.5423 157.198 48.5464 157.187C48.5504 157.175 48.5506 157.163 48.5468 157.151C48.5431 157.139 48.5356 157.129 48.5256 157.122C47.3901 156.733 46.214 156.473 45.0201 156.349C44.4396 156.296 43.8554 156.296 43.2749 156.349C42.9595 156.374 42.6491 156.42 42.3439 156.471L42.1658 156.502C41.1068 156.063 40.0004 155.749 38.8689 155.565L39.1741 155.454C39.7097 155.295 40.2531 155.164 40.8022 155.062C41.8995 154.849 43.0198 154.781 44.1348 154.858C44.2009 154.858 44.2111 154.757 44.1348 154.757C43.009 154.704 41.8809 154.743 40.7615 154.874C39.82 154.97 38.8909 155.163 37.9887 155.448C37.3129 155.376 36.633 155.349 35.9535 155.367C32.0613 155.494 27.9453 157.265 25.7779 160.633C23.6105 164.001 23.4833 168.295 23.351 172.177C23.106 177.592 23.3718 183.017 24.1447 188.382C24.1956 188.697 24.6535 188.606 24.6229 188.301C24.4245 183.722 24.2414 179.143 24.3329 174.563C24.3787 172.437 24.4449 170.3 24.6331 168.183C24.7532 166.365 25.1389 164.573 25.7779 162.867C26.4751 161.117 27.6756 159.614 29.2274 158.547C30.787 157.493 32.5613 156.797 34.4221 156.512C36.0902 156.249 37.7914 156.28 39.4489 156.603C39.4133 156.933 39.4287 157.266 39.4947 157.59C39.5605 158.002 39.6731 158.405 39.8305 158.791C39.9813 159.154 40.1635 159.503 40.3749 159.834C40.6089 160.201 40.8836 160.521 41.1533 160.852C41.194 160.908 41.2805 160.852 41.2347 160.786C40.7327 160.167 40.384 159.438 40.2171 158.659C40.1193 158.289 40.0462 157.914 39.9984 157.534C39.9627 157.25 39.9627 156.96 39.9322 156.675C41.7374 157.085 43.4494 157.83 44.9793 158.873C45.2694 159.066 45.5441 159.275 45.8188 159.493C45.4776 159.862 45.1898 160.276 44.9641 160.725C44.6214 161.309 44.3336 161.924 44.1042 162.561C43.6851 163.839 43.4387 165.167 43.3716 166.509C43.3716 166.576 43.4734 166.586 43.4734 166.509C43.5937 165.205 43.9379 163.932 44.4909 162.744C44.7427 162.159 45.0299 161.59 45.3508 161.04C45.5187 160.76 45.6967 160.48 45.8595 160.211C45.9562 160.063 46.0631 159.916 46.1546 159.758C47.5602 160.939 48.7424 162.362 49.6449 163.96C49.1575 164.553 48.7645 165.217 48.4798 165.929C48.135 166.676 47.8426 167.447 47.6047 168.234C47.181 169.757 46.8531 171.305 46.6227 172.869C46.6263 172.881 46.6334 172.891 46.643 172.898C46.6526 172.905 46.6642 172.908 46.6761 172.908C46.6881 172.908 46.6997 172.905 46.7093 172.898C46.7189 172.891 46.726 172.881 46.7296 172.869C46.9509 171.298 47.3662 169.76 47.9659 168.29C48.2457 167.568 48.5459 166.855 48.8665 166.148C49.2049 165.488 49.5039 164.809 49.7619 164.113C50.6294 165.679 51.1922 167.395 51.4205 169.17C51.4205 169.236 51.5376 169.216 51.5274 169.17C51.1111 166.392 50.0519 163.749 48.434 161.452C49.1361 161.691 49.8382 161.92 50.52 162.22C51.3898 162.6 52.2086 163.087 52.9571 163.67C53.0029 163.701 53.069 163.609 53.013 163.569Z" fill="#263238"/>
<path d="M44.8877 164.596C44.6333 165.721 44.2975 166.82 44.0787 167.949C43.8529 169.036 43.7708 170.148 43.8345 171.256C43.8345 171.263 43.8372 171.27 43.842 171.274C43.8467 171.279 43.8532 171.282 43.8599 171.282C43.8667 171.282 43.8732 171.279 43.8779 171.274C43.8827 171.27 43.8854 171.263 43.8854 171.256C44.0195 169.019 44.3896 166.802 44.9894 164.642C44.9955 164.629 44.996 164.613 44.9907 164.599C44.9855 164.586 44.975 164.574 44.9615 164.568C44.948 164.562 44.9326 164.562 44.9188 164.567C44.9049 164.572 44.8938 164.583 44.8877 164.596Z" fill="#263238"/>
<path d="M51.7257 161.34C51.2672 160.951 50.7527 160.634 50.1994 160.399C49.6308 160.191 49.0451 160.033 48.4492 159.926C48.383 159.926 48.3677 160.022 48.4492 160.028C49.0347 160.135 49.6029 160.322 50.1383 160.582C50.6848 160.815 51.2137 161.087 51.7206 161.396C51.7252 161.393 51.729 161.389 51.7318 161.385C51.7346 161.38 51.7364 161.375 51.7368 161.369C51.7373 161.364 51.7366 161.359 51.7347 161.354C51.7327 161.348 51.7297 161.344 51.7257 161.34Z" fill="#263238"/>
<path d="M33.2062 151.032C33.2062 151.032 34.2746 137.982 43.9771 133.734C52.082 130.203 56.6967 139.33 50.9881 144.881C46.348 149.419 38.9249 147.384 33.2062 151.032Z" fill="#395BA9"/>
<path d="M49.1972 136.277C47.7205 136.871 46.2799 137.55 44.8827 138.312C43.7194 138.982 42.5996 139.725 41.5298 140.536C41.6926 140.205 41.83 139.859 41.9928 139.518C42.2472 139.01 42.5016 138.501 42.8171 138.043C43.416 137.057 44.1336 136.148 44.9539 135.336C45.0048 135.29 44.9539 135.214 44.8776 135.265C44.0596 136.075 43.3076 136.95 42.6288 137.88C42.2939 138.356 41.9865 138.85 41.7079 139.361C41.4186 139.835 41.1993 140.35 41.0567 140.887L40.9498 140.963C39.2554 142.314 37.7024 143.832 36.3148 145.497C36.3148 145.369 36.3657 145.242 36.4013 145.125C36.5845 144.489 36.7778 143.858 36.9915 143.227C37.407 141.888 37.9953 140.609 38.7417 139.422C38.7773 139.366 38.6857 139.31 38.6501 139.371C37.8837 140.558 37.2035 141.8 36.615 143.085C36.3428 143.71 36.1183 144.354 35.9434 145.013C35.8008 145.439 35.6953 145.877 35.628 146.321C35.2057 146.86 34.7885 147.399 34.3967 147.954C30.2298 153.886 28.1387 161.06 27.6401 168.234C27.4859 170.381 27.4468 172.534 27.523 174.685C27.538 176.848 27.7268 179.005 28.0878 181.137C28.1183 181.269 28.3269 181.228 28.3218 181.096C28.276 179.214 28.0827 177.336 28.042 175.449C28.0013 173.561 28.0725 171.663 28.2252 169.781C28.5356 166.009 29.2503 162.282 30.357 158.664C31.4842 154.962 33.1469 151.444 35.2922 148.224C35.6992 148.142 36.1062 148.03 36.5082 147.928C37.0169 147.801 37.4748 147.679 37.9582 147.542C38.8909 147.301 39.7976 146.969 40.6649 146.55C40.726 146.519 40.6649 146.428 40.6089 146.458C39.7546 146.926 38.8275 147.246 37.8666 147.404C37.1034 147.557 36.3403 147.659 35.5567 147.832C36.2557 146.804 37.008 145.814 37.8106 144.866C39.6609 145.032 41.5259 144.893 43.3309 144.454C44.291 144.224 45.2344 143.93 46.1547 143.573C47.1264 143.202 48.0473 142.719 49.0089 142.317C49.0802 142.286 49.0089 142.179 48.9632 142.22C47.3198 143.238 45.249 143.746 43.3665 144.052C41.6366 144.328 39.8881 144.472 38.1363 144.484C38.8231 143.695 39.5354 142.922 40.2935 142.2C42.8374 139.773 45.8901 137.544 49.2277 136.379C49.2939 136.374 49.2583 136.277 49.1972 136.277Z" fill="#263238"/>
<path d="M41.3009 136.333C40.8638 136.885 40.466 137.466 40.1104 138.073C39.7469 138.716 39.46 139.399 39.2556 140.109H39.2963C39.6169 139.467 39.8916 138.806 40.2172 138.165C40.5386 137.538 40.9275 136.947 41.3772 136.405C41.423 136.354 41.3416 136.277 41.3009 136.333Z" fill="#263238"/>
<path d="M50.3215 140.678C49.6901 141.026 49.0232 141.304 48.3321 141.508C47.6646 141.728 46.9851 141.909 46.297 142.052C46.2665 142.052 46.297 142.113 46.297 142.108C47.0107 142.034 47.7138 141.881 48.3932 141.65C49.0654 141.398 49.7213 141.104 50.3571 140.77C50.4182 140.739 50.3825 140.643 50.3215 140.678Z" fill="#263238"/>
<path d="M25.7169 144.708C25.6558 145.273 24.2465 139.971 16.05 135.26C8.59633 130.986 -0.292106 119.869 7.00893 112.843C12.9006 107.175 28.4338 119.533 25.7169 144.708Z" fill="#395BA9"/>
<path d="M31.3591 175.103C31.2414 169.584 30.81 164.077 30.0668 158.608C29.4163 153.584 28.2536 148.64 26.5969 143.853C25.9864 142.129 25.2893 140.434 24.5618 138.765C24.6035 138.114 24.5916 137.461 24.5261 136.812C24.4854 135.977 24.4091 135.143 24.3328 134.314C24.2565 133.484 24.17 132.645 24.0733 131.815C23.9767 130.986 23.7986 130.157 23.763 129.328C23.763 129.314 23.7576 129.301 23.7481 129.292C23.7385 129.282 23.7256 129.277 23.7121 129.277C23.6986 129.277 23.6857 129.282 23.6761 129.292C23.6666 129.301 23.6612 129.314 23.6612 129.328C23.8239 130.199 23.9209 131.082 23.9512 131.968C24.0174 132.777 24.0632 133.581 24.0886 134.385C24.114 135.189 24.0886 136.003 24.0886 136.812C24.0886 137.102 24.0886 137.412 24.0886 137.722C23.3152 136.091 22.4842 134.492 21.5956 132.925C22.1501 129.521 21.4277 125.964 20.7306 122.642C20.7306 122.571 20.6187 122.601 20.6289 122.673C20.9706 124.409 21.1528 126.174 21.1733 127.944C21.2038 129.338 21.1376 130.737 21.1326 132.131C20.9341 131.8 20.7408 131.464 20.5373 131.113C19.4722 129.373 18.3359 127.677 17.1284 126.026C17.2253 125.219 17.1995 124.403 17.0521 123.604C16.9178 122.707 16.7189 121.821 16.4568 120.953C16.1923 120.083 15.8921 119.228 15.5461 118.409C15.2001 117.59 14.7168 116.73 14.3759 115.865C14.3454 115.794 14.2385 115.865 14.2793 115.911C14.7103 116.73 15.0515 117.593 15.2968 118.485C15.5686 119.32 15.7929 120.169 15.9684 121.029C16.1414 121.894 16.2839 122.759 16.406 123.634C16.4823 124.209 16.5332 124.81 16.6349 125.39C14.8795 123.031 12.96 120.798 10.8908 118.709C10.8399 118.658 10.7737 118.709 10.8144 118.786C13.9441 122.299 16.7377 126.097 19.1585 130.131C19.2501 130.284 19.3315 130.437 19.423 130.589C18.9702 130.304 18.4513 130.081 18.0239 129.841C17.2302 129.397 16.4331 128.96 15.6326 128.529C14.8542 128.112 14.1063 127.684 13.3075 127.257C12.9106 127.038 12.5189 126.809 12.1118 126.6C11.6286 126.381 11.164 126.122 10.7229 125.827C10.6618 125.781 10.5957 125.878 10.6618 125.914C11.4504 126.346 12.1474 126.992 12.9106 127.481C13.6738 127.969 14.437 128.442 15.2561 128.885C16.7112 129.699 18.3088 130.284 19.7334 131.124C20.751 132.869 21.6464 134.66 22.491 136.481C21.621 135.921 20.7306 135.392 19.8301 134.883C19.245 134.558 18.665 134.237 18.0748 133.927C17.4871 133.651 16.9325 133.31 16.4212 132.909C16.4111 132.9 16.3977 132.895 16.3838 132.895C16.37 132.896 16.3569 132.902 16.3475 132.912C16.338 132.922 16.333 132.935 16.3334 132.949C16.3339 132.963 16.3399 132.976 16.35 132.986C17.3041 133.845 18.3621 134.582 19.4994 135.179C20.5525 135.794 21.621 136.389 22.7149 136.924C23.59 138.847 24.382 140.804 25.0909 142.795C28.5404 152.574 29.8124 162.953 30.4179 173.261C30.5959 176.314 30.6926 179.407 30.7282 182.485C30.7638 185.563 30.5756 188.647 30.5756 191.735C30.5756 191.826 30.7231 191.847 30.7384 191.735C31.1047 189.008 31.1709 186.235 31.293 183.493C31.4151 180.75 31.4252 177.901 31.3591 175.103Z" fill="#263238"/>
<path d="M16.4569 130.839C14.9575 130.18 13.5011 129.427 12.0967 128.585C10.6716 127.785 9.2908 126.908 7.96026 125.959C7.96026 125.959 7.90938 125.959 7.92973 125.995C9.18873 127.013 10.5164 127.943 11.9033 128.778C13.3586 129.589 14.8623 130.309 16.4061 130.935C16.4671 130.961 16.518 130.869 16.4569 130.839Z" fill="#263238"/>
<path d="M18.833 119.788C18.7109 119.309 18.5633 118.841 18.4005 118.378C18.4077 118.371 18.4116 118.361 18.4116 118.35C18.4116 118.34 18.4077 118.33 18.4005 118.322C18.2987 118.058 18.1868 117.814 18.08 117.534C18.0697 117.501 18.0578 117.469 18.0443 117.437L17.9833 117.29C17.9833 117.29 17.9477 117.29 17.9528 117.29C17.9833 117.381 18.0036 117.473 18.0342 117.564C18.0647 117.656 18.0342 117.661 18.08 117.712C18.621 119.545 19.0274 121.416 19.296 123.308C19.296 123.37 19.3926 123.37 19.3926 123.308C19.3195 122.12 19.1321 120.941 18.833 119.788Z" fill="#263238"/>
<path d="M18.4768 181.676L18.9652 188.616L20.4661 209.776H36.5488L38.0497 188.616L38.5381 181.676H18.4768Z" fill="#455A64"/>
<path d="M18.4768 181.676L18.8482 186.968L38.0497 188.616L38.5381 181.676H18.4768Z" fill="#263238"/>
<path d="M16.8945 185.548H40.1154V180.374H16.8945V185.548Z" fill="#455A64"/>
</svg>
