<svg width="64" height="16" viewBox="0 0 64 16" fill="none" xmlns="http://www.w3.org/2000/svg">
<g clip-path="url(#clip0_4057_18889)">
<path fill-rule="evenodd" clip-rule="evenodd" d="M4.72877 3.18265C5.65791 2.95371 6.64528 2.74805 7.23617 2.74805C7.82705 2.74805 8.81442 2.95371 9.74356 3.18265C10.6941 3.41547 11.6524 3.69097 12.2158 3.85783C12.4514 3.92833 12.6603 4.05764 12.8185 4.23088C12.9766 4.40413 13.0776 4.61429 13.1099 4.83723C13.5797 8.03583 12.6133 10.4721 11.3357 12.1679H10.0193C9.90107 12.1679 9.80522 12.2638 9.80522 12.382C9.80522 12.5002 9.90107 12.5961 10.0193 12.5961H10.994C10.8715 12.7424 10.7442 12.8852 10.6124 13.0243H9.59114C9.4729 13.0243 9.37705 13.1201 9.37705 13.2384C9.37705 13.3566 9.4729 13.4524 9.59114 13.4524H10.1799C10.0208 13.6002 9.85632 13.743 9.68659 13.8806H9.16296C9.04472 13.8806 8.94887 13.9765 8.94887 14.0947C8.94887 14.1994 9.02398 14.2865 9.12324 14.3051C9.03127 14.3695 8.93802 14.4324 8.84354 14.4939C8.56016 14.6784 8.25992 14.8407 7.94608 14.9789C7.7063 15.0813 7.44854 15.1652 7.23617 15.1652C7.02379 15.1652 6.76688 15.0813 6.52625 14.9789C6.21241 14.8407 5.91217 14.6784 5.62879 14.4939C4.80929 13.9606 4.08272 13.3189 3.47336 12.5902C2.0364 10.8867 0.852064 8.31169 1.36245 4.83723C1.39472 4.61429 1.49573 4.40413 1.65388 4.23088C1.81203 4.05764 2.02089 3.92833 2.25648 3.85783C3.07446 3.61477 3.8988 3.38964 4.72877 3.18265ZM7.96665 3.94231C7.78541 3.93354 7.60184 3.92916 7.41596 3.92916C7.08256 3.92916 6.75098 3.94185 6.4212 3.96721C6.09505 3.99258 5.78159 4.03426 5.48081 4.09224C5.18365 4.15022 4.90642 4.22813 4.64912 4.32598C4.39183 4.4202 4.16896 4.53798 3.98052 4.67931C3.7957 4.81702 3.64893 4.98009 3.54021 5.16853C3.43512 5.35335 3.38257 5.56716 3.38257 5.80996V8.59311H5.5452V7.49507H4.79589V6.20134C4.79589 5.97666 4.87199 5.79365 5.0242 5.65232C5.1764 5.51099 5.37571 5.40046 5.62214 5.32074L5.63744 5.3159C5.65352 5.27907 5.67169 5.24263 5.69197 5.20658C5.78982 5.03264 5.92571 4.87319 6.09966 4.72823C6.27723 4.58327 6.48741 4.45281 6.73022 4.33685C6.97664 4.22089 7.24843 4.12304 7.54559 4.04332C7.68185 4.00556 7.82221 3.97189 7.96665 3.94231ZM6.96939 7.49507V8.59311H10.0034V9.91945C10.0034 10.1369 9.92913 10.3163 9.78055 10.4576C9.63559 10.5989 9.44171 10.7113 9.19891 10.7946C8.95974 10.8743 8.68432 10.9305 8.37267 10.9631C8.28154 10.9717 8.18945 10.979 8.09642 10.9851C8.22394 11.0218 8.36104 11.0544 8.50773 11.0827C8.82663 11.1407 9.17996 11.1697 9.56772 11.1697C9.96997 11.1697 10.3305 11.1389 10.6494 11.0773C10.8908 11.0279 11.1041 10.9671 11.2895 10.8949C11.3743 10.72 11.4167 10.5253 11.4167 10.3108V7.49507H6.96939ZM7.78945 12.197C7.70676 12.1783 7.62547 12.1584 7.54559 12.1373C7.24843 12.0539 6.97664 11.9561 6.73022 11.8437C6.48741 11.7278 6.27723 11.5973 6.09966 11.4524C5.92571 11.3074 5.78982 11.1498 5.69197 10.9794C5.65808 10.9192 5.63005 10.8578 5.6079 10.7954C5.36802 10.716 5.17346 10.6071 5.0242 10.4685C4.87199 10.3271 4.79589 10.1441 4.79589 9.91945L3.38257 10.3108C3.40794 10.5573 3.47861 10.7747 3.59457 10.9631C3.71054 11.1516 3.86274 11.3165 4.05118 11.4578C4.23962 11.5955 4.45706 11.7133 4.70348 11.8111C4.95353 11.9053 5.22351 11.9814 5.51342 12.0394C5.80333 12.0974 6.10955 12.1391 6.43208 12.1644C6.7546 12.1898 7.08256 12.2025 7.41596 12.2025C7.54046 12.2025 7.66495 12.2006 7.78945 12.197ZM8.25364 5.15135C8.33487 5.13173 8.41957 5.1139 8.50773 5.09787C8.82663 5.03626 9.17996 5.00546 9.56772 5.00546C9.96997 5.00546 10.3305 5.03807 10.6494 5.1033C10.88 5.14783 11.0849 5.20467 11.2643 5.27381C11.3443 5.43499 11.3951 5.61371 11.4167 5.80996L10.0034 6.20134C10.0034 5.98391 9.92913 5.80634 9.78055 5.66863C9.63559 5.5273 9.44171 5.41677 9.19891 5.33704C8.95974 5.25369 8.68432 5.19571 8.37267 5.1631C8.33317 5.15891 8.29349 5.155 8.25364 5.15135Z" fill="#395BA9"/>
<path d="M16.4637 11.6337C16.4637 10.9343 16.6513 10.3952 17.0263 10.0165C17.3525 9.68676 17.7674 9.52187 18.2711 9.52187C18.9452 9.52187 19.438 9.74293 19.7497 10.185C19.9218 10.4333 20.0142 10.6824 20.0269 10.9325H19.1898C19.1354 10.7404 19.0657 10.5955 18.9805 10.4976C18.8283 10.3237 18.6027 10.2367 18.3038 10.2367C17.9993 10.2367 17.7593 10.3599 17.5835 10.6063C17.4077 10.8509 17.3199 11.1979 17.3199 11.6473C17.3199 12.0966 17.4123 12.4337 17.5971 12.6583C17.7837 12.8812 18.0202 12.9927 18.3065 12.9927C18.6 12.9927 18.8238 12.8966 18.9778 12.7046C19.063 12.6013 19.1336 12.4464 19.1898 12.2398H20.0188C19.9463 12.6765 19.7606 13.0316 19.4616 13.3052C19.1644 13.5788 18.783 13.7156 18.3173 13.7156C17.7411 13.7156 17.2882 13.5308 16.9584 13.1612C16.6286 12.7897 16.4637 12.2806 16.4637 11.6337Z" fill="#395BA9"/>
<path d="M22.4323 13.0062C22.7639 13.0062 23.0266 12.8839 23.2205 12.6393C23.4162 12.3947 23.514 12.0468 23.514 11.5956C23.514 11.1463 23.4162 10.7993 23.2205 10.5547C23.0266 10.3083 22.7639 10.185 22.4323 10.185C22.1007 10.185 21.8361 10.3074 21.6386 10.552C21.4411 10.7966 21.3424 11.1445 21.3424 11.5956C21.3424 12.0468 21.4411 12.3947 21.6386 12.6393C21.8361 12.8839 22.1007 13.0062 22.4323 13.0062ZM24.3511 11.5956C24.3511 12.315 24.1491 12.8658 23.745 13.2481C23.4424 13.5598 23.0048 13.7156 22.4323 13.7156C21.8597 13.7156 21.4221 13.5598 21.1195 13.2481C20.7136 12.8658 20.5107 12.315 20.5107 11.5956C20.5107 10.8618 20.7136 10.311 21.1195 9.94315C21.4221 9.6315 21.8597 9.47567 22.4323 9.47567C23.0048 9.47567 23.4424 9.6315 23.745 9.94315C24.1491 10.311 24.3511 10.8618 24.3511 11.5956Z" fill="#395BA9"/>
<path d="M27.6479 9.59798H28.852V13.6042H28.0719V10.8944C28.0719 10.8165 28.0728 10.7078 28.0747 10.5683C28.0765 10.4269 28.0774 10.3182 28.0774 10.2421L27.3191 13.6042H26.5064L25.7536 10.2421C25.7536 10.3182 25.7545 10.4269 25.7563 10.5683C25.7581 10.7078 25.759 10.8165 25.759 10.8944V13.6042H24.979V9.59798H26.1966L26.925 12.748L27.6479 9.59798Z" fill="#395BA9"/>
<path d="M31.8852 10.8727C31.8852 10.6643 31.8299 10.5157 31.7194 10.4269C31.6107 10.3382 31.4576 10.2938 31.2601 10.2938H30.48V11.4733H31.2601C31.4576 11.4733 31.6107 11.4253 31.7194 11.3293C31.8299 11.2333 31.8852 11.0811 31.8852 10.8727ZM32.7141 10.8672C32.7141 11.3402 32.5945 11.6745 32.3554 11.8702C32.1162 12.0658 31.7746 12.1637 31.3307 12.1637H30.48V13.6042H29.6483V9.59798H31.3932C31.7955 9.59798 32.1162 9.70126 32.3554 9.90782C32.5945 10.1144 32.7141 10.4342 32.7141 10.8672Z" fill="#395BA9"/>
<path d="M33.342 9.59798H34.1791V12.8839H36.1632V13.6042H33.342V9.59798Z" fill="#395BA9"/>
<path d="M38.5196 9.59798H39.4682L38.1282 12.0985V13.6042H37.2911V12.0985L35.905 9.59798H36.8916L37.7233 11.3429L38.5196 9.59798Z" fill="#395BA9"/>
<path d="M17.446 7.65064C17.4763 7.86957 17.5359 8.03323 17.6248 8.14161C17.7874 8.33887 18.0659 8.43749 18.4604 8.43749C18.6967 8.43749 18.8885 8.41148 19.0359 8.35946C19.3156 8.25975 19.4554 8.07441 19.4554 7.80346C19.4554 7.64522 19.386 7.52275 19.2473 7.43604C19.1086 7.3515 18.8907 7.27672 18.5938 7.21169L18.0865 7.09789C17.588 6.98517 17.2433 6.8627 17.0526 6.73047C16.7296 6.50938 16.5681 6.16364 16.5681 5.69326C16.5681 5.26406 16.7242 4.90749 17.0363 4.62353C17.3484 4.33957 17.8069 4.19758 18.4117 4.19758C18.9167 4.19758 19.347 4.33198 19.7025 4.60077C20.0602 4.86739 20.2477 5.25539 20.265 5.76479H19.3026C19.2852 5.47649 19.1595 5.27165 18.9254 5.15026C18.7693 5.07006 18.5753 5.02996 18.3434 5.02996C18.0854 5.02996 17.8795 5.08198 17.7256 5.18603C17.5717 5.29008 17.4948 5.43531 17.4948 5.62173C17.4948 5.79297 17.5706 5.92086 17.7224 6.0054C17.8199 6.06176 18.028 6.12787 18.3466 6.20374L19.1725 6.40208C19.5345 6.48878 19.8076 6.60475 19.9919 6.74998C20.278 6.97542 20.4211 7.30165 20.4211 7.72867C20.4211 8.16654 20.2531 8.5307 19.9171 8.82117C19.5833 9.10946 19.1107 9.25361 18.4995 9.25361C17.8752 9.25361 17.3842 9.11163 17.0265 8.82767C16.6689 8.54154 16.4901 8.1492 16.4901 7.65064H17.446Z" fill="#395BA9"/>
<path d="M24.2725 4.3374H25.7129V9.13005H24.7797V5.88835C24.7797 5.79514 24.7808 5.66508 24.783 5.49817C24.7851 5.32909 24.7862 5.19904 24.7862 5.10799L23.8791 9.13005H22.9069L22.0062 5.10799C22.0062 5.19904 22.0073 5.32909 22.0095 5.49817C22.0116 5.66508 22.0127 5.79514 22.0127 5.88835V9.13005H21.0796V4.3374H22.5362L23.4076 8.10584L24.2725 4.3374Z" fill="#395BA9"/>
<path d="M27.8866 7.31899H29.1026L28.5043 5.43314L27.8866 7.31899ZM27.9483 4.3374H29.0798L30.7771 9.13005H29.6911L29.3822 8.14486H27.6167L27.285 9.13005H26.2381L27.9483 4.3374Z" fill="#395BA9"/>
<path d="M32.3232 5.16977V6.45735H33.458C33.6834 6.45735 33.8525 6.43134 33.9652 6.37932C34.1647 6.28828 34.2644 6.10836 34.2644 5.83957C34.2644 5.54911 34.1679 5.35402 33.975 5.25431C33.8666 5.19795 33.704 5.16977 33.4873 5.16977H32.3232ZM33.6954 4.3374C34.0314 4.3439 34.2893 4.38509 34.4692 4.46095C34.6513 4.53682 34.8052 4.64845 34.9309 4.79585C35.035 4.91724 35.1173 5.05164 35.178 5.19904C35.2387 5.34644 35.2691 5.51443 35.2691 5.70301C35.2691 5.93061 35.2116 6.15497 35.0967 6.37607C34.9819 6.595 34.7922 6.74998 34.5277 6.84102C34.7488 6.9299 34.9049 7.0567 34.996 7.22145C35.0892 7.38402 35.1358 7.6333 35.1358 7.96928V8.29118C35.1358 8.51011 35.1444 8.65859 35.1618 8.73663C35.1878 8.86018 35.2485 8.95122 35.3439 9.00975V9.13005H34.2416C34.2113 9.02384 34.1896 8.93822 34.1766 8.87319C34.1506 8.7388 34.1365 8.60115 34.1343 8.46025L34.1278 8.0148C34.1235 7.70917 34.0671 7.50541 33.9587 7.40353C33.8525 7.30165 33.652 7.25071 33.3572 7.25071H32.3232V9.13005H31.3446V4.3374H33.6954Z" fill="#395BA9"/>
<path d="M39.5497 4.3374V5.18603H38.1158V9.13005H37.1078V5.18603H35.6674V4.3374H39.5497Z" fill="#395BA9"/>
</g>
<path d="M20.1685 10.1807H17.7285L17.3374 11.3354H15.6704L18.0358 4.79784H19.8798L22.2452 11.3354H20.5596L20.1685 10.1807ZM19.7587 8.95136L18.9485 6.55797L18.1476 8.95136H19.7587ZM22.7106 8.73717C22.7106 8.19702 22.8193 7.72517 23.0366 7.32162C23.2601 6.91806 23.5674 6.60763 23.9585 6.39033C24.3559 6.17304 24.8091 6.06439 25.3182 6.06439C25.9701 6.06439 26.5133 6.23512 26.9479 6.57659C27.3887 6.91806 27.6774 7.39923 27.814 8.02008H26.1191C25.9763 7.62273 25.7 7.42406 25.2903 7.42406C24.9985 7.42406 24.7656 7.53892 24.5918 7.76863C24.418 7.99214 24.331 8.31499 24.331 8.73717C24.331 9.15935 24.418 9.4853 24.5918 9.71502C24.7656 9.93852 24.9985 10.0503 25.2903 10.0503C25.7 10.0503 25.9763 9.8516 26.1191 9.45426H27.814C27.6774 10.0627 27.3887 10.5408 26.9479 10.8884C26.5071 11.2361 25.9639 11.41 25.3182 11.41C24.8091 11.41 24.3559 11.3013 23.9585 11.084C23.5674 10.8667 23.2601 10.5563 23.0366 10.1527C22.8193 9.74916 22.7106 9.27731 22.7106 8.73717ZM28.4113 8.72786C28.4113 8.19392 28.5107 7.72517 28.7093 7.32162C28.9142 6.91806 29.1905 6.60763 29.5382 6.39033C29.8858 6.17304 30.2739 6.06439 30.7023 6.06439C31.0686 6.06439 31.3883 6.13889 31.6615 6.28789C31.9409 6.4369 32.1551 6.63247 32.3041 6.8746V6.13889H33.8966V11.3354H32.3041V10.5997C32.1489 10.8419 31.9316 11.0374 31.6522 11.1864C31.379 11.3354 31.0593 11.41 30.693 11.41C30.2708 11.41 29.8858 11.3013 29.5382 11.084C29.1905 10.8605 28.9142 10.547 28.7093 10.1434C28.5107 9.73364 28.4113 9.26179 28.4113 8.72786ZM32.3041 8.73717C32.3041 8.33982 32.1923 8.02629 31.9688 7.79657C31.7515 7.56686 31.4846 7.452 31.1679 7.452C30.8513 7.452 30.5812 7.56686 30.3577 7.79657C30.1404 8.02008 30.0318 8.33051 30.0318 8.72786C30.0318 9.1252 30.1404 9.44184 30.3577 9.67776C30.5812 9.90748 30.8513 10.0223 31.1679 10.0223C31.4846 10.0223 31.7515 9.90748 31.9688 9.67776C32.1923 9.44805 32.3041 9.13452 32.3041 8.73717ZM34.7941 8.72786C34.7941 8.19392 34.8935 7.72517 35.0921 7.32162C35.297 6.91806 35.5733 6.60763 35.921 6.39033C36.2687 6.17304 36.6567 6.06439 37.0851 6.06439C37.4266 6.06439 37.737 6.13578 38.0164 6.27858C38.302 6.42138 38.5255 6.61384 38.6869 6.85598V4.44395H40.2794V11.3354H38.6869V10.5904C38.5379 10.8388 38.3237 11.0374 38.0443 11.1864C37.7711 11.3354 37.4514 11.41 37.0851 11.41C36.6567 11.41 36.2687 11.3013 35.921 11.084C35.5733 10.8605 35.297 10.547 35.0921 10.1434C34.8935 9.73364 34.7941 9.26179 34.7941 8.72786ZM38.6869 8.73717C38.6869 8.33982 38.5751 8.02629 38.3516 7.79657C38.1343 7.56686 37.8674 7.452 37.5507 7.452C37.2341 7.452 36.964 7.56686 36.7405 7.79657C36.5232 8.02008 36.4146 8.33051 36.4146 8.72786C36.4146 9.1252 36.5232 9.44184 36.7405 9.67776C36.964 9.90748 37.2341 10.0223 37.5507 10.0223C37.8674 10.0223 38.1343 9.90748 38.3516 9.67776C38.5751 9.44805 38.6869 9.13452 38.6869 8.73717ZM46.3921 8.65335C46.3921 8.80236 46.3828 8.95757 46.3642 9.11899H42.7601C42.7849 9.44184 42.8874 9.69018 43.0674 9.86402C43.2537 10.0317 43.4803 10.1155 43.7473 10.1155C44.1446 10.1155 44.4209 9.94784 44.5761 9.61258H46.2711C46.1841 9.95405 46.0258 10.2614 45.7961 10.5345C45.5726 10.8077 45.2901 11.0219 44.9486 11.1771C44.6072 11.3323 44.2253 11.41 43.8032 11.41C43.294 11.41 42.8408 11.3013 42.4435 11.084C42.0461 10.8667 41.7357 10.5563 41.5122 10.1527C41.2887 9.74916 41.1769 9.27731 41.1769 8.73717C41.1769 8.19702 41.2856 7.72517 41.5029 7.32162C41.7264 6.91806 42.0368 6.60763 42.4342 6.39033C42.8315 6.17304 43.2878 6.06439 43.8032 6.06439C44.306 6.06439 44.7531 6.16993 45.1442 6.38102C45.5353 6.59211 45.8396 6.89323 46.0569 7.28437C46.2804 7.67551 46.3921 8.13183 46.3921 8.65335ZM44.7624 8.23428C44.7624 7.9611 44.6692 7.7438 44.483 7.58238C44.2967 7.42095 44.0639 7.34024 43.7845 7.34024C43.5176 7.34024 43.2909 7.41785 43.1047 7.57306C42.9246 7.72828 42.8129 7.94868 42.7694 8.23428H44.7624ZM53.9251 6.08301C54.5708 6.08301 55.083 6.27858 55.4617 6.66972C55.8466 7.06086 56.0391 7.60411 56.0391 8.29947V11.3354H54.4559V8.51366C54.4559 8.1784 54.3659 7.92074 54.1858 7.7407C54.012 7.55444 53.7698 7.46131 53.4594 7.46131C53.149 7.46131 52.9038 7.55444 52.7237 7.7407C52.5499 7.92074 52.4629 8.1784 52.4629 8.51366V11.3354H50.8798V8.51366C50.8798 8.1784 50.7897 7.92074 50.6097 7.7407C50.4359 7.55444 50.1937 7.46131 49.8833 7.46131C49.5729 7.46131 49.3276 7.55444 49.1476 7.7407C48.9737 7.92074 48.8868 8.1784 48.8868 8.51366V11.3354H47.2943V6.13889H48.8868V6.79079C49.0482 6.57349 49.2593 6.40275 49.5201 6.27858C49.7809 6.1482 50.0758 6.08301 50.4048 6.08301C50.7959 6.08301 51.1436 6.16683 51.4478 6.33446C51.7583 6.50209 52.0004 6.74112 52.1742 7.05155C52.3543 6.76595 52.5995 6.53313 52.91 6.35308C53.2204 6.17304 53.5588 6.08301 53.9251 6.08301ZM62.5232 6.13889L59.2637 13.8034H57.5502L58.7422 11.1585L56.6282 6.13889H58.407L59.6083 9.38907L60.8004 6.13889H62.5232Z" fill="#395BA9"/>
<defs>
<clipPath id="clip0_4057_18889">
<rect width="15.5214" height="14.9005" fill="white" transform="translate(0 0.885254)"/>
</clipPath>
</defs>
</svg>
