<svg width="38" height="38" viewBox="0 0 38 38" fill="none" xmlns="http://www.w3.org/2000/svg">
<path d="M33.3333 28.334C34.2174 28.334 35.0652 27.9828 35.6904 27.3577C36.3155 26.7326 36.6667 25.8847 36.6667 25.0007V6.66732C36.6667 5.78326 36.3155 4.93542 35.6904 4.31029C35.0652 3.68517 34.2174 3.33398 33.3333 3.33398H15.7667C16.35 4.35065 16.6667 5.50065 16.6667 6.66732H33.3333V25.0007H18.3333V28.334M25 11.6673V15.0007H15V36.6673H11.6667V26.6673H8.33333V36.6673H5V23.334H2.5V15.0007C2.5 14.1166 2.85119 13.2687 3.47631 12.6436C4.10143 12.0185 4.94928 11.6673 5.83333 11.6673H25ZM13.3333 6.66732C13.3333 7.55137 12.9821 8.39922 12.357 9.02434C11.7319 9.64946 10.8841 10.0007 10 10.0007C9.11595 10.0007 8.2681 9.64946 7.64298 9.02434C7.01786 8.39922 6.66667 7.55137 6.66667 6.66732C6.66667 5.78326 7.01786 4.93542 7.64298 4.31029C8.2681 3.68517 9.11595 3.33398 10 3.33398C10.8841 3.33398 11.7319 3.68517 12.357 4.31029C12.9821 4.93542 13.3333 5.78326 13.3333 6.66732Z" fill="#1D438F"/>
</svg>
