<svg width="40" height="39" viewBox="0 0 40 39" fill="none" xmlns="http://www.w3.org/2000/svg">
<path d="M28.3333 33.3327H36.6666V29.9993C36.6665 28.9602 36.3427 27.947 35.7401 27.1004C35.1376 26.2538 34.2863 25.616 33.3045 25.2756C32.3227 24.9352 31.2593 24.9091 30.262 25.201C29.2648 25.4929 28.3832 26.0883 27.7399 26.9043M28.3333 33.3327H11.6666M28.3333 33.3327V29.9993C28.3333 28.906 28.1232 27.861 27.7399 26.9043M27.7399 26.9043C27.121 25.3576 26.0528 24.0318 24.6732 23.0979C23.2937 22.164 21.6659 21.6648 19.9999 21.6648C18.3339 21.6648 16.7062 22.164 15.3266 23.0979C13.947 24.0318 12.8788 25.3576 12.2599 26.9043M11.6666 33.3327H3.33325V29.9993C3.33333 28.9602 3.65714 27.947 4.25969 27.1004C4.86223 26.2538 5.71356 25.616 6.69534 25.2756C7.67711 24.9352 8.74055 24.9091 9.73782 25.201C10.7351 25.4929 11.6166 26.0883 12.2599 26.9043M11.6666 33.3327V29.9993C11.6666 28.906 11.8766 27.861 12.2599 26.9043M24.9999 11.666C24.9999 12.9921 24.4731 14.2639 23.5355 15.2015C22.5978 16.1392 21.326 16.666 19.9999 16.666C18.6738 16.666 17.4021 16.1392 16.4644 15.2015C15.5267 14.2639 14.9999 12.9921 14.9999 11.666C14.9999 10.3399 15.5267 9.06816 16.4644 8.13048C17.4021 7.1928 18.6738 6.66602 19.9999 6.66602C21.326 6.66602 22.5978 7.1928 23.5355 8.13048C24.4731 9.06816 24.9999 10.3399 24.9999 11.666ZM34.9999 16.666C34.9999 17.5501 34.6487 18.3979 34.0236 19.023C33.3985 19.6482 32.5506 19.9993 31.6666 19.9993C30.7825 19.9993 29.9347 19.6482 29.3096 19.023C28.6844 18.3979 28.3333 17.5501 28.3333 16.666C28.3333 15.782 28.6844 14.9341 29.3096 14.309C29.9347 13.6839 30.7825 13.3327 31.6666 13.3327C32.5506 13.3327 33.3985 13.6839 34.0236 14.309C34.6487 14.9341 34.9999 15.782 34.9999 16.666ZM11.6666 16.666C11.6666 17.5501 11.3154 18.3979 10.6903 19.023C10.0652 19.6482 9.21731 19.9993 8.33325 19.9993C7.4492 19.9993 6.60135 19.6482 5.97623 19.023C5.35111 18.3979 4.99992 17.5501 4.99992 16.666C4.99992 15.782 5.35111 14.9341 5.97623 14.309C6.60135 13.6839 7.4492 13.3327 8.33325 13.3327C9.21731 13.3327 10.0652 13.6839 10.6903 14.309C11.3154 14.9341 11.6666 15.782 11.6666 16.666Z" stroke="#1D438F" stroke-width="2" stroke-linecap="round" stroke-linejoin="round"/>
</svg>
