<svg width="128" height="32" viewBox="0 0 128 32" fill="none" xmlns="http://www.w3.org/2000/svg">
<g clip-path="url(#clip0_3964_18606)">
<path fill-rule="evenodd" clip-rule="evenodd" d="M10.1554 4.93333C12.1508 4.44167 14.2713 4 15.5402 4C16.8092 4 18.9297 4.44167 20.9251 4.93333C22.9664 5.43333 25.0244 6.025 26.2345 6.38333C26.7404 6.53475 27.189 6.81244 27.5286 7.1845C27.8682 7.55656 28.0852 8.0079 28.1545 8.48667C29.1636 15.3559 27.0881 20.588 24.3444 24.2299H21.5173C21.2633 24.2299 21.0575 24.4357 21.0575 24.6896C21.0575 24.9436 21.2633 25.1494 21.5173 25.1494H23.6105C23.3473 25.4636 23.074 25.7702 22.791 26.0689H20.5977C20.3438 26.0689 20.138 26.2748 20.138 26.5287C20.138 26.7826 20.3438 26.9885 20.5977 26.9885H21.8621C21.5205 27.3057 21.1672 27.6124 20.8027 27.908H19.6782C19.4243 27.908 19.2184 28.1139 19.2184 28.3678C19.2184 28.5926 19.3797 28.7797 19.5929 28.8197C19.3954 28.9578 19.1951 29.093 18.9922 29.225C18.3836 29.6213 17.7388 29.9698 17.0648 30.2667C16.5499 30.4867 15.9963 30.6667 15.5402 30.6667C15.0842 30.6667 14.5324 30.4867 14.0157 30.2667C13.3417 29.9698 12.6969 29.6213 12.0883 29.225C10.3283 28.0797 8.76799 26.7016 7.45934 25.1367C4.37336 21.4783 1.82992 15.9483 2.92601 8.48667C2.99532 8.0079 3.21225 7.55656 3.55188 7.1845C3.89151 6.81244 4.34006 6.53475 4.846 6.38333C6.60268 5.86135 8.373 5.37787 10.1554 4.93333ZM17.109 6.56477C16.7198 6.54595 16.3256 6.53653 15.9264 6.53653C15.2104 6.53653 14.4983 6.56377 13.7901 6.61825C13.0896 6.67273 12.4164 6.76223 11.7705 6.88675C11.1323 7.01127 10.5369 7.1786 9.98438 7.38873C9.43182 7.59107 8.95319 7.84401 8.5485 8.14753C8.15159 8.44326 7.8364 8.79348 7.60292 9.19817C7.37722 9.59508 7.26438 10.0543 7.26438 10.5757V16.5527H11.9088V14.1946H10.2996V11.4162C10.2996 10.9337 10.463 10.5407 10.7899 10.2371C11.1167 9.93363 11.5448 9.69626 12.074 9.52504L12.1069 9.51466C12.1414 9.43556 12.1804 9.35731 12.224 9.27989C12.4341 8.90633 12.726 8.56389 13.0995 8.25259C13.4809 7.94129 13.9323 7.66112 14.4537 7.41207C14.9829 7.16303 15.5666 6.9529 16.2048 6.78169C16.4974 6.70059 16.7988 6.62829 17.109 6.56477ZM14.9673 14.1946V16.5527H21.4831V19.4011C21.4831 19.8681 21.3236 20.2533 21.0045 20.5568C20.6932 20.8603 20.2768 21.1016 19.7554 21.2806C19.2417 21.4518 18.6503 21.5725 17.981 21.6425C17.7853 21.6609 17.5875 21.6766 17.3877 21.6896C17.6616 21.7686 17.956 21.8385 18.271 21.8993C18.9559 22.0238 19.7147 22.0861 20.5474 22.0861C21.4113 22.0861 22.1857 22.02 22.8705 21.8876C23.3889 21.7816 23.847 21.6511 24.245 21.496C24.4272 21.1204 24.5183 20.7023 24.5183 20.2416V14.1946H14.9673ZM16.7285 24.2922C16.5509 24.2522 16.3763 24.2095 16.2048 24.164C15.5666 23.9851 14.9829 23.7749 14.4537 23.5337C13.9323 23.2846 13.4809 23.0044 13.0995 22.6931C12.726 22.3818 12.4341 22.0433 12.224 21.6775C12.1512 21.5481 12.091 21.4164 12.0434 21.2823C11.5283 21.1119 11.1104 20.8778 10.7899 20.5802C10.463 20.2767 10.2996 19.8836 10.2996 19.4011L7.26438 20.2416C7.31885 20.7709 7.47061 21.2378 7.71966 21.6425C7.9687 22.0472 8.29557 22.4013 8.70026 22.7048C9.10495 23.0006 9.57191 23.2535 10.1011 23.4636C10.6381 23.666 11.2179 23.8294 11.8405 23.9539C12.4631 24.0784 13.1208 24.1679 13.8134 24.2224C14.5061 24.2769 15.2104 24.3041 15.9264 24.3041C16.1937 24.3041 16.4611 24.3002 16.7285 24.2922ZM17.7253 9.16128C17.8998 9.11913 18.0817 9.08084 18.271 9.04641C18.9559 8.91411 19.7147 8.84796 20.5474 8.84796C21.4113 8.84796 22.1857 8.918 22.8705 9.05809C23.3656 9.15372 23.8057 9.27578 24.1909 9.42426C24.3628 9.77041 24.472 10.1542 24.5183 10.5757L21.4831 11.4162C21.4831 10.9493 21.3236 10.5679 21.0045 10.2722C20.6932 9.96865 20.2768 9.73128 19.7554 9.56006C19.2417 9.38106 18.6503 9.25654 17.981 9.1865C17.8961 9.17752 17.8109 9.16911 17.7253 9.16128Z" fill="white"/>
<path d="M35.3571 23.0826C35.3571 21.5806 35.7599 20.4229 36.5654 19.6096C37.2658 18.9014 38.1569 18.5473 39.2387 18.5473C40.6862 18.5473 41.7447 19.022 42.414 19.9715C42.7836 20.5046 42.9821 21.0397 43.0093 21.5767H41.2116C41.0948 21.1642 40.945 20.8529 40.7621 20.6428C40.4352 20.2692 39.9508 20.0824 39.3087 20.0824C38.655 20.0824 38.1394 20.347 37.7619 20.8762C37.3845 21.4016 37.1957 22.1467 37.1957 23.1118C37.1957 24.0768 37.3942 24.8006 37.7911 25.2831C38.1919 25.7617 38.6997 26.0011 39.3145 26.0011C39.9449 26.0011 40.4255 25.7948 40.7563 25.3823C40.9392 25.1605 41.0909 24.8278 41.2116 24.3842H42.9918C42.8362 25.322 42.4373 26.0847 41.7952 26.6723C41.1571 27.2599 40.338 27.5537 39.3379 27.5537C38.1005 27.5537 37.1276 27.1568 36.4194 26.3629C35.7112 25.5652 35.3571 24.4718 35.3571 23.0826Z" fill="white"/>
<path d="M48.175 26.0302C48.8871 26.0302 49.4513 25.7676 49.8677 25.2423C50.288 24.7169 50.4981 23.9698 50.4981 23.0009C50.4981 22.0358 50.288 21.2907 49.8677 20.7653C49.4513 20.2361 48.8871 19.9715 48.175 19.9715C47.4629 19.9715 46.8948 20.2342 46.4706 20.7595C46.0465 21.2848 45.8344 22.0319 45.8344 23.0009C45.8344 23.9698 46.0465 24.7169 46.4706 25.2423C46.8948 25.7676 47.4629 26.0302 48.175 26.0302ZM52.2959 23.0009C52.2959 24.5457 51.862 25.7287 50.9942 26.5497C50.3444 27.219 49.4046 27.5537 48.175 27.5537C46.9454 27.5537 46.0056 27.219 45.3558 26.5497C44.4841 25.7287 44.0483 24.5457 44.0483 23.0009C44.0483 21.4249 44.4841 20.242 45.3558 19.452C46.0056 18.7827 46.9454 18.4481 48.175 18.4481C49.4046 18.4481 50.3444 18.7827 50.9942 19.452C51.862 20.242 52.2959 21.4249 52.2959 23.0009Z" fill="white"/>
<path d="M59.3761 18.7107H61.9618V27.3144H60.2866V21.4949C60.2866 21.3276 60.2886 21.0941 60.2925 20.7945C60.2964 20.491 60.2983 20.2575 60.2983 20.0941L58.6698 27.3144H56.9246L55.3077 20.0941C55.3077 20.2575 55.3097 20.491 55.3136 20.7945C55.3175 21.0941 55.3194 21.3276 55.3194 21.4949V27.3144H53.6442V18.7107H56.2591L57.8234 25.4757L59.3761 18.7107Z" fill="white"/>
<path d="M68.4758 21.4482C68.4758 21.0008 68.3571 20.6817 68.1198 20.491C67.8863 20.3003 67.5575 20.205 67.1333 20.205H65.4581V22.7382H67.1333C67.5575 22.7382 67.8863 22.6351 68.1198 22.4289C68.3571 22.2226 68.4758 21.8957 68.4758 21.4482ZM70.2561 21.4366C70.2561 22.4522 69.9993 23.1701 69.4856 23.5904C68.972 24.0107 68.2385 24.2208 67.2851 24.2208H65.4581V27.3144H63.672V18.7107H67.4193C68.2832 18.7107 68.972 18.9325 69.4856 19.3761C69.9993 19.8197 70.2561 20.5066 70.2561 21.4366Z" fill="white"/>
<path d="M71.6044 18.7107H73.4022V25.7676H77.6631V27.3144H71.6044V18.7107Z" fill="white"/>
<path d="M82.7238 18.7107H84.7608L81.8832 24.0807V27.3144H80.0855V24.0807L77.1086 18.7107H79.2274L81.0135 22.458L82.7238 18.7107Z" fill="white"/>
<path d="M37.4666 14.5287C37.5318 14.9989 37.6598 15.3503 37.8506 15.5831C38.1998 16.0067 38.798 16.2185 39.6452 16.2185C40.1526 16.2185 40.5646 16.1626 40.8812 16.0509C41.4817 15.8368 41.7819 15.4388 41.7819 14.8569C41.7819 14.517 41.633 14.254 41.335 14.0678C41.0371 13.8863 40.5693 13.7257 39.9315 13.586L38.8422 13.3416C37.7715 13.0995 37.0313 12.8365 36.6217 12.5526C35.9281 12.0777 35.5812 11.3352 35.5812 10.3251C35.5812 9.40334 35.9164 8.63756 36.5868 8.02773C37.2571 7.4179 38.2417 7.11299 39.5405 7.11299C40.6251 7.11299 41.5492 7.40161 42.3126 7.97885C43.0807 8.55144 43.4834 9.38471 43.5206 10.4787H41.4537C41.4165 9.85954 41.1465 9.41963 40.6437 9.15894C40.3086 8.9867 39.8919 8.90058 39.3938 8.90058C38.8399 8.90058 38.3976 9.0123 38.0671 9.23575C37.7366 9.4592 37.5713 9.77109 37.5713 10.1714C37.5713 10.5392 37.7343 10.8139 38.0601 10.9954C38.2696 11.1164 38.7165 11.2584 39.4008 11.4214L41.1744 11.8473C41.9518 12.0335 42.5384 12.2826 42.9341 12.5945C43.5486 13.0786 43.8558 13.7792 43.8558 14.6963C43.8558 15.6366 43.495 16.4187 42.7735 17.0425C42.0566 17.6616 41.0418 17.9712 39.729 17.9712C38.3883 17.9712 37.3339 17.6663 36.5658 17.0564C35.7977 16.442 35.4137 15.5994 35.4137 14.5287H37.4666Z" fill="white"/>
<path d="M52.127 7.41325H55.2204V17.7058H53.2163V10.744C53.2163 10.5439 53.2187 10.2645 53.2233 9.90609C53.228 9.54299 53.2303 9.26368 53.2303 9.06816L51.2821 17.7058H49.1943L47.26 9.06816C47.26 9.26368 47.2624 9.54299 47.267 9.90609C47.2717 10.2645 47.274 10.5439 47.274 10.744V17.7058H45.27V7.41325H48.3982L50.2696 15.5063L52.127 7.41325Z" fill="white"/>
<path d="M59.8885 13.8164H62.5001L61.2152 9.76644L59.8885 13.8164ZM60.0212 7.41325H62.4512L66.0962 17.7058H63.7639L63.1006 15.5901H59.3089L58.5967 17.7058H56.3482L60.0212 7.41325Z" fill="white"/>
<path d="M69.4166 9.20084V11.966H71.8536C72.3377 11.966 72.7009 11.9101 72.9429 11.7984C73.3712 11.6029 73.5853 11.2165 73.5853 10.6393C73.5853 10.0155 73.3782 9.59652 72.9639 9.38239C72.7311 9.26135 72.382 9.20084 71.9165 9.20084H69.4166ZM72.3633 7.41325C73.0849 7.42721 73.6389 7.51566 74.0252 7.67859C74.4163 7.84152 74.7468 8.08127 75.0168 8.39782C75.2402 8.65851 75.4171 8.94713 75.5475 9.26368C75.6778 9.58023 75.743 9.94101 75.743 10.346C75.743 10.8348 75.6196 11.3166 75.3729 11.7914C75.1262 12.2616 74.7189 12.5945 74.1509 12.79C74.6258 12.9808 74.9609 13.2532 75.1565 13.607C75.3566 13.9561 75.4567 14.4914 75.4567 15.213V15.9043C75.4567 16.3745 75.4753 16.6933 75.5126 16.8609C75.5684 17.1263 75.6988 17.3218 75.9036 17.4475V17.7058H73.5365C73.4713 17.4777 73.4247 17.2939 73.3968 17.1542C73.3409 16.8656 73.3107 16.57 73.306 16.2674L73.2921 15.3107C73.2827 14.6544 73.1617 14.2168 72.9289 13.998C72.7008 13.7792 72.2702 13.6698 71.6371 13.6698H69.4166V17.7058H67.3148V7.41325H72.3633Z" fill="white"/>
<path d="M84.9359 7.41325V9.23575H81.8565V17.7058H79.6919V9.23575H76.5985V7.41325H84.9359Z" fill="white"/>
</g>
<g clip-path="url(#clip1_3964_18606)">
<path d="M48.4319 20.8092C48.5593 20.7106 48.6609 20.5827 48.7282 20.4364C48.7955 20.29 48.8264 20.1296 48.8184 19.9688C48.8104 19.8079 48.7637 19.6514 48.6822 19.5125C48.6007 19.3736 48.4869 19.2564 48.3504 19.171L48.3621 13.349L47.3603 14.0163L47.3464 19.1662C47.211 19.2509 47.0978 19.3668 47.0163 19.5041C46.9348 19.6415 46.8874 19.7963 46.878 19.9557C46.8685 20.1152 46.8974 20.2745 46.9621 20.4205C47.0268 20.5665 47.1255 20.6949 47.25 20.795L46.8706 21.296C46.5333 21.7227 46.3456 22.2486 46.3366 22.7925L46.3332 24.0145L47.1482 24.0167C47.344 24.0172 47.5344 23.9524 47.6892 23.8326C47.844 23.7127 47.9545 23.5447 48.003 23.355L48.3376 22.0199L48.3322 24.0199L49.3322 24.0226L49.3355 22.8126C49.3293 22.2659 49.1431 21.7364 48.8056 21.3062L48.4319 20.8092ZM41.3766 8.00004L33.3658 11.9784L41.3522 17L49.3657 12.0217L41.3766 8.00004Z" fill="white"/>
<path d="M41.3495 18L36.3585 14.6565L36.3539 16.3665C36.3514 17.2765 39.2841 19.9944 41.3441 20C43.4041 20.0056 46.3514 17.3035 46.3539 16.3935L46.3585 14.6836L41.3495 18Z" fill="white"/>
<path d="M37.7252 17.7103L39.5865 18.4423C39.5865 18.4423 39.4441 22.2767 37.6801 23.2896C36.859 23.7611 35.3172 23.8332 35.3172 23.8332L37.7252 17.7103Z" fill="white"/>
<path d="M42.5662 17.9181L44.4589 17.2716C44.4589 17.2716 46.848 20.3101 46.1561 22.2403C45.8358 23.134 44.7101 24.1944 44.7101 24.1944L42.5662 17.9181Z" fill="white"/>
</g>
<path d="M49.8805 16.978C49.8805 15.934 50.0905 15.022 50.5105 14.242C50.9425 13.462 51.5365 12.862 52.2925 12.442C53.0605 12.022 53.9365 11.812 54.9205 11.812C56.1805 11.812 57.2305 12.142 58.0705 12.802C58.9225 13.462 59.4805 14.392 59.7445 15.592H56.4685C56.1925 14.824 55.6585 14.44 54.8665 14.44C54.3025 14.44 53.8525 14.662 53.5165 15.106C53.1805 15.538 53.0125 16.162 53.0125 16.978C53.0125 17.794 53.1805 18.424 53.5165 18.868C53.8525 19.3 54.3025 19.516 54.8665 19.516C55.6585 19.516 56.1925 19.132 56.4685 18.364H59.7445C59.4805 19.54 58.9225 20.464 58.0705 21.136C57.2185 21.808 56.1685 22.144 54.9205 22.144C53.9365 22.144 53.0605 21.934 52.2925 21.514C51.5365 21.094 50.9425 20.494 50.5105 19.714C50.0905 18.934 49.8805 18.022 49.8805 16.978ZM60.9123 16.96C60.9123 15.928 61.1043 15.022 61.4883 14.242C61.8843 13.462 62.4183 12.862 63.0903 12.442C63.7623 12.022 64.5123 11.812 65.3403 11.812C66.0483 11.812 66.6663 11.956 67.1943 12.244C67.7343 12.532 68.1483 12.91 68.4363 13.378V11.956H71.5143V22H68.4363V20.578C68.1363 21.046 67.7163 21.424 67.1763 21.712C66.6483 22 66.0303 22.144 65.3223 22.144C64.5063 22.144 63.7623 21.934 63.0903 21.514C62.4183 21.082 61.8843 20.476 61.4883 19.696C61.1043 18.904 60.9123 17.992 60.9123 16.96ZM68.4363 16.978C68.4363 16.21 68.2203 15.604 67.7883 15.16C67.3683 14.716 66.8523 14.494 66.2403 14.494C65.6283 14.494 65.1063 14.716 64.6743 15.16C64.2543 15.592 64.0443 16.192 64.0443 16.96C64.0443 17.728 64.2543 18.34 64.6743 18.796C65.1063 19.24 65.6283 19.462 66.2403 19.462C66.8523 19.462 67.3683 19.24 67.7883 18.796C68.2203 18.352 68.4363 17.746 68.4363 16.978ZM73.2624 16.96C73.2624 15.928 73.4544 15.022 73.8384 14.242C74.2344 13.462 74.7684 12.862 75.4404 12.442C76.1124 12.022 76.8624 11.812 77.6904 11.812C78.3504 11.812 78.9504 11.95 79.4904 12.226C80.0424 12.502 80.4744 12.874 80.7864 13.342V8.68H83.8644V22H80.7864V20.56C80.4984 21.04 80.0844 21.424 79.5444 21.712C79.0164 22 78.3984 22.144 77.6904 22.144C76.8624 22.144 76.1124 21.934 75.4404 21.514C74.7684 21.082 74.2344 20.476 73.8384 19.696C73.4544 18.904 73.2624 17.992 73.2624 16.96ZM80.7864 16.978C80.7864 16.21 80.5704 15.604 80.1384 15.16C79.7184 14.716 79.2024 14.494 78.5904 14.494C77.9784 14.494 77.4564 14.716 77.0244 15.16C76.6044 15.592 76.3944 16.192 76.3944 16.96C76.3944 17.728 76.6044 18.34 77.0244 18.796C77.4564 19.24 77.9784 19.462 78.5904 19.462C79.2024 19.462 79.7184 19.24 80.1384 18.796C80.5704 18.352 80.7864 17.746 80.7864 16.978ZM95.6926 16.816C95.6926 17.104 95.6746 17.404 95.6386 17.716H88.6726C88.7206 18.34 88.9186 18.82 89.2666 19.156C89.6266 19.48 90.0646 19.642 90.5806 19.642C91.3486 19.642 91.8826 19.318 92.1826 18.67H95.4586C95.2906 19.33 94.9846 19.924 94.5406 20.452C94.1086 20.98 93.5626 21.394 92.9026 21.694C92.2426 21.994 91.5046 22.144 90.6886 22.144C89.7046 22.144 88.8286 21.934 88.0606 21.514C87.2926 21.094 86.6926 20.494 86.2606 19.714C85.8286 18.934 85.6126 18.022 85.6126 16.978C85.6126 15.934 85.8226 15.022 86.2426 14.242C86.6746 13.462 87.2746 12.862 88.0426 12.442C88.8106 12.022 89.6926 11.812 90.6886 11.812C91.6606 11.812 92.5246 12.016 93.2806 12.424C94.0366 12.832 94.6246 13.414 95.0446 14.17C95.4766 14.926 95.6926 15.808 95.6926 16.816ZM92.5426 16.006C92.5426 15.478 92.3626 15.058 92.0026 14.746C91.6426 14.434 91.1926 14.278 90.6526 14.278C90.1366 14.278 89.6986 14.428 89.3386 14.728C88.9906 15.028 88.7746 15.454 88.6906 16.006H92.5426ZM110.266 11.848C111.514 11.848 112.504 12.226 113.236 12.982C113.98 13.738 114.352 14.788 114.352 16.132V22H111.292V16.546C111.292 15.898 111.118 15.4 110.77 15.052C110.434 14.692 109.966 14.512 109.366 14.512C108.766 14.512 108.292 14.692 107.944 15.052C107.608 15.4 107.44 15.898 107.44 16.546V22H104.38V16.546C104.38 15.898 104.206 15.4 103.858 15.052C103.522 14.692 103.054 14.512 102.454 14.512C101.854 14.512 101.38 14.692 101.032 15.052C100.696 15.4 100.528 15.898 100.528 16.546V22H97.4497V11.956H100.528V13.216C100.84 12.796 101.248 12.466 101.752 12.226C102.256 11.974 102.826 11.848 103.462 11.848C104.218 11.848 104.89 12.01 105.478 12.334C106.078 12.658 106.546 13.12 106.882 13.72C107.23 13.168 107.704 12.718 108.304 12.37C108.904 12.022 109.558 11.848 110.266 11.848ZM126.898 11.956L120.598 26.77H117.286L119.59 21.658L115.504 11.956H118.942L121.264 18.238L123.568 11.956H126.898Z" fill="white"/>
<defs>
<clipPath id="clip0_3964_18606">
<rect width="33.3333" height="32" fill="white"/>
</clipPath>
<clipPath id="clip1_3964_18606">
<rect width="16" height="16" fill="white" transform="translate(33.3766 7.97839) rotate(0.15503)"/>
</clipPath>
</defs>
</svg>
