<svg width="24" height="24" viewBox="0 0 24 24" fill="none" xmlns="http://www.w3.org/2000/svg">
<path fill-rule="evenodd" clip-rule="evenodd" d="M4 0C2.89543 0 2 0.89543 2 2V22C2 23.1046 2.89543 24 4 24H20C21.1046 24 22 23.1046 22 22V0H4ZM22 1.57356e-05V4L18 1.53859e-05L22 1.57356e-05Z" fill="#E2E8F0"/>
<path fill-rule="evenodd" clip-rule="evenodd" d="M18 0V3.99998H22L18 0Z" fill="#94A3B8"/>
<path fill-rule="evenodd" clip-rule="evenodd" d="M22 8V4H18L22 8Z" fill="#CBD5E1"/>
<rect x="1" y="8" width="22" height="12" rx="1" fill="#018C7D"/>
<path d="M4.20338 14.208C4.20338 13.664 4.32604 13.176 4.57138 12.744C4.81671 12.3067 5.15004 11.9653 5.57138 11.72C5.99804 11.4747 6.47004 11.352 6.98738 11.352C7.59538 11.352 8.12604 11.4987 8.57938 11.792C9.03271 12.0853 9.36338 12.5013 9.57138 13.04H8.69938C8.54471 12.704 8.32071 12.4453 8.02738 12.264C7.73938 12.0827 7.39271 11.992 6.98738 11.992C6.59804 11.992 6.24871 12.0827 5.93938 12.264C5.63004 12.4453 5.38738 12.704 5.21138 13.04C5.03538 13.3707 4.94738 13.76 4.94738 14.208C4.94738 14.6507 5.03538 15.04 5.21138 15.376C5.38738 15.7067 5.63004 15.9627 5.93938 16.144C6.24871 16.3253 6.59804 16.416 6.98738 16.416C7.39271 16.416 7.73938 16.328 8.02738 16.152C8.32071 15.9707 8.54471 15.712 8.69938 15.376H9.57138C9.36338 15.9093 9.03271 16.3227 8.57938 16.616C8.12604 16.904 7.59538 17.048 6.98738 17.048C6.47004 17.048 5.99804 16.928 5.57138 16.688C5.15004 16.4427 4.81671 16.104 4.57138 15.672C4.32604 15.24 4.20338 14.752 4.20338 14.208ZM12.4231 17.056C12.0551 17.056 11.7244 16.992 11.4311 16.864C11.1431 16.7307 10.9164 16.5493 10.7511 16.32C10.5857 16.0853 10.5004 15.816 10.4951 15.512H11.2711C11.2977 15.7733 11.4044 15.9947 11.5911 16.176C11.7831 16.352 12.0604 16.44 12.4231 16.44C12.7697 16.44 13.0417 16.3547 13.2391 16.184C13.4417 16.008 13.5431 15.784 13.5431 15.512C13.5431 15.2987 13.4844 15.1253 13.3671 14.992C13.2497 14.8587 13.1031 14.7573 12.9271 14.688C12.7511 14.6187 12.5137 14.544 12.2151 14.464C11.8471 14.368 11.5511 14.272 11.3271 14.176C11.1084 14.08 10.9191 13.9307 10.7591 13.728C10.6044 13.52 10.5271 13.2427 10.5271 12.896C10.5271 12.592 10.6044 12.3227 10.7591 12.088C10.9137 11.8533 11.1297 11.672 11.4071 11.544C11.6897 11.416 12.0124 11.352 12.3751 11.352C12.8977 11.352 13.3244 11.4827 13.6551 11.744C13.9911 12.0053 14.1804 12.352 14.2231 12.784H13.4231C13.3964 12.5707 13.2844 12.384 13.0871 12.224C12.8897 12.0587 12.6284 11.976 12.3031 11.976C11.9991 11.976 11.7511 12.056 11.5591 12.216C11.3671 12.3707 11.2711 12.5893 11.2711 12.872C11.2711 13.0747 11.3271 13.24 11.4391 13.368C11.5564 13.496 11.6977 13.5947 11.8631 13.664C12.0337 13.728 12.2711 13.8027 12.5751 13.888C12.9431 13.9893 13.2391 14.0907 13.4631 14.192C13.6871 14.288 13.8791 14.44 14.0391 14.648C14.1991 14.8507 14.2791 15.128 14.2791 15.48C14.2791 15.752 14.2071 16.008 14.0631 16.248C13.9191 16.488 13.7057 16.6827 13.4231 16.832C13.1404 16.9813 12.8071 17.056 12.4231 17.056ZM19.9584 11.424L17.8544 17H17.0144L14.9104 11.424H15.6864L17.4384 16.232L19.1904 11.424H19.9584Z" fill="white"/>
</svg>
