<svg width="24" height="24" viewBox="0 0 24 24" fill="none" xmlns="http://www.w3.org/2000/svg">
<path fill-rule="evenodd" clip-rule="evenodd" d="M4 0C2.89543 0 2 0.89543 2 2V22C2 23.1046 2.89543 24 4 24H20C21.1046 24 22 23.1046 22 22V0H4ZM22 1.57356e-05V4L18 1.53859e-05L22 1.57356e-05Z" fill="#E2E8F0"/>
<path fill-rule="evenodd" clip-rule="evenodd" d="M18 0V3.99998H22L18 0Z" fill="#94A3B8"/>
<path fill-rule="evenodd" clip-rule="evenodd" d="M22 8V4H18L22 8Z" fill="#CBD5E1"/>
<rect x="1" y="9" width="22" height="11" rx="1" fill="#206CDE"/>
<path d="M3.95448 12.121C4.48648 12.121 4.94615 12.2213 5.33348 12.422C5.72548 12.618 6.02415 12.9003 6.22948 13.269C6.43948 13.6377 6.54448 14.0717 6.54448 14.571C6.54448 15.0703 6.43948 15.5043 6.22948 15.873C6.02415 16.237 5.72548 16.517 5.33348 16.713C4.94615 16.9043 4.48648 17 3.95448 17H2.43548V12.121H3.95448ZM3.95448 16.475C4.58448 16.475 5.06515 16.3093 5.39648 15.978C5.72782 15.642 5.89348 15.173 5.89348 14.571C5.89348 13.9643 5.72548 13.4907 5.38948 13.15C5.05815 12.8093 4.57982 12.639 3.95448 12.639H3.07248V16.475H3.95448ZM9.5967 17.049C9.14404 17.049 8.73104 16.944 8.3577 16.734C7.98437 16.5193 7.68804 16.223 7.4687 15.845C7.25404 15.4623 7.1467 15.033 7.1467 14.557C7.1467 14.081 7.25404 13.654 7.4687 13.276C7.68804 12.8933 7.98437 12.597 8.3577 12.387C8.73104 12.1723 9.14404 12.065 9.5967 12.065C10.054 12.065 10.4694 12.1723 10.8427 12.387C11.216 12.597 11.51 12.891 11.7247 13.269C11.9394 13.647 12.0467 14.0763 12.0467 14.557C12.0467 15.0377 11.9394 15.467 11.7247 15.845C11.51 16.223 11.216 16.5193 10.8427 16.734C10.4694 16.944 10.054 17.049 9.5967 17.049ZM9.5967 16.496C9.93737 16.496 10.243 16.4167 10.5137 16.258C10.789 16.0993 11.0037 15.873 11.1577 15.579C11.3164 15.285 11.3957 14.9443 11.3957 14.557C11.3957 14.165 11.3164 13.8243 11.1577 13.535C11.0037 13.241 10.7914 13.0147 10.5207 12.856C10.25 12.6973 9.94204 12.618 9.5967 12.618C9.25137 12.618 8.94337 12.6973 8.6727 12.856C8.40204 13.0147 8.18737 13.241 8.0287 13.535C7.8747 13.8243 7.7977 14.165 7.7977 14.557C7.7977 14.9443 7.8747 15.285 8.0287 15.579C8.18737 15.873 8.40204 16.0993 8.6727 16.258C8.94804 16.4167 9.25604 16.496 9.5967 16.496ZM12.6496 14.557C12.6496 14.081 12.757 13.654 12.9716 13.276C13.1863 12.8933 13.478 12.5947 13.8466 12.38C14.22 12.1653 14.633 12.058 15.0856 12.058C15.6176 12.058 16.082 12.1863 16.4786 12.443C16.8753 12.6997 17.1646 13.0637 17.3466 13.535H16.5836C16.4483 13.241 16.2523 13.0147 15.9956 12.856C15.7436 12.6973 15.4403 12.618 15.0856 12.618C14.745 12.618 14.4393 12.6973 14.1686 12.856C13.898 13.0147 13.6856 13.241 13.5316 13.535C13.3776 13.8243 13.3006 14.165 13.3006 14.557C13.3006 14.9443 13.3776 15.285 13.5316 15.579C13.6856 15.8683 13.898 16.0923 14.1686 16.251C14.4393 16.4097 14.745 16.489 15.0856 16.489C15.4403 16.489 15.7436 16.412 15.9956 16.258C16.2523 16.0993 16.4483 15.873 16.5836 15.579H17.3466C17.1646 16.0457 16.8753 16.4073 16.4786 16.664C16.082 16.916 15.6176 17.042 15.0856 17.042C14.633 17.042 14.22 16.937 13.8466 16.727C13.478 16.5123 13.1863 16.216 12.9716 15.838C12.757 15.46 12.6496 15.033 12.6496 14.557ZM20.2899 14.564L21.7879 17H21.0669L19.8979 15.096L18.7849 17H18.0779L19.5689 14.564L18.0709 12.121H18.7849L19.9609 14.032L21.0809 12.121H21.7949L20.2899 14.564Z" fill="white"/>
</svg>
