<svg width="24" height="24" viewBox="0 0 24 24" fill="none" xmlns="http://www.w3.org/2000/svg">
<path fill-rule="evenodd" clip-rule="evenodd" d="M4 0C2.89543 0 2 0.89543 2 2V22C2 23.1046 2.89543 24 4 24H20C21.1046 24 22 23.1046 22 22V0H4ZM22 1.57356e-05V4L18 1.53859e-05L22 1.57356e-05Z" fill="#E2E8F0"/>
<path fill-rule="evenodd" clip-rule="evenodd" d="M18 0V3.99998H22L18 0Z" fill="#94A3B8"/>
<path fill-rule="evenodd" clip-rule="evenodd" d="M22 8V4H18L22 8Z" fill="#CBD5E1"/>
<rect x="1" y="8" width="22" height="12" rx="1" fill="#F59E0B"/>
<path d="M10.7267 13.04C10.5721 12.7147 10.3481 12.464 10.0547 12.288C9.76139 12.1067 9.42005 12.016 9.03072 12.016C8.64139 12.016 8.28939 12.1067 7.97472 12.288C7.66539 12.464 7.42005 12.72 7.23872 13.056C7.06272 13.3867 6.97472 13.7707 6.97472 14.208C6.97472 14.6453 7.06272 15.0293 7.23872 15.36C7.42005 15.6907 7.66539 15.9467 7.97472 16.128C8.28939 16.304 8.64139 16.392 9.03072 16.392C9.57472 16.392 10.0227 16.2293 10.3747 15.904C10.7267 15.5787 10.9321 15.1387 10.9907 14.584H8.76672V13.992H11.7667V14.552C11.7241 15.0107 11.5801 15.432 11.3347 15.816C11.0894 16.1947 10.7667 16.496 10.3667 16.72C9.96672 16.9387 9.52139 17.048 9.03072 17.048C8.51339 17.048 8.04139 16.928 7.61472 16.688C7.18805 16.4427 6.84939 16.104 6.59872 15.672C6.35339 15.24 6.23072 14.752 6.23072 14.208C6.23072 13.664 6.35339 13.176 6.59872 12.744C6.84939 12.3067 7.18805 11.968 7.61472 11.728C8.04139 11.4827 8.51339 11.36 9.03072 11.36C9.62272 11.36 10.1454 11.5067 10.5987 11.8C11.0574 12.0933 11.3907 12.5067 11.5987 13.04H10.7267ZM13.4573 11.424V17H12.7293V11.424H13.4573ZM17.85 11.424V12.016H15.426V13.896H17.394V14.488H15.426V17H14.698V11.424H17.85Z" fill="white"/>
</svg>
