<svg width="24" height="24" viewBox="0 0 24 24" fill="none" xmlns="http://www.w3.org/2000/svg">
<path fill-rule="evenodd" clip-rule="evenodd" d="M4 0C2.89543 0 2 0.89543 2 2V22C2 23.1046 2.89543 24 4 24H20C21.1046 24 22 23.1046 22 22V0H4ZM22 1.57356e-05V4L18 1.53859e-05L22 1.57356e-05Z" fill="#E2E8F0"/>
<path fill-rule="evenodd" clip-rule="evenodd" d="M18 0V3.99998H22L18 0Z" fill="#94A3B8"/>
<path fill-rule="evenodd" clip-rule="evenodd" d="M22 8V4H18L22 8Z" fill="#CBD5E1"/>
<rect x="1" y="8" width="22" height="12" rx="1" fill="#A855F7"/>
<path d="M7.87322 11.424V15.544C7.87322 16.0027 7.73189 16.3707 7.44922 16.648C7.16655 16.92 6.79322 17.056 6.32922 17.056C5.85989 17.056 5.48389 16.9173 5.20122 16.64C4.91855 16.3573 4.77722 15.9733 4.77722 15.488H5.50522C5.51055 15.76 5.57989 15.9813 5.71322 16.152C5.85189 16.3227 6.05722 16.408 6.32922 16.408C6.60122 16.408 6.80389 16.328 6.93722 16.168C7.07055 16.0027 7.13722 15.7947 7.13722 15.544V11.424H7.87322ZM13.0354 13.056C13.0354 13.52 12.8754 13.9067 12.5554 14.216C12.2407 14.52 11.7581 14.672 11.1074 14.672H10.0354V17H9.30741V11.424H11.1074C11.7367 11.424 12.2141 11.576 12.5394 11.88C12.8701 12.184 13.0354 12.576 13.0354 13.056ZM11.1074 14.072C11.5127 14.072 11.8114 13.984 12.0034 13.808C12.1954 13.632 12.2914 13.3813 12.2914 13.056C12.2914 12.368 11.8967 12.024 11.1074 12.024H10.0354V14.072H11.1074ZM18.1642 13.04C18.0096 12.7147 17.7856 12.464 17.4922 12.288C17.1989 12.1067 16.8576 12.016 16.4682 12.016C16.0789 12.016 15.7269 12.1067 15.4122 12.288C15.1029 12.464 14.8576 12.72 14.6762 13.056C14.5002 13.3867 14.4122 13.7707 14.4122 14.208C14.4122 14.6453 14.5002 15.0293 14.6762 15.36C14.8576 15.6907 15.1029 15.9467 15.4122 16.128C15.7269 16.304 16.0789 16.392 16.4682 16.392C17.0122 16.392 17.4602 16.2293 17.8122 15.904C18.1642 15.5787 18.3696 15.1387 18.4282 14.584H16.2042V13.992H19.2042V14.552C19.1616 15.0107 19.0176 15.432 18.7722 15.816C18.5269 16.1947 18.2042 16.496 17.8042 16.72C17.4042 16.9387 16.9589 17.048 16.4682 17.048C15.9509 17.048 15.4789 16.928 15.0522 16.688C14.6256 16.4427 14.2869 16.104 14.0362 15.672C13.7909 15.24 13.6682 14.752 13.6682 14.208C13.6682 13.664 13.7909 13.176 14.0362 12.744C14.2869 12.3067 14.6256 11.968 15.0522 11.728C15.4789 11.4827 15.9509 11.36 16.4682 11.36C17.0602 11.36 17.5829 11.5067 18.0362 11.8C18.4949 12.0933 18.8282 12.5067 19.0362 13.04H18.1642Z" fill="white"/>
</svg>
