<svg width="24" height="24" viewBox="0 0 24 24" fill="none" xmlns="http://www.w3.org/2000/svg">
<path fill-rule="evenodd" clip-rule="evenodd" d="M4 0C2.89543 0 2 0.89543 2 2V22C2 23.1046 2.89543 24 4 24H20C21.1046 24 22 23.1046 22 22V0H4ZM22 1.57356e-05V4L18 1.53859e-05L22 1.57356e-05Z" fill="#E2E8F0"/>
<path fill-rule="evenodd" clip-rule="evenodd" d="M18 0V3.99998H22L18 0Z" fill="#94A3B8"/>
<path fill-rule="evenodd" clip-rule="evenodd" d="M22 8V4H18L22 8Z" fill="#CBD5E1"/>
<rect x="1" y="8" width="22" height="12" rx="1" fill="#6366F1"/>
<path d="M8.97903 11.464V17H8.25103V12.872L6.41103 17H5.89903L4.05103 12.864V17H3.32303V11.464H4.10703L6.15503 16.04L8.20303 11.464H8.97903ZM12.7417 17.056C12.2243 17.056 11.7523 16.936 11.3257 16.696C10.899 16.4507 10.5603 16.112 10.3097 15.68C10.0643 15.2427 9.94166 14.752 9.94166 14.208C9.94166 13.664 10.0643 13.176 10.3097 12.744C10.5603 12.3067 10.899 11.968 11.3257 11.728C11.7523 11.4827 12.2243 11.36 12.7417 11.36C13.2643 11.36 13.739 11.4827 14.1657 11.728C14.5923 11.968 14.9283 12.304 15.1737 12.736C15.419 13.168 15.5417 13.6587 15.5417 14.208C15.5417 14.7573 15.419 15.248 15.1737 15.68C14.9283 16.112 14.5923 16.4507 14.1657 16.696C13.739 16.936 13.2643 17.056 12.7417 17.056ZM12.7417 16.424C13.131 16.424 13.4803 16.3333 13.7897 16.152C14.1043 15.9707 14.3497 15.712 14.5257 15.376C14.707 15.04 14.7977 14.6507 14.7977 14.208C14.7977 13.76 14.707 13.3707 14.5257 13.04C14.3497 12.704 14.107 12.4453 13.7977 12.264C13.4883 12.0827 13.1363 11.992 12.7417 11.992C12.347 11.992 11.995 12.0827 11.6857 12.264C11.3763 12.4453 11.131 12.704 10.9497 13.04C10.7737 13.3707 10.6857 13.76 10.6857 14.208C10.6857 14.6507 10.7737 15.04 10.9497 15.376C11.131 15.712 11.3763 15.9707 11.6857 16.152C12.0003 16.3333 12.3523 16.424 12.7417 16.424ZM21.1107 11.424L19.0067 17H18.1667L16.0627 11.424H16.8387L18.5907 16.232L20.3427 11.424H21.1107Z" fill="white"/>
</svg>
