<svg width="24" height="24" viewBox="0 0 24 24" fill="none" xmlns="http://www.w3.org/2000/svg">
<path fill-rule="evenodd" clip-rule="evenodd" d="M4 0C2.89543 0 2 0.89543 2 2V22C2 23.1046 2.89543 24 4 24H20C21.1046 24 22 23.1046 22 22V0H4ZM22 1.57356e-05V4L18 1.53859e-05L22 1.57356e-05Z" fill="#E2E8F0"/>
<path fill-rule="evenodd" clip-rule="evenodd" d="M18 0V3.99998H22L18 0Z" fill="#94A3B8"/>
<path fill-rule="evenodd" clip-rule="evenodd" d="M22 8V4H18L22 8Z" fill="#CBD5E1"/>
<rect x="1" y="8" width="22" height="12" rx="1" fill="#14B8A6"/>
<path d="M10.1548 11.464V17H9.42681V12.872L7.58681 17H7.07481L5.22681 12.864V17H4.49881V11.464H5.28281L7.33081 16.04L9.37881 11.464H10.1548ZM15.1174 13.056C15.1174 13.52 14.9574 13.9067 14.6374 14.216C14.3228 14.52 13.8401 14.672 13.1894 14.672H12.1174V17H11.3894V11.424H13.1894C13.8188 11.424 14.2961 11.576 14.6214 11.88C14.9521 12.184 15.1174 12.576 15.1174 13.056ZM13.1894 14.072C13.5948 14.072 13.8934 13.984 14.0854 13.808C14.2774 13.632 14.3734 13.3813 14.3734 13.056C14.3734 12.368 13.9788 12.024 13.1894 12.024H12.1174V14.072H13.1894ZM15.8863 12.672C15.9236 12.1813 16.1129 11.7973 16.4543 11.52C16.7956 11.2427 17.2383 11.104 17.7823 11.104C18.1449 11.104 18.4569 11.1707 18.7183 11.304C18.9849 11.432 19.1849 11.608 19.3183 11.832C19.4569 12.056 19.5263 12.3093 19.5263 12.592C19.5263 12.9227 19.4303 13.208 19.2383 13.448C19.0516 13.688 18.8063 13.8427 18.5023 13.912V13.952C18.8489 14.0373 19.1236 14.2053 19.3263 14.456C19.5289 14.7067 19.6302 15.0347 19.6302 15.44C19.6302 15.744 19.5609 16.0187 19.4223 16.264C19.2836 16.504 19.0756 16.6933 18.7983 16.832C18.5209 16.9707 18.1876 17.04 17.7983 17.04C17.2329 17.04 16.7689 16.8933 16.4062 16.6C16.0436 16.3013 15.8409 15.88 15.7983 15.336H16.5023C16.5396 15.656 16.6703 15.9173 16.8943 16.12C17.1183 16.3227 17.4169 16.424 17.7903 16.424C18.1636 16.424 18.4463 16.328 18.6383 16.136C18.8356 15.9387 18.9343 15.6853 18.9343 15.376C18.9343 14.976 18.8009 14.688 18.5343 14.512C18.2676 14.336 17.8649 14.248 17.3263 14.248H17.1423V13.64H17.3343C17.8249 13.6347 18.1956 13.5547 18.4463 13.4C18.6969 13.24 18.8223 12.9947 18.8223 12.664C18.8223 12.3813 18.7289 12.1547 18.5423 11.984C18.3609 11.8133 18.0996 11.728 17.7582 11.728C17.4276 11.728 17.1609 11.8133 16.9583 11.984C16.7556 12.1547 16.6356 12.384 16.5983 12.672H15.8863Z" fill="white"/>
</svg>
