<svg width="24" height="24" viewBox="0 0 24 24" fill="none" xmlns="http://www.w3.org/2000/svg">
<path fill-rule="evenodd" clip-rule="evenodd" d="M4 0C2.89543 0 2 0.89543 2 2V22C2 23.1046 2.89543 24 4 24H20C21.1046 24 22 23.1046 22 22V0H4ZM22 1.57356e-05V4L18 1.53859e-05L22 1.57356e-05Z" fill="#E2E8F0"/>
<path fill-rule="evenodd" clip-rule="evenodd" d="M18 0V3.99998H22L18 0Z" fill="#94A3B8"/>
<path fill-rule="evenodd" clip-rule="evenodd" d="M22 8V4H18L22 8Z" fill="#CBD5E1"/>
<rect x="1" y="8" width="22" height="12" rx="1" fill="#F43F5E"/>
<path d="M9.18384 13.056C9.18384 13.52 9.02384 13.9067 8.70384 14.216C8.38918 14.52 7.90651 14.672 7.25584 14.672H6.18384V17H5.45584V11.424H7.25584C7.88518 11.424 8.36251 11.576 8.68784 11.88C9.01851 12.184 9.18384 12.576 9.18384 13.056ZM7.25584 14.072C7.66118 14.072 7.95984 13.984 8.15184 13.808C8.34384 13.632 8.43984 13.3813 8.43984 13.056C8.43984 12.368 8.04518 12.024 7.25584 12.024H6.18384V14.072H7.25584ZM11.8247 11.424C12.4327 11.424 12.958 11.5387 13.4007 11.768C13.8487 11.992 14.19 12.3147 14.4247 12.736C14.6647 13.1573 14.7847 13.6533 14.7847 14.224C14.7847 14.7947 14.6647 15.2907 14.4247 15.712C14.19 16.128 13.8487 16.448 13.4007 16.672C12.958 16.8907 12.4327 17 11.8247 17H10.0887V11.424H11.8247ZM11.8247 16.4C12.5447 16.4 13.094 16.2107 13.4727 15.832C13.8513 15.448 14.0407 14.912 14.0407 14.224C14.0407 13.5307 13.8487 12.9893 13.4647 12.6C13.086 12.2107 12.5393 12.016 11.8247 12.016H10.8167V16.4H11.8247ZM18.8969 11.424V12.016H16.4729V13.896H18.4409V14.488H16.4729V17H15.7449V11.424H18.8969Z" fill="white"/>
</svg>
