<svg width="24" height="24" viewBox="0 0 24 24" fill="none" xmlns="http://www.w3.org/2000/svg">
<path fill-rule="evenodd" clip-rule="evenodd" d="M4 0C2.89543 0 2 0.89543 2 2V22C2 23.1046 2.89543 24 4 24H20C21.1046 24 22 23.1046 22 22V0H4ZM22 1.57356e-05V4L18 1.53859e-05L22 1.57356e-05Z" fill="#E2E8F0"/>
<path fill-rule="evenodd" clip-rule="evenodd" d="M18 0V3.99998H22L18 0Z" fill="#94A3B8"/>
<path fill-rule="evenodd" clip-rule="evenodd" d="M22 8V4H18L22 8Z" fill="#CBD5E1"/>
<rect x="1" y="8" width="22" height="12" rx="1" fill="#3B82F6"/>
<path d="M8.10181 13.056C8.10181 13.52 7.94181 13.9067 7.62181 14.216C7.30715 14.52 6.82448 14.672 6.17381 14.672H5.10181V17H4.37381V11.424H6.17381C6.80315 11.424 7.28048 11.576 7.60581 11.88C7.93648 12.184 8.10181 12.576 8.10181 13.056ZM6.17381 14.072C6.57915 14.072 6.87781 13.984 7.06981 13.808C7.26181 13.632 7.35781 13.3813 7.35781 13.056C7.35781 12.368 6.96315 12.024 6.17381 12.024H5.10181V14.072H6.17381ZM13.3906 17H12.6626L9.73463 12.56V17H9.00663V11.416H9.73463L12.6626 15.848V11.416H13.3906V17ZM18.8556 13.04C18.701 12.7147 18.477 12.464 18.1836 12.288C17.8903 12.1067 17.549 12.016 17.1596 12.016C16.7703 12.016 16.4183 12.1067 16.1036 12.288C15.7943 12.464 15.549 12.72 15.3676 13.056C15.1916 13.3867 15.1036 13.7707 15.1036 14.208C15.1036 14.6453 15.1916 15.0293 15.3676 15.36C15.549 15.6907 15.7943 15.9467 16.1036 16.128C16.4183 16.304 16.7703 16.392 17.1596 16.392C17.7036 16.392 18.1516 16.2293 18.5036 15.904C18.8556 15.5787 19.061 15.1387 19.1196 14.584H16.8956V13.992H19.8956V14.552C19.853 15.0107 19.709 15.432 19.4636 15.816C19.2183 16.1947 18.8956 16.496 18.4956 16.72C18.0956 16.9387 17.6503 17.048 17.1596 17.048C16.6423 17.048 16.1703 16.928 15.7436 16.688C15.317 16.4427 14.9783 16.104 14.7276 15.672C14.4823 15.24 14.3596 14.752 14.3596 14.208C14.3596 13.664 14.4823 13.176 14.7276 12.744C14.9783 12.3067 15.317 11.968 15.7436 11.728C16.1703 11.4827 16.6423 11.36 17.1596 11.36C17.7516 11.36 18.2743 11.5067 18.7276 11.8C19.1863 12.0933 19.5196 12.5067 19.7276 13.04H18.8556Z" fill="white"/>
</svg>
