<svg width="24" height="24" viewBox="0 0 24 24" fill="none" xmlns="http://www.w3.org/2000/svg">
<path fill-rule="evenodd" clip-rule="evenodd" d="M4 0C2.89543 0 2 0.89543 2 2V22C2 23.1046 2.89543 24 4 24H20C21.1046 24 22 23.1046 22 22V0H4ZM22 1.57356e-05V4L18 1.53859e-05L22 1.57356e-05Z" fill="#E2E8F0"/>
<path fill-rule="evenodd" clip-rule="evenodd" d="M18 0V3.99998H22L18 0Z" fill="#94A3B8"/>
<path fill-rule="evenodd" clip-rule="evenodd" d="M22 8V4H18L22 8Z" fill="#CBD5E1"/>
<rect x="1" y="8" width="22" height="12" rx="1" fill="#10B981"/>
<path d="M8.33741 14.216L10.0494 17H9.22541L7.88941 14.824L6.61741 17H5.80941L7.51341 14.216L5.80141 11.424H6.61741L7.96141 13.608L9.24141 11.424H10.0574L8.33741 14.216ZM11.7542 16.408H13.7062V17H11.0262V11.424H11.7542V16.408ZM16.2473 17.056C15.8793 17.056 15.5486 16.992 15.2553 16.864C14.9673 16.7307 14.7406 16.5493 14.5753 16.32C14.4099 16.0853 14.3246 15.816 14.3193 15.512H15.0953C15.1219 15.7733 15.2286 15.9947 15.4153 16.176C15.6073 16.352 15.8846 16.44 16.2473 16.44C16.5939 16.44 16.8659 16.3547 17.0633 16.184C17.2659 16.008 17.3673 15.784 17.3673 15.512C17.3673 15.2987 17.3086 15.1253 17.1913 14.992C17.0739 14.8587 16.9273 14.7573 16.7513 14.688C16.5753 14.6187 16.3379 14.544 16.0393 14.464C15.6713 14.368 15.3753 14.272 15.1513 14.176C14.9326 14.08 14.7433 13.9307 14.5833 13.728C14.4286 13.52 14.3513 13.2427 14.3513 12.896C14.3513 12.592 14.4286 12.3227 14.5833 12.088C14.7379 11.8533 14.9539 11.672 15.2313 11.544C15.5139 11.416 15.8366 11.352 16.1993 11.352C16.7219 11.352 17.1486 11.4827 17.4793 11.744C17.8153 12.0053 18.0046 12.352 18.0473 12.784H17.2473C17.2206 12.5707 17.1086 12.384 16.9113 12.224C16.7139 12.0587 16.4526 11.976 16.1273 11.976C15.8233 11.976 15.5753 12.056 15.3833 12.216C15.1913 12.3707 15.0953 12.5893 15.0953 12.872C15.0953 13.0747 15.1513 13.24 15.2633 13.368C15.3806 13.496 15.5219 13.5947 15.6873 13.664C15.8579 13.728 16.0953 13.8027 16.3993 13.888C16.7673 13.9893 17.0633 14.0907 17.2873 14.192C17.5113 14.288 17.7033 14.44 17.8633 14.648C18.0233 14.8507 18.1033 15.128 18.1033 15.48C18.1033 15.752 18.0313 16.008 17.8873 16.248C17.7433 16.488 17.5299 16.6827 17.2473 16.832C16.9646 16.9813 16.6313 17.056 16.2473 17.056Z" fill="white"/>
</svg>
