<svg width="160" height="160" viewBox="0 0 160 160" fill="none" xmlns="http://www.w3.org/2000/svg">
<circle cx="80" cy="80" r="80" fill="#011947" fill-opacity="0.1"/>
<path d="M104.75 97.25H104.692C104.105 97.2363 103.537 97.0352 103.072 96.676C102.607 96.3169 102.269 95.8184 102.107 95.2535L93.3925 64.7725L88.0712 78.9625C87.8754 79.4867 87.5243 79.9386 87.0649 80.258C86.6055 80.5774 86.0595 80.749 85.5 80.75H74.5V75.25H83.5942L91.176 55.0348C91.379 54.4927 91.7478 54.0286 92.23 53.7084C92.7121 53.3882 93.283 53.2283 93.8613 53.2515C94.4397 53.2746 94.9959 53.4796 95.4509 53.8374C95.9059 54.1951 96.2365 54.6872 96.3955 55.2437L104.951 85.1968L110.393 68.881C110.575 68.3334 110.925 67.857 111.393 67.5194C111.861 67.1817 112.423 67 113 67H124V72.5H114.98L107.357 95.369C107.175 95.9168 106.826 96.3935 106.358 96.7312C105.89 97.0688 105.327 97.2504 104.75 97.25ZM77.25 116.5H71.75V97.25C71.7478 95.0626 70.8779 92.9655 69.3312 91.4188C67.7845 89.8721 65.6874 89.0022 63.5 89H52.5C50.3126 89.0022 48.2155 89.8721 46.6688 91.4188C45.1221 92.9655 44.2522 95.0626 44.25 97.25V116.5H38.75V97.25C38.7544 93.6046 40.2044 90.1098 42.7821 87.5321C45.3598 84.9544 48.8546 83.5044 52.5 83.5H63.5C67.1454 83.5044 70.6402 84.9544 73.2179 87.5321C75.7956 90.1098 77.2456 93.6046 77.25 97.25V116.5ZM58 56C59.6317 56 61.2267 56.4839 62.5835 57.3904C63.9402 58.2969 64.9976 59.5854 65.622 61.0929C66.2464 62.6004 66.4098 64.2592 66.0915 65.8595C65.7732 67.4598 64.9874 68.9298 63.8336 70.0836C62.6798 71.2374 61.2098 72.0232 59.6095 72.3415C58.0092 72.6598 56.3504 72.4964 54.8429 71.872C53.3354 71.2476 52.0469 70.1902 51.1404 68.8335C50.2339 67.4767 49.75 65.8817 49.75 64.25C49.75 62.062 50.6192 59.9635 52.1664 58.4164C53.7135 56.8692 55.812 56 58 56ZM58 50.5C55.2805 50.5 52.6221 51.3064 50.3609 52.8173C48.0997 54.3282 46.3374 56.4756 45.2967 58.9881C44.256 61.5006 43.9837 64.2653 44.5142 66.9325C45.0447 69.5997 46.3543 72.0497 48.2773 73.9727C50.2003 75.8957 52.6503 77.2053 55.3175 77.7358C57.9847 78.2663 60.7494 77.994 63.2619 76.9533C65.7744 75.9126 67.9218 74.1503 69.4327 71.8891C70.9436 69.6279 71.75 66.9695 71.75 64.25C71.75 60.6033 70.3013 57.1059 67.7227 54.5273C65.1441 51.9487 61.6467 50.5 58 50.5Z" fill="#011947"/>
</svg>
