<svg width="34" height="33" viewBox="0 0 34 33" fill="none" xmlns="http://www.w3.org/2000/svg">
<g id="vaadin:academy-cap" clip-path="url(#clip0_4644_18021)">
<path id="Vector" d="M31.154 25.6616C31.4087 25.4644 31.612 25.2086 31.7465 24.9159C31.8811 24.6233 31.943 24.3025 31.927 23.9808C31.911 23.6591 31.8175 23.346 31.6545 23.0682C31.4916 22.7904 31.2639 22.556 30.9909 22.3851L31.0144 10.7411L29.0108 12.0757L28.9829 22.3757C28.7121 22.5451 28.4858 22.7768 28.3228 23.0515C28.1598 23.3262 28.065 23.6358 28.0461 23.9547C28.0272 24.2735 28.0849 24.5922 28.2143 24.8842C28.3438 25.1762 28.5412 25.433 28.7901 25.6332L28.0314 26.6351C27.3567 27.4887 26.9814 28.5404 26.9633 29.6282L26.9566 32.0722L28.5866 32.0766C28.9782 32.0777 29.3589 31.9481 29.6686 31.7084C29.9782 31.4687 30.1991 31.1326 30.2962 30.7533L30.9655 28.0831L30.9546 32.0831L32.9546 32.0885L32.9612 29.6685C32.9488 28.575 32.5763 27.516 31.9013 26.6556L31.154 25.6616ZM17.0433 0.0432925L1.02169 7.99997L16.9946 18.0432L33.0216 8.08656L17.0433 0.0432925Z" fill="white"/>
<path id="Vector_2" d="M16.9891 20.0425L7.0072 13.3555L6.99795 16.7755C6.99302 18.5954 12.8583 24.0313 16.9783 24.0425C21.0983 24.0536 26.993 18.6496 26.9979 16.8296L27.0071 13.4096L16.9891 20.0425Z" fill="white"/>
<path id="Rectangle 6" d="M9.74054 19.4629L13.463 20.9269C13.463 20.9269 13.1783 28.5956 9.65037 30.6214C8.0081 31.5644 4.92457 31.7086 4.92457 31.7086L9.74054 19.4629Z" fill="white"/>
<path id="Rectangle 7" d="M19.4226 19.8789L23.2079 18.5859C23.2079 18.5859 27.9861 24.6629 26.6024 28.5234C25.9617 30.3106 23.7104 32.4315 23.7104 32.4315L19.4226 19.8789Z" fill="white"/>
</g>
<defs>
<clipPath id="clip0_4644_18021">
<rect width="32" height="32" fill="white" transform="translate(1.04333) rotate(0.15503)"/>
</clipPath>
</defs>
</svg>
