<svg width="50" height="49" viewBox="0 0 50 49" fill="none" xmlns="http://www.w3.org/2000/svg">
<g id="vaadin:academy-cap" clip-path="url(#clip0_4434_16238)">
<path id="Vector" d="M46.231 38.4924C46.613 38.1965 46.918 37.8128 47.1198 37.3739C47.3217 36.935 47.4146 36.4537 47.3906 35.9712C47.3665 35.4886 47.2263 35.019 46.9818 34.6023C46.7374 34.1856 46.3958 33.8341 45.9863 33.5777L46.0216 16.1117L43.0162 18.1136L42.9744 33.5635C42.5682 33.8176 42.2287 34.1652 41.9842 34.5772C41.7398 34.9892 41.5975 35.4538 41.5692 35.932C41.5408 36.4103 41.6274 36.8884 41.8215 37.3264C42.0157 37.7644 42.3118 38.1495 42.6851 38.4498L41.5471 39.9527C40.5351 41.233 39.9721 42.8106 39.9449 44.4424L39.935 48.1083L42.38 48.115C42.9673 48.1165 43.5384 47.9221 44.0029 47.5626C44.4674 47.2031 44.7987 46.6989 44.9444 46.1299L45.9482 42.1246L45.932 48.1246L48.932 48.1327L48.9418 44.5027C48.9233 42.8624 48.3645 41.274 47.352 39.9834L46.231 38.4924ZM25.0649 0.0649388L1.03256 12L24.9919 27.0648L49.0324 12.1298L25.0649 0.0649388Z" fill="#1D438F"/>
<path id="Vector_2" d="M24.9838 30.0647L10.0108 20.0342L9.99697 25.1642C9.98958 27.8942 18.7876 36.048 24.9675 36.0647C31.1475 36.0814 39.9895 27.9753 39.9969 25.2453L40.0107 20.1154L24.9838 30.0647Z" fill="#1D438F"/>
<path id="Rectangle 6" d="M14.1108 29.1953L19.6945 31.3913C19.6945 31.3913 19.2675 42.8944 13.9756 45.9331C11.5122 47.3476 6.88687 47.5639 6.88687 47.5639L14.1108 29.1953Z" fill="#1D438F"/>
<path id="Rectangle 7" d="M28.6339 29.8193L34.3118 27.8799C34.3118 27.8799 41.4792 36.9953 39.4035 42.786C38.4425 45.4669 35.0655 48.6482 35.0655 48.6482L28.6339 29.8193Z" fill="#1D438F"/>
</g>
<defs>
<clipPath id="clip0_4434_16238">
<rect width="48" height="48" fill="white" transform="translate(1.06503) rotate(0.15503)"/>
</clipPath>
</defs>
</svg>
