<svg width="16" height="15" viewBox="0 0 16 15" fill="none" xmlns="http://www.w3.org/2000/svg">
<g clip-path="url(#clip0_4560_20740)">
<path fill-rule="evenodd" clip-rule="evenodd" d="M4.72877 2.34671C5.65791 2.11777 6.64528 1.91211 7.23617 1.91211C7.82705 1.91211 8.81442 2.11777 9.74356 2.34671C10.6941 2.57953 11.6524 2.85503 12.2158 3.02189C12.4514 3.0924 12.6603 3.2217 12.8185 3.39495C12.9766 3.56819 13.0776 3.77835 13.1099 4.00129C13.5797 7.19989 12.6133 9.63619 11.3357 11.332H10.0193C9.90107 11.332 9.80522 11.4278 9.80522 11.5461C9.80522 11.6643 9.90107 11.7602 10.0193 11.7602H10.994C10.8715 11.9065 10.7442 12.0492 10.6124 12.1883H9.59114C9.4729 12.1883 9.37705 12.2842 9.37705 12.4024C9.37705 12.5207 9.4729 12.6165 9.59114 12.6165H10.1799C10.0208 12.7642 9.85632 12.907 9.68659 13.0447H9.16296C9.04472 13.0447 8.94887 13.1405 8.94887 13.2588C8.94887 13.3634 9.02398 13.4506 9.12324 13.4692C9.03127 13.5335 8.93802 13.5964 8.84354 13.6579C8.56016 13.8425 8.25992 14.0047 7.94608 14.143C7.7063 14.2454 7.44854 14.3292 7.23617 14.3292C7.02379 14.3292 6.76688 14.2454 6.52625 14.143C6.21241 14.0047 5.91217 13.8425 5.62879 13.6579C4.80929 13.1246 4.08272 12.4829 3.47336 11.7542C2.0364 10.0507 0.852064 7.47575 1.36245 4.00129C1.39472 3.77835 1.49573 3.56819 1.65388 3.39495C1.81203 3.2217 2.02089 3.0924 2.25648 3.02189C3.07446 2.77883 3.8988 2.55371 4.72877 2.34671ZM7.96665 3.10637C7.78541 3.09761 7.60184 3.09323 7.41596 3.09323C7.08256 3.09323 6.75098 3.10591 6.4212 3.13128C6.09505 3.15664 5.78159 3.19832 5.48081 3.2563C5.18365 3.31428 4.90642 3.3922 4.64912 3.49004C4.39183 3.58426 4.16896 3.70204 3.98052 3.84337C3.7957 3.98108 3.64893 4.14415 3.54021 4.3326C3.43512 4.51741 3.38257 4.73122 3.38257 4.97402V7.75717H5.5452V6.65913H4.79589V5.3654C4.79589 5.14072 4.87199 4.95772 5.0242 4.81638C5.1764 4.67505 5.37571 4.56452 5.62214 4.4848L5.63744 4.47996C5.65352 4.44313 5.67169 4.4067 5.69197 4.37065C5.78982 4.1967 5.92571 4.03725 6.09966 3.89229C6.27723 3.74734 6.48741 3.61688 6.73022 3.50091C6.97664 3.38495 7.24843 3.2871 7.54559 3.20738C7.68185 3.16962 7.82221 3.13595 7.96665 3.10637ZM6.96939 6.65913V7.75717H10.0034V9.08351C10.0034 9.30094 9.92913 9.48033 9.78055 9.62166C9.63559 9.76299 9.44171 9.87533 9.19891 9.95868C8.95974 10.0384 8.68432 10.0946 8.37267 10.1272C8.28154 10.1358 8.18945 10.1431 8.09642 10.1491C8.22394 10.1859 8.36104 10.2184 8.50773 10.2468C8.82663 10.3048 9.17996 10.3338 9.56772 10.3338C9.96997 10.3338 10.3305 10.3029 10.6494 10.2413C10.8908 10.192 11.1041 10.1312 11.2895 10.059C11.3743 9.88408 11.4167 9.68939 11.4167 9.47489V6.65913H6.96939ZM7.78945 11.361C7.70676 11.3424 7.62547 11.3225 7.54559 11.3013C7.24843 11.218 6.97664 11.1201 6.73022 11.0078C6.48741 10.8918 6.27723 10.7614 6.09966 10.6164C5.92571 10.4715 5.78982 10.3138 5.69197 10.1435C5.65808 10.0832 5.63005 10.0219 5.6079 9.95946C5.36802 9.88011 5.17346 9.77113 5.0242 9.63253C4.87199 9.4912 4.79589 9.30819 4.79589 9.08351L3.38257 9.47489C3.40794 9.72132 3.47861 9.93875 3.59457 10.1272C3.71054 10.3156 3.86274 10.4805 4.05118 10.6219C4.23962 10.7596 4.45706 10.8773 4.70348 10.9752C4.95353 11.0694 5.22351 11.1455 5.51342 11.2035C5.80333 11.2615 6.10955 11.3031 6.43208 11.3285C6.7546 11.3539 7.08256 11.3666 7.41596 11.3666C7.54046 11.3666 7.66495 11.3647 7.78945 11.361ZM8.25364 4.31542C8.33487 4.29579 8.41957 4.27796 8.50773 4.26193C8.82663 4.20032 9.17996 4.16952 9.56772 4.16952C9.96997 4.16952 10.3305 4.20214 10.6494 4.26737C10.88 4.31189 11.0849 4.36873 11.2643 4.43787C11.3443 4.59905 11.3951 4.77777 11.4167 4.97402L10.0034 5.3654C10.0034 5.14797 9.92913 4.9704 9.78055 4.83269C9.63559 4.69136 9.44171 4.58083 9.19891 4.50111C8.95974 4.41776 8.68432 4.35977 8.37267 4.32716C8.33317 4.32298 8.29349 4.31906 8.25364 4.31542Z" fill="#395BA9"/>
<path d="M16.4637 10.7978C16.4637 10.0983 16.6513 9.55929 17.0263 9.1806C17.3525 8.85082 17.7674 8.68594 18.2711 8.68594C18.9452 8.68594 19.438 8.907 19.7497 9.34911C19.9218 9.59735 20.0142 9.84649 20.0269 10.0965H19.1898C19.1354 9.90447 19.0657 9.75951 18.9805 9.66167C18.8283 9.48772 18.6027 9.40075 18.3038 9.40075C17.9993 9.40075 17.7593 9.52396 17.5835 9.77039C17.4077 10.015 17.3199 10.362 17.3199 10.8113C17.3199 11.2607 17.4123 11.5977 17.5971 11.8224C17.7837 12.0453 18.0202 12.1567 18.3065 12.1567C18.6 12.1567 18.8238 12.0607 18.9778 11.8686C19.063 11.7653 19.1336 11.6104 19.1898 11.4039H20.0188C19.9463 11.8405 19.7606 12.1957 19.4616 12.4693C19.1644 12.7429 18.783 12.8797 18.3173 12.8797C17.7411 12.8797 17.2882 12.6949 16.9584 12.3252C16.6286 11.9538 16.4637 11.4446 16.4637 10.7978Z" fill="#395BA9"/>
<path d="M22.4323 12.1703C22.7639 12.1703 23.0266 12.048 23.2205 11.8034C23.4162 11.5588 23.514 11.2109 23.514 10.7597C23.514 10.3103 23.4162 9.96336 23.2205 9.71875C23.0266 9.47232 22.7639 9.34911 22.4323 9.34911C22.1007 9.34911 21.8361 9.47142 21.6386 9.71603C21.4411 9.96064 21.3424 10.3085 21.3424 10.7597C21.3424 11.2109 21.4411 11.5588 21.6386 11.8034C21.8361 12.048 22.1007 12.1703 22.4323 12.1703ZM24.3511 10.7597C24.3511 11.479 24.1491 12.0299 23.745 12.4122C23.4424 12.7239 23.0048 12.8797 22.4323 12.8797C21.8597 12.8797 21.4221 12.7239 21.1195 12.4122C20.7136 12.0299 20.5107 11.479 20.5107 10.7597C20.5107 10.0259 20.7136 9.47504 21.1195 9.10721C21.4221 8.79556 21.8597 8.63973 22.4323 8.63973C23.0048 8.63973 23.4424 8.79556 23.745 9.10721C24.1491 9.47504 24.3511 10.0259 24.3511 10.7597Z" fill="#395BA9"/>
<path d="M27.6479 8.76204H28.852V12.7682H28.0719V10.0585C28.0719 9.98057 28.0728 9.87185 28.0747 9.73233C28.0765 9.591 28.0774 9.48229 28.0774 9.40619L27.3191 12.7682H26.5064L25.7536 9.40619C25.7536 9.48229 25.7545 9.591 25.7563 9.73233C25.7581 9.87185 25.759 9.98057 25.759 10.0585V12.7682H24.979V8.76204H26.1966L26.925 11.9121L27.6479 8.76204Z" fill="#395BA9"/>
<path d="M31.8852 10.0367C31.8852 9.82837 31.8299 9.67979 31.7194 9.591C31.6107 9.50222 31.4576 9.45783 31.2601 9.45783H30.48V10.6374H31.2601C31.4576 10.6374 31.6107 10.5894 31.7194 10.4934C31.8299 10.3973 31.8852 10.2451 31.8852 10.0367ZM32.7141 10.0313C32.7141 10.5042 32.5945 10.8385 32.3554 11.0342C32.1162 11.2299 31.7746 11.3278 31.3307 11.3278H30.48V12.7682H29.6483V8.76204H31.3932C31.7955 8.76204 32.1162 8.86532 32.3554 9.07188C32.5945 9.27844 32.7141 9.59825 32.7141 10.0313Z" fill="#395BA9"/>
<path d="M33.342 8.76204H34.1791V12.048H36.1632V12.7682H33.342V8.76204Z" fill="#395BA9"/>
<path d="M38.5196 8.76204H39.4682L38.1282 11.2625V12.7682H37.2911V11.2625L35.905 8.76204H36.8916L37.7233 10.5069L38.5196 8.76204Z" fill="#395BA9"/>
<path d="M17.446 6.8147C17.4763 7.03363 17.5359 7.19729 17.6248 7.30567C17.7874 7.50293 18.0659 7.60156 18.4604 7.60156C18.6967 7.60156 18.8885 7.57554 19.0359 7.52352C19.3156 7.42381 19.4554 7.23848 19.4554 6.96752C19.4554 6.80928 19.386 6.68681 19.2473 6.6001C19.1086 6.51557 18.8907 6.44078 18.5938 6.37575L18.0865 6.26195C17.588 6.14924 17.2433 6.02676 17.0526 5.89454C16.7296 5.67344 16.5681 5.3277 16.5681 4.85732C16.5681 4.42813 16.7242 4.07155 17.0363 3.78759C17.3484 3.50363 17.8069 3.36165 18.4117 3.36165C18.9167 3.36165 19.347 3.49604 19.7025 3.76483C20.0602 4.03145 20.2477 4.41946 20.265 4.92885H19.3026C19.2852 4.64056 19.1595 4.43571 18.9254 4.31433C18.7693 4.23412 18.5753 4.19402 18.3434 4.19402C18.0854 4.19402 17.8795 4.24605 17.7256 4.35009C17.5717 4.45414 17.4948 4.59937 17.4948 4.78579C17.4948 4.95703 17.5706 5.08492 17.7224 5.16946C17.8199 5.22582 18.028 5.29193 18.3466 5.3678L19.1725 5.56614C19.5345 5.65284 19.8076 5.76881 19.9919 5.91405C20.278 6.13948 20.4211 6.46571 20.4211 6.89274C20.4211 7.3306 20.2531 7.69476 19.9171 7.98523C19.5833 8.27352 19.1107 8.41767 18.4995 8.41767C17.8752 8.41767 17.3842 8.27569 17.0265 7.99173C16.6689 7.7056 16.4901 7.31326 16.4901 6.8147H17.446Z" fill="#395BA9"/>
<path d="M24.2725 3.50146H25.7129V8.29412H24.7797V5.05241C24.7797 4.9592 24.7808 4.82914 24.783 4.66223C24.7851 4.49316 24.7862 4.3631 24.7862 4.27206L23.8791 8.29412H22.9069L22.0062 4.27206C22.0062 4.3631 22.0073 4.49316 22.0095 4.66223C22.0116 4.82914 22.0127 4.9592 22.0127 5.05241V8.29412H21.0796V3.50146H22.5362L23.4076 7.26991L24.2725 3.50146Z" fill="#395BA9"/>
<path d="M27.8866 6.48305H29.1026L28.5043 4.5972L27.8866 6.48305ZM27.9483 3.50146H29.0798L30.7771 8.29412H29.6911L29.3822 7.30892H27.6167L27.285 8.29412H26.2381L27.9483 3.50146Z" fill="#395BA9"/>
<path d="M32.3232 4.33383V5.62141H33.458C33.6834 5.62141 33.8525 5.5954 33.9652 5.54338C34.1647 5.45234 34.2644 5.27242 34.2644 5.00364C34.2644 4.71317 34.1679 4.51808 33.975 4.41837C33.8666 4.36201 33.704 4.33383 33.4873 4.33383H32.3232ZM33.6954 3.50146C34.0314 3.50796 34.2893 3.54915 34.4692 3.62502C34.6513 3.70088 34.8052 3.81252 34.9309 3.95992C35.035 4.0813 35.1173 4.2157 35.178 4.3631C35.2387 4.5105 35.2691 4.67849 35.2691 4.86707C35.2691 5.09468 35.2116 5.31903 35.0967 5.54013C34.9819 5.75906 34.7922 5.91405 34.5277 6.00509C34.7488 6.09396 34.9049 6.22077 34.996 6.38551C35.0892 6.54808 35.1358 6.79736 35.1358 7.13334V7.45524C35.1358 7.67417 35.1444 7.82265 35.1618 7.90069C35.1878 8.02425 35.2485 8.11529 35.3439 8.17381V8.29412H34.2416C34.2113 8.1879 34.1896 8.10228 34.1766 8.03725C34.1506 7.90286 34.1365 7.76521 34.1343 7.62432L34.1278 7.17886C34.1235 6.87323 34.0671 6.66947 33.9587 6.56759C33.8525 6.46571 33.652 6.41477 33.3572 6.41477H32.3232V8.29412H31.3446V3.50146H33.6954Z" fill="#395BA9"/>
<path d="M39.5497 3.50146V4.35009H38.1158V8.29412H37.1078V4.35009H35.6674V3.50146H39.5497Z" fill="#395BA9"/>
</g>
<defs>
<clipPath id="clip0_4560_20740">
<rect width="15.5214" height="14.9005" fill="white" transform="translate(0 0.0488281)"/>
</clipPath>
</defs>
</svg>
