<svg width="24" height="25" viewBox="0 0 24 25" fill="none" xmlns="http://www.w3.org/2000/svg">
<path d="M5.121 17.9466C7.21942 16.7605 9.58958 16.1389 12 16.1426C14.5 16.1426 16.847 16.7976 18.879 17.9466M15 10.1426C15 10.9382 14.6839 11.7013 14.1213 12.2639C13.5587 12.8265 12.7956 13.1426 12 13.1426C11.2044 13.1426 10.4413 12.8265 9.87868 12.2639C9.31607 11.7013 9 10.9382 9 10.1426C9 9.34693 9.31607 8.58387 9.87868 8.02126C10.4413 7.45865 11.2044 7.14258 12 7.14258C12.7956 7.14258 13.5587 7.45865 14.1213 8.02126C14.6839 8.58387 15 9.34693 15 10.1426ZM21 12.1426C21 13.3245 20.7672 14.4948 20.3149 15.5867C19.8626 16.6787 19.1997 17.6708 18.364 18.5065C17.5282 19.3423 16.5361 20.0052 15.4442 20.4575C14.3522 20.9098 13.1819 21.1426 12 21.1426C10.8181 21.1426 9.64778 20.9098 8.55585 20.4575C7.46392 20.0052 6.47177 19.3423 5.63604 18.5065C4.80031 17.6708 4.13738 16.6787 3.68508 15.5867C3.23279 14.4948 3 13.3245 3 12.1426C3 9.75563 3.94821 7.46644 5.63604 5.77862C7.32387 4.09079 9.61305 3.14258 12 3.14258C14.3869 3.14258 16.6761 4.09079 18.364 5.77862C20.0518 7.46644 21 9.75563 21 12.1426Z" stroke="#C5C6D0" stroke-width="2" stroke-linecap="round" stroke-linejoin="round"/>
</svg>
